<svg version="1.1" id="Layer_1" xmlns="http://www.w3.org/2000/svg" xmlns:xlink="http://www.w3.org/1999/xlink" x="0px" y="0px"
	 width="100%" viewBox="0 0 1248 1248" enable-background="new 0 0 1248 1248" xml:space="preserve">
<path fill="#D5D8E1" opacity="1.000000" stroke="none" 
	d="
M1.000000,446.000000 
	C1.000000,297.333344 1.000000,149.166672 1.000000,1.000000 
	C417.000000,1.000000 833.000000,1.000000 1249.000000,1.000000 
	C1249.000000,417.000000 1249.000000,833.000000 1249.000000,1249.000000 
	C833.000000,1249.000000 417.000000,1249.000000 1.000000,1249.000000 
	C1.000000,981.500000 1.000000,714.000000 1.000000,446.000000 
M992.983215,672.983887 
	C992.983215,672.983887 992.981079,673.049255 993.920288,673.015686 
	C1004.163574,673.015686 1014.406860,673.015686 1024.960449,673.015686 
	C1024.960449,651.164001 1024.960449,630.061157 1025.902100,608.993469 
	C1036.151855,608.993469 1046.401489,608.993469 1056.960449,608.993469 
	C1056.960449,576.496704 1056.960449,544.727539 1057.902100,512.993469 
	C1068.155396,512.993469 1078.408813,512.993469 1088.573975,512.993469 
	C1088.573975,448.583527 1088.573975,384.914154 1088.573975,321.344879 
	C1077.894897,321.344879 1067.647339,321.344879 1056.997681,321.344879 
	C1056.997681,323.490875 1056.997559,325.292328 1056.997559,327.093781 
	C1056.997559,347.079071 1057.023682,367.064392 1056.990479,387.049652 
	C1056.956177,407.696686 1056.864258,428.343628 1055.885498,448.992157 
	C1037.220459,448.994751 1018.555481,448.999298 999.890503,448.999054 
	C993.008423,448.998962 993.001587,448.993774 993.001221,442.309692 
	C992.998779,403.646179 992.945190,364.982483 993.079468,326.319427 
	C993.093689,322.209045 991.939453,320.729950 987.734558,320.918152 
	C980.915466,321.223297 974.049622,321.343994 967.247375,320.888275 
	C962.056946,320.540558 960.862366,322.349762 960.888489,327.341583 
	C961.090820,366.004028 960.941833,404.668243 961.083130,443.331238 
	C961.098511,447.548737 960.174683,449.110321 955.587036,449.098999 
	C895.092346,448.949860 834.597107,448.970215 774.102234,449.068542 
	C770.257141,449.074799 768.409424,448.073334 768.976135,444.017548 
	C769.136047,442.873352 769.000000,441.687836 769.000000,440.521271 
	C768.999878,402.524384 768.929932,364.527161 769.094360,326.530975 
	C769.113525,322.109955 767.858215,320.686890 763.445068,320.909546 
	C756.629639,321.253357 749.765076,321.312103 742.957703,320.896149 
	C737.977417,320.591858 736.879395,322.431274 736.901001,327.130066 
	C737.076904,365.459442 737.000916,403.790009 736.999207,442.120209 
	C736.998840,448.991669 736.993774,448.998688 730.298828,448.998901 
	C670.803650,449.000793 611.308533,449.000641 551.813354,448.999084 
	C545.007324,448.998901 545.001343,448.993164 545.000977,442.232544 
	C544.998962,403.735687 544.920654,365.238464 545.102783,326.742462 
	C545.124939,322.056183 543.698730,320.674713 539.156494,320.911072 
	C532.508362,321.256958 525.802368,321.365387 519.171082,320.884583 
	C513.851196,320.498871 512.873169,322.555603 512.896729,327.418671 
	C513.082703,365.747986 513.001404,404.078583 512.998657,442.408783 
	C512.998169,448.988403 512.990051,448.998169 506.510345,448.998474 
	C446.848541,449.001068 387.186737,449.001038 327.524933,448.998566 
	C321.010590,448.998322 321.001923,448.988983 321.001434,442.444061 
	C320.998505,404.113861 321.001678,365.783661 320.998413,327.453461 
	C320.997864,321.009399 320.987976,321.005920 314.372803,321.001038 
	C308.039978,320.996338 301.687073,321.309998 295.380768,320.901031 
	C290.416412,320.579102 288.845612,321.994934 288.876190,327.207245 
	C289.104126,366.036072 288.944550,404.867004 289.080444,443.696716 
	C289.094910,447.828979 287.889404,449.122009 283.721130,449.085358 
	C264.224731,448.913971 244.725662,449.043335 225.053177,448.123260 
	C225.053177,405.914948 225.053177,363.706665 225.053177,321.172028 
	C213.942337,321.172028 203.503098,321.172028 192.126114,321.045593 
	C181.863876,321.045593 171.601639,321.045593 161.265472,321.045593 
	C161.265472,545.298401 161.265472,768.876953 161.265472,992.658386 
	C470.556152,992.658386 779.582214,992.658386 1088.826294,992.658386 
	C1088.826294,981.853027 1088.826294,971.386230 1088.916016,960.269836 
	C1088.888794,959.835266 1088.861572,959.400696 1088.996338,958.046265 
	C1088.996338,948.460144 1088.996338,938.874023 1088.996338,928.955200 
	C1086.114746,928.955200 1083.968750,928.959717 1081.822754,928.954468 
	C1052.175171,928.881653 1022.527527,928.807556 992.944641,927.832031 
	C992.963074,869.109253 992.977478,810.386475 993.007446,751.663696 
	C993.009888,746.841919 993.118103,742.020142 994.075500,737.068909 
	C1024.012817,737.045776 1053.950439,736.966919 1083.887207,737.068909 
	C1087.694580,737.081848 1089.262207,736.135925 1089.083374,732.045776 
	C1088.778809,725.073608 1088.722046,718.063538 1089.096436,711.098206 
	C1089.351807,706.349304 1087.942017,704.853394 1083.033203,704.889343 
	C1053.097046,705.109070 1023.158386,704.996399 993.074768,704.063965 
	C993.066040,693.704712 993.057312,683.345398 992.983215,672.983887 
M381.359528,118.785011 
	C371.645508,153.507370 364.271545,188.717209 358.776184,225.069794 
	C365.467163,225.069794 371.613983,224.786179 377.718842,225.169846 
	C381.764709,225.424118 383.433380,223.747864 384.164459,220.128571 
	C385.414307,213.941040 386.945465,207.808319 388.103302,201.604965 
	C388.781067,197.973801 391.000336,197.288681 394.165070,197.349838 
	C397.236389,197.409195 400.112061,197.161743 401.058472,201.234772 
	C402.561493,207.702972 404.313141,214.117844 406.147888,220.501175 
	C406.565308,221.953415 407.560760,224.150436 408.616791,224.360138 
	C415.386963,225.704636 422.252563,226.906860 429.592072,224.478271 
	C421.027893,186.084457 412.541840,148.040863 404.092560,110.162010 
	C401.302856,110.162010 399.316986,110.138603 397.331940,110.168564 
	C395.334778,110.198708 393.338837,110.306206 391.341675,110.337585 
	C383.547974,110.460068 383.547882,110.453842 381.359528,118.785011 
M714.388000,226.823853 
	C717.532532,226.523865 720.721313,226.458969 723.812866,225.877335 
	C731.381287,224.453415 737.427979,220.830368 738.780945,212.621536 
	C741.636353,195.297516 742.107361,177.877991 740.246765,160.382004 
	C739.203979,150.576355 733.508484,144.952637 724.495605,142.727859 
	C712.684143,139.812271 700.703491,139.990479 688.969421,143.279190 
	C683.445312,144.827438 679.266602,148.267487 678.097534,154.459915 
	C674.662781,172.653366 674.827332,190.906235 678.342285,208.970276 
	C680.123840,218.126022 689.965576,225.431305 698.979248,226.071106 
	C703.793457,226.412827 708.620300,226.576660 714.388000,226.823853 
M867.671509,140.906113 
	C859.202393,140.945099 850.673950,140.366486 842.278748,141.173904 
	C830.882935,142.269974 823.213989,150.098099 821.863403,160.525635 
	C820.416199,171.698029 825.860718,181.235580 836.522156,185.642792 
	C840.343506,187.222458 844.407349,188.229340 848.387268,189.407455 
	C852.202393,190.536819 856.145264,191.297913 859.863281,192.676056 
	C864.614258,194.437073 864.770752,198.573318 864.025330,202.713974 
	C863.295959,206.765793 860.028687,207.835571 856.544006,207.943359 
	C850.221436,208.138962 845.723022,205.292099 843.709473,199.418732 
	C835.676208,199.418732 827.931335,199.418732 820.103699,199.418732 
	C819.624451,206.779724 822.117859,212.560226 826.626465,217.606628 
	C838.514343,230.912659 868.394287,229.874359 878.788452,221.568207 
	C886.945435,215.049789 889.126648,206.239517 887.756226,196.496231 
	C886.360352,186.571991 880.469421,180.342728 870.501770,178.265335 
	C866.430603,177.416840 862.286499,176.844910 858.290527,175.733719 
	C855.478760,174.951813 852.487793,173.946533 850.249939,172.185547 
	C847.355469,169.907928 845.991089,166.471191 848.069885,162.826797 
	C850.213318,159.068848 853.655212,157.677307 857.844971,158.779831 
	C862.773376,160.076736 865.963318,163.127594 866.344849,168.696991 
	C874.022156,168.696991 881.401367,168.696991 888.711365,168.696991 
	C890.056763,153.166916 882.503052,143.084976 867.671509,140.906113 
M563.262390,147.193756 
	C560.457825,145.787201 557.794250,143.801270 554.823364,143.077942 
	C544.001404,140.443115 533.090271,140.677094 522.146057,142.758347 
	C513.571838,144.388916 508.309967,149.223618 507.233704,157.865356 
	C505.147125,174.619110 504.816040,191.451736 508.061249,208.067963 
	C509.956696,217.772949 516.797913,224.355255 526.315125,225.695831 
	C535.744507,227.024033 545.589355,226.731079 555.103760,225.734604 
	C563.707886,224.833450 567.887634,219.364609 569.083984,210.608704 
	C569.692383,206.155502 569.936890,201.649506 570.632874,197.212387 
	C571.131897,194.031067 569.899597,192.987381 566.910767,193.032501 
	C561.421936,193.115372 555.930908,193.056137 550.350098,193.056137 
	C549.801819,194.645813 549.379578,195.893219 548.941772,197.135101 
	C547.036743,202.538162 542.613220,204.742828 536.065247,203.557800 
	C529.722229,202.409836 527.278625,199.691589 527.373352,193.450912 
	C527.454346,188.121292 527.795776,182.795593 528.025818,177.468307 
	C528.318115,170.697601 531.049377,167.248230 536.954285,166.184418 
	C542.663391,165.155853 546.813171,167.792206 549.377747,173.761429 
	C549.938110,175.065613 551.193481,176.876663 552.299316,177.006989 
	C558.337708,177.718613 564.429443,177.978317 571.446472,178.457901 
	C570.887024,170.981674 571.018005,164.440735 569.699341,158.206436 
	C568.903381,154.443359 565.855713,151.156570 563.262390,147.193756 
M496.661469,220.159317 
	C496.661469,194.543732 496.661469,168.928131 496.661469,142.986984 
	C490.572021,142.986984 485.266937,142.947296 479.962860,143.003540 
	C477.264465,143.032135 475.730499,144.142731 475.787811,147.221970 
	C475.948578,155.861572 475.979889,164.505524 475.915497,173.146667 
	C475.872192,178.955978 476.037262,184.825287 475.263000,190.553406 
	C474.557983,195.769562 470.919891,198.135010 465.700928,198.098114 
	C460.171478,198.059021 457.761505,196.473526 456.954651,190.651093 
	C455.930206,183.258118 455.479797,175.760437 455.224915,168.292770 
	C454.942596,160.020752 455.160370,151.731674 455.160370,143.517517 
	C448.075500,143.517517 441.541199,143.517517 434.234161,143.517517 
	C434.234161,154.395432 434.147644,164.695221 434.257416,174.992920 
	C434.377991,186.304062 434.374908,197.629959 434.992706,208.918381 
	C435.542877,218.969864 440.434265,223.303833 450.546967,224.027710 
	C457.587952,224.531708 464.071136,222.984238 470.017273,219.147415 
	C471.421753,218.241150 472.946564,217.521378 474.793457,216.508911 
	C474.966003,219.846786 475.093018,222.304245 475.210052,224.568085 
	C481.977692,224.568085 488.415833,224.667480 494.840179,224.415192 
	C495.486572,224.389801 496.049377,222.235733 496.661469,220.159317 
M788.398254,144.753296 
	C783.289185,146.792953 778.180176,148.832611 773.000671,150.900375 
	C772.645813,148.207733 772.309998,145.659042 771.946045,142.897278 
	C764.708374,143.361816 757.994568,143.792740 751.283203,144.223495 
	C751.283203,171.382828 751.283203,198.260910 751.283203,225.555557 
	C756.320679,225.555557 760.808960,225.523376 765.296509,225.564545 
	C769.862061,225.606415 772.127258,224.011887 771.973145,218.832855 
	C771.596985,206.187241 771.617249,193.523544 771.776062,180.870865 
	C771.860168,174.166901 775.483948,170.336060 781.127380,170.074677 
	C787.432434,169.782684 790.539917,172.355209 790.995667,179.861420 
	C791.731384,191.979553 791.813721,204.137909 792.135742,216.280228 
	C792.212891,219.188828 792.147156,222.101196 792.147156,224.863800 
	C799.647644,224.863800 806.063293,224.863800 813.019409,224.863800 
	C813.019409,216.752914 813.028198,209.128006 813.017456,201.503128 
	C812.998718,188.179916 813.278076,174.846771 812.851318,161.536423 
	C812.455872,149.200089 806.635742,144.087723 794.194946,144.107376 
	C792.540344,144.109985 790.886169,144.402557 788.398254,144.753296 
M609.728394,166.509644 
	C609.347168,163.075134 611.716309,163.362488 613.931580,163.368057 
	C620.854919,163.385468 627.778259,163.374451 635.195984,163.374451 
	C635.195984,157.661728 635.109497,152.670563 635.224670,147.684052 
	C635.309326,144.019791 633.854187,142.697739 630.110535,143.038727 
	C623.358521,143.653763 616.569763,143.865204 609.080933,144.285355 
	C609.080933,133.617828 609.080933,123.567726 609.080933,113.084747 
	C601.676758,113.084747 594.958557,113.084747 587.781128,113.084747 
	C587.781128,123.483902 587.781128,133.576004 587.781128,144.107971 
	C583.752014,144.107971 580.166565,144.107971 576.282593,144.107971 
	C576.282593,150.932938 576.282593,157.303329 576.282593,164.175934 
	C580.205078,164.175934 583.765625,164.175934 587.638794,164.175934 
	C587.638794,166.834778 587.543091,168.996140 587.654785,171.146729 
	C588.258972,182.776840 588.924255,194.403763 589.548584,206.032867 
	C589.923340,213.012390 594.019775,217.242844 599.957397,220.035721 
	C611.025818,225.242050 622.803711,225.274963 635.223999,224.839050 
	C635.223999,217.506104 635.223999,210.376297 635.223999,204.023987 
	C628.113464,202.672226 621.914001,201.655884 615.796936,200.274750 
	C611.593079,199.325577 609.521667,196.756882 609.712280,192.006165 
	C610.039368,183.856125 609.750977,175.681412 609.728394,166.509644 
M783.974121,1134.581055 
	C798.216614,1116.316284 799.842224,1096.869995 789.227234,1076.402954 
	C786.518616,1071.180298 782.395386,1066.982910 776.267700,1066.610352 
	C769.498657,1066.198853 762.668579,1066.855469 755.863708,1066.942383 
	C752.842896,1066.981079 751.990112,1068.351440 752.019653,1071.288818 
	C752.185425,1087.751831 752.041260,1104.218384 752.275818,1120.679810 
	C752.361755,1126.714355 753.195068,1132.738281 753.676880,1138.637207 
	C762.420166,1138.637207 770.237854,1138.856689 778.026550,1138.478760 
	C779.907288,1138.387329 781.692261,1136.320923 783.974121,1134.581055 
M276.379181,1103.954834 
	C291.592712,1091.973511 287.467407,1072.646973 273.512451,1066.081909 
	C262.705780,1060.998047 251.440155,1061.072876 240.172775,1064.281128 
	C240.172775,1084.001587 240.126495,1103.311035 240.187943,1122.620117 
	C240.234070,1137.114380 241.276825,1137.903198 255.848526,1135.207764 
	C256.477081,1135.091431 257.094360,1134.914307 258.048157,1134.686279 
	C258.048157,1126.205078 258.048157,1117.782837 258.048157,1110.727539 
	C264.471588,1108.413086 270.119232,1106.378174 276.379181,1103.954834 
M395.216156,1126.114258 
	C397.553314,1130.830688 401.024139,1133.959351 406.368896,1135.162598 
	C411.581512,1136.336060 416.153992,1136.060791 419.701538,1131.102783 
	C420.742004,1136.476074 424.181213,1137.369019 433.846466,1135.403076 
	C433.846466,1111.348389 433.846466,1087.318115 433.846466,1063.136719 
	C429.128876,1063.136719 425.171967,1063.136719 420.414734,1063.136719 
	C420.414734,1070.774292 420.414734,1078.156616 420.414734,1085.189941 
	C415.860962,1084.795044 412.071930,1084.124390 408.299408,1084.206909 
	C398.810547,1084.414673 395.056427,1087.540649 393.211517,1096.821533 
	C391.296143,1106.457153 391.994232,1116.017578 395.216156,1126.114258 
M505.886932,1101.507324 
	C504.800659,1095.977295 503.714386,1090.447144 502.566162,1084.601562 
	C497.613007,1084.601562 492.855316,1084.601562 487.506226,1084.601562 
	C488.836853,1089.711792 490.188812,1094.622070 491.388092,1099.569214 
	C493.855560,1109.748047 496.360748,1119.920288 498.624573,1130.145264 
	C500.571838,1138.940308 498.886322,1140.801514 489.691437,1140.755249 
	C488.551819,1140.749634 487.412140,1140.754517 485.962219,1140.754517 
	C485.962219,1145.300415 485.962219,1149.609497 485.962219,1153.849243 
	C504.135895,1155.524536 515.232056,1148.613770 520.843933,1132.188232 
	C522.880188,1126.228271 524.204773,1120.014648 525.671326,1113.873291 
	C527.976685,1104.219238 530.127258,1094.528442 532.487549,1084.223511 
	C528.428589,1084.223511 524.943604,1084.471924 521.510986,1084.154175 
	C518.028870,1083.831787 516.688904,1085.558472 516.214233,1088.535156 
	C515.428101,1093.464355 514.703430,1098.403442 513.935608,1103.335693 
	C513.076294,1108.855591 512.197754,1114.372559 511.327576,1119.890747 
	C510.827393,1119.868408 510.327179,1119.846069 509.826996,1119.823730 
	C508.550262,1114.000244 507.273529,1108.176636 505.886932,1101.507324 
M643.616638,153.865341 
	C643.616638,177.412872 643.616638,200.960388 643.616638,225.025925 
	C650.088623,225.025925 656.209167,224.932495 662.324829,225.062592 
	C665.742188,225.135300 666.305969,223.567001 666.302979,220.451248 
	C666.280457,196.677567 666.462769,172.903687 666.579102,149.129868 
	C666.588623,147.181427 666.580383,145.232880 666.580383,142.760010 
	C658.992004,142.760010 651.921875,142.760010 644.380066,142.760010 
	C644.144653,146.061142 643.899475,149.499176 643.616638,153.865341 
M446.374084,1131.130127 
	C453.250305,1139.910400 460.654541,1135.370483 467.399994,1131.902222 
	C471.292725,1139.627686 477.859833,1134.026367 482.977478,1136.503052 
	C483.191101,1134.042847 483.437225,1132.426636 483.455078,1130.807617 
	C483.585266,1119.004883 483.735474,1107.201904 483.749786,1095.398682 
	C483.763947,1083.741455 483.694153,1083.652588 471.861786,1084.063110 
	C470.237671,1084.119507 468.661926,1085.569824 466.438629,1086.689453 
	C465.043640,1086.261353 462.491669,1084.973999 459.852570,1084.759766 
	C450.739441,1084.019775 443.479980,1089.815552 441.109222,1099.870483 
	C438.562714,1110.670654 440.160950,1120.975586 446.374084,1131.130127 
M913.203186,1087.062378 
	C912.599609,1088.234619 911.995972,1089.406738 911.886780,1089.618896 
	C908.120605,1088.932007 904.682373,1087.729858 901.269836,1087.798950 
	C893.483887,1087.956543 888.917297,1092.939331 886.201904,1099.667358 
	C882.604187,1108.581421 883.514587,1117.629517 886.476685,1126.485962 
	C890.848511,1139.557617 898.242126,1142.257324 910.120911,1135.402222 
	C910.654541,1135.094360 911.267456,1134.923950 911.862122,1134.681885 
	C913.263611,1139.442871 917.397034,1140.420898 927.774353,1138.195557 
	C927.774353,1125.802002 927.797852,1113.201050 927.767944,1100.599976 
	C927.735779,1087.067749 927.713928,1087.067749 913.203186,1087.062378 
M1016.538696,1139.993774 
	C1018.533630,1139.987915 1020.537476,1140.102783 1022.521912,1139.955444 
	C1031.574707,1139.283325 1035.274902,1136.128784 1035.814087,1127.122314 
	C1036.388062,1117.538940 1036.276489,1107.898315 1036.074463,1098.290771 
	C1035.941528,1091.965210 1032.030151,1087.863281 1026.052612,1086.996338 
	C1019.882446,1086.101562 1013.444397,1085.785767 1007.271362,1086.498047 
	C999.382812,1087.408081 996.600159,1090.690430 996.040466,1098.660034 
	C995.529480,1105.935547 995.598572,1113.274048 995.809387,1120.573364 
	C996.203003,1134.201782 1001.849731,1139.608765 1016.538696,1139.993774 
M289.723053,1101.187256 
	C290.099640,1108.280029 289.728180,1115.517700 291.065765,1122.424316 
	C292.371063,1129.164429 295.468506,1135.825684 303.603668,1136.821899 
	C308.849426,1137.464233 314.259735,1137.243164 319.554657,1136.849365 
	C323.686981,1136.542236 327.613373,1134.671143 328.767578,1130.346069 
	C329.941956,1125.945312 330.142365,1121.284912 330.823517,1116.344971 
	C326.035889,1116.344971 322.000458,1116.344971 318.048584,1116.344971 
	C316.306976,1123.622681 313.961334,1125.920532 309.690704,1124.800171 
	C304.695862,1123.489624 302.230286,1117.443970 303.916534,1109.638916 
	C312.702637,1109.638916 321.633118,1109.638916 330.443848,1109.638916 
	C332.455231,1093.322754 326.919281,1084.497681 314.241211,1083.056274 
	C302.516418,1081.723145 290.092712,1085.608154 289.723053,1101.187256 
M806.685669,1087.048096 
	C805.097168,1087.230103 803.508667,1087.412109 801.597290,1087.630981 
	C801.597290,1101.190552 801.572021,1114.313354 801.605957,1127.435913 
	C801.629395,1136.531860 806.632935,1138.965454 815.231079,1138.161011 
	C819.168091,1137.792480 822.946106,1135.724976 826.799316,1134.427002 
	C826.999207,1135.837524 827.202759,1137.274170 827.398560,1138.656006 
	C831.921387,1138.656006 836.156494,1138.656006 840.600464,1138.656006 
	C840.600464,1121.293335 840.600464,1104.400879 840.600464,1086.955078 
	C837.598083,1086.955078 834.964905,1087.111084 832.357910,1086.916260 
	C828.981384,1086.663574 827.421692,1087.983154 827.518555,1091.417114 
	C827.649780,1096.069336 827.683105,1100.725342 827.687500,1105.379639 
	C827.690979,1109.035889 827.804382,1112.712280 827.466797,1116.342285 
	C827.154358,1119.702271 825.156494,1121.752808 821.566162,1121.938965 
	C817.860107,1122.131104 815.998718,1120.151489 815.514893,1116.729980 
	C815.166443,1114.265991 814.929871,1111.766602 814.902893,1109.280273 
	C814.823975,1101.995605 814.874756,1094.709473 814.874756,1087.009644 
	C811.857971,1087.009644 809.723145,1087.009644 806.685669,1087.048096 
M1046.581665,1139.133667 
	C1058.003174,1139.429321 1055.760010,1139.532104 1056.045044,1130.010254 
	C1056.239014,1123.526855 1055.921509,1117.029663 1056.005005,1110.540894 
	C1056.052612,1106.839722 1058.086426,1104.648193 1061.854126,1104.401855 
	C1065.720703,1104.148804 1067.748291,1106.148438 1068.072510,1109.927979 
	C1068.399170,1113.737793 1068.825073,1117.548706 1068.919800,1121.366455 
	C1069.063232,1127.141602 1068.957275,1132.923096 1068.957275,1138.731934 
	C1073.582886,1138.731934 1077.625244,1138.731934 1081.933594,1138.731934 
	C1081.933594,1124.838989 1082.144775,1111.378784 1081.845825,1097.929810 
	C1081.692627,1091.034546 1078.338867,1087.976196 1071.382812,1088.047729 
	C1068.018799,1088.082275 1064.642578,1089.307617 1061.323120,1090.187134 
	C1059.852417,1090.576904 1058.508667,1091.445679 1056.873169,1092.205811 
	C1056.464478,1090.171387 1056.176514,1088.738281 1055.825439,1086.991455 
	C1051.507568,1087.316406 1047.292480,1087.633667 1042.936035,1087.961548 
	C1042.936035,1104.247070 1042.888062,1120.211182 1043.051025,1136.173096 
	C1043.061157,1137.165771 1044.727173,1138.141479 1046.581665,1139.133667 
M967.989807,1087.133789 
	C963.225342,1087.363892 958.460876,1087.593994 953.094543,1087.853027 
	C953.094543,1081.080688 953.094543,1074.841675 953.094543,1068.269531 
	C948.427368,1068.269531 944.338318,1068.269531 939.696167,1068.269531 
	C939.696167,1074.751831 939.696167,1081.132446 939.696167,1087.634644 
	C937.045593,1087.799561 934.932007,1087.931152 932.477539,1088.083984 
	C932.477539,1092.166748 932.477539,1096.040161 932.477539,1100.010498 
	C934.814880,1100.202515 936.916748,1100.375244 939.102905,1100.554810 
	C939.695007,1109.410522 940.367615,1117.990112 940.804199,1126.581543 
	C941.048523,1131.388550 943.713989,1134.246826 947.772583,1136.010620 
	C954.788147,1139.059448 962.157837,1139.313477 969.627319,1138.803833 
	C969.627319,1133.970459 969.627319,1129.596191 969.627319,1125.723389 
	C965.067017,1124.820557 961.104980,1124.300049 957.333313,1123.153442 
	C955.917542,1122.723022 953.998535,1120.889404 953.928528,1119.607178 
	C953.579346,1113.212158 953.768982,1106.787720 953.768982,1099.975586 
	C959.227417,1099.975586 964.157532,1099.975586 970.039551,1099.975586 
	C969.605286,1095.494873 969.215759,1091.475952 967.989807,1087.133789 
M872.304016,1087.889160 
	C869.080811,1088.612183 865.857666,1089.335205 863.044128,1089.966309 
	C858.671143,1084.001587 852.980774,1089.445068 848.162415,1087.331787 
	C848.162415,1105.047852 848.162415,1122.029541 848.162415,1138.833740 
	C852.980774,1138.833740 857.226624,1138.833740 861.427673,1138.833740 
	C861.427673,1129.762085 861.462097,1121.147461 861.416565,1112.532959 
	C861.381165,1105.834106 863.241821,1103.770996 869.953613,1103.949707 
	C873.529541,1104.044922 877.090332,1104.710693 880.749268,1105.129395 
	C880.749268,1099.384766 880.749268,1093.642700 880.749268,1087.343872 
	C878.026306,1087.509399 875.593079,1087.657349 872.304016,1087.889160 
M336.787170,1115.968872 
	C336.787170,1122.587158 336.787170,1129.205322 336.787170,1135.811768 
	C341.750214,1135.811768 346.123260,1135.811768 350.505127,1135.811768 
	C350.505127,1127.190430 350.641022,1119.053467 350.467804,1110.923218 
	C350.285889,1102.384521 351.913727,1100.583618 360.575104,1100.992920 
	C363.625854,1101.137207 366.656708,1101.703613 369.785919,1102.088257 
	C369.785919,1096.177734 369.785919,1090.572144 369.785919,1083.900024 
	C363.449982,1084.875000 357.482300,1085.793091 351.917908,1086.649292 
	C347.552856,1081.255859 341.960907,1086.301147 336.775635,1084.234375 
	C336.775635,1095.105347 336.775635,1105.068115 336.787170,1115.968872 
M705.004150,1104.501709 
	C705.004150,1099.418091 705.004150,1094.334351 705.004150,1089.316895 
	C693.940247,1089.316895 683.697327,1089.316895 673.405273,1089.316895 
	C673.405273,1100.002563 673.405273,1110.363525 673.405273,1120.682617 
	C684.060486,1120.682617 694.303406,1120.682617 705.004150,1120.682617 
	C705.004150,1115.413818 705.004150,1110.456055 705.004150,1104.501709 
M193.005356,1116.322266 
	C193.005356,1107.388306 193.005356,1098.454346 193.005356,1089.384399 
	C182.052521,1089.384399 171.697754,1089.384399 161.299896,1089.384399 
	C161.299896,1100.013672 161.299896,1110.250732 161.299896,1120.988892 
	C171.204742,1120.988892 180.815659,1121.086670 190.416885,1120.827026 
	C191.310638,1120.802979 192.143158,1118.513794 193.005356,1116.322266 
M988.703735,1117.500000 
	C988.703735,1107.430542 988.703735,1097.360962 988.703735,1087.037109 
	C984.032227,1087.037109 979.625366,1087.037109 974.788452,1087.037109 
	C974.788452,1104.339111 974.788452,1121.386597 974.788452,1138.674561 
	C979.422546,1138.674561 983.957153,1138.674561 988.693848,1138.674561 
	C988.693848,1131.707886 988.693848,1125.103882 988.703735,1117.500000 
M644.348511,107.370224 
	C644.348511,114.723953 644.348511,122.077675 644.348511,130.003784 
	C650.697449,130.003784 656.490601,130.243698 662.237793,129.836334 
	C663.687805,129.733551 666.083984,127.637810 666.175293,126.327568 
	C666.598145,120.261742 666.362122,114.149979 666.362122,107.161697 
	C658.747314,107.161697 651.969971,107.161697 644.348511,107.370224 
M976.246155,1064.445557 
	C975.595947,1069.033081 974.945740,1073.620605 974.256958,1078.480103 
	C976.749146,1078.660034 978.041260,1078.805176 979.336243,1078.838867 
	C991.471069,1079.155518 988.758606,1079.356689 988.882507,1069.158691 
	C988.898254,1067.858887 988.712097,1066.556641 988.560059,1064.421265 
	C984.665649,1064.421265 980.887024,1064.421265 976.246155,1064.445557 
z"/>
<path fill="#AEBFD1" opacity="1.000000" stroke="none" 
	d="
M225.227554,449.065247 
	C244.725662,449.043335 264.224731,448.913971 283.721130,449.085358 
	C287.889404,449.122009 289.094910,447.828979 289.080444,443.696716 
	C288.944550,404.867004 289.104126,366.036072 288.876190,327.207245 
	C288.845612,321.994934 290.416412,320.579102 295.380768,320.901031 
	C301.687073,321.309998 308.039978,320.996338 314.372803,321.001038 
	C320.987976,321.005920 320.997864,321.009399 320.998413,327.453461 
	C321.001678,365.783661 320.998505,404.113861 321.001434,442.444061 
	C321.001923,448.988983 321.010590,448.998322 327.524933,448.998566 
	C387.186737,449.001038 446.848541,449.001068 506.510345,448.998474 
	C512.990051,448.998169 512.998169,448.988403 512.998657,442.408783 
	C513.001404,404.078583 513.082703,365.747986 512.896729,327.418671 
	C512.873169,322.555603 513.851196,320.498871 519.171082,320.884583 
	C525.802368,321.365387 532.508362,321.256958 539.156494,320.911072 
	C543.698730,320.674713 545.124939,322.056183 545.102783,326.742462 
	C544.920654,365.238464 544.998962,403.735687 545.000977,442.232544 
	C545.001343,448.993164 545.007324,448.998901 551.813354,448.999084 
	C611.308533,449.000641 670.803650,449.000793 730.298828,448.998901 
	C736.993774,448.998688 736.998840,448.991669 736.999207,442.120209 
	C737.000916,403.790009 737.076904,365.459442 736.901001,327.130066 
	C736.879395,322.431274 737.977417,320.591858 742.957703,320.896149 
	C749.765076,321.312103 756.629639,321.253357 763.445068,320.909546 
	C767.858215,320.686890 769.113525,322.109955 769.094360,326.530975 
	C768.929932,364.527161 768.999878,402.524384 769.000000,440.521271 
	C769.000000,441.687836 769.136047,442.873352 768.976135,444.017548 
	C768.409424,448.073334 770.257141,449.074799 774.102234,449.068542 
	C834.597107,448.970215 895.092346,448.949860 955.587036,449.098999 
	C960.174683,449.110321 961.098511,447.548737 961.083130,443.331238 
	C960.941833,404.668243 961.090820,366.004028 960.888489,327.341583 
	C960.862366,322.349762 962.056946,320.540558 967.247375,320.888275 
	C974.049622,321.343994 980.915466,321.223297 987.734558,320.918152 
	C991.939453,320.729950 993.093689,322.209045 993.079468,326.319427 
	C992.945190,364.982483 992.998779,403.646179 993.001221,442.309692 
	C993.001587,448.993774 993.008423,448.998962 999.890503,448.999054 
	C1018.555481,448.999298 1037.220459,448.994751 1056.414551,449.453735 
	C1056.895996,460.281158 1056.848267,470.647003 1056.346191,481.013184 
	C1036.901611,481.009033 1017.910278,481.119263 998.922363,480.913971 
	C994.540161,480.866577 992.865540,481.823181 992.889648,486.655151 
	C993.093140,527.466064 993.019897,568.278442 993.025757,609.553345 
	C993.008179,631.027283 992.994629,652.038269 992.981079,673.049255 
	C992.981079,673.049255 992.983215,672.983887 992.544189,672.976257 
	C981.762329,673.013000 971.419617,673.057434 961.052979,672.626953 
	C961.019409,610.509583 960.965698,548.867126 961.089539,487.224915 
	C961.098694,482.663025 960.231567,480.872253 955.146606,480.887115 
	C895.003967,481.062958 834.860474,481.053436 774.717712,480.897308 
	C769.994324,480.885010 768.904602,482.381714 768.912476,486.860657 
	C769.037170,557.666077 769.045288,628.471924 768.898499,699.277283 
	C768.888733,703.991089 770.367798,705.098328 774.855652,705.088501 
	C836.831116,704.952881 898.806946,704.990967 960.846130,705.452026 
	C960.929871,716.288086 960.950195,726.658630 960.986328,737.013611 
	C961.002197,736.997986 961.033508,736.966431 960.562744,736.976624 
	C949.757751,737.001099 939.423523,737.015381 928.614990,737.022949 
	C876.878357,737.010864 825.615845,737.045166 774.353760,736.924316 
	C770.303467,736.914795 768.890320,737.977905 768.914307,742.215637 
	C769.085266,772.506104 769.019897,802.797852 769.025330,833.551880 
	C769.023254,844.353638 769.025513,854.692627 768.557495,865.019897 
	C757.721802,864.937622 747.356445,864.867126 736.991699,864.340698 
	C736.994934,823.718750 736.914795,783.552307 737.106506,743.387085 
	C737.130066,738.470093 736.033203,736.861206 730.804077,736.877930 
	C670.972229,737.069885 611.139404,737.062256 551.307434,736.887451 
	C546.260620,736.872681 544.858093,738.174561 544.882019,743.275391 
	C545.072144,783.773499 544.956421,824.273071 544.481140,864.853027 
	C533.672119,864.970398 523.316467,865.006836 512.979614,864.572021 
	C512.968567,853.762939 512.938721,843.425110 512.937256,832.614014 
	C512.976929,802.351257 512.893066,772.561218 513.099548,742.773132 
	C513.131531,738.155884 511.781250,736.891602 507.204895,736.905273 
	C455.780975,737.059143 404.356506,737.007629 352.468811,736.989380 
	C341.660004,736.988953 331.314545,737.010498 321.007446,736.562622 
	C321.119507,725.768738 321.193298,715.444214 321.717834,705.087280 
	C383.472717,705.036560 444.776825,705.018738 506.080902,704.999512 
	C512.990784,704.997314 512.998657,704.993835 512.998840,698.342834 
	C513.000793,628.042725 513.000916,557.742554 512.998352,487.442444 
	C512.998108,481.009735 512.987549,481.001556 506.365936,481.001312 
	C447.227203,480.999115 388.088440,480.991974 328.949707,481.008698 
	C320.089203,481.011230 321.016479,480.134186 321.009186,489.125366 
	C320.959290,550.429138 320.935455,611.732849 320.443695,673.004395 
	C309.662384,672.989685 299.340576,673.007324 289.016785,672.554688 
	C288.978882,651.085327 288.942963,630.086121 288.935791,608.613647 
	C288.975830,567.509094 288.931549,526.877625 289.081879,486.246857 
	C289.097412,482.046265 287.764282,480.884918 283.670776,480.919067 
	C264.189606,481.081512 244.706039,480.957947 225.145111,480.477539 
	C225.120438,469.701019 225.173996,459.383148 225.227554,449.065247 
M545.000000,567.500000 
	C545.000122,611.482544 545.059448,655.465332 544.908325,699.447388 
	C544.893250,703.831787 546.102661,705.102539 550.526001,705.092468 
	C610.835022,704.954712 671.144653,704.955750 731.453674,705.090942 
	C735.846680,705.100769 737.099426,703.881165 737.091370,699.467651 
	C736.961609,628.496094 736.962463,557.524231 737.089905,486.552643 
	C737.097778,482.169373 735.897644,480.897583 731.474182,480.907654 
	C671.165100,481.045410 610.855530,481.044373 550.546448,480.909149 
	C546.153625,480.899323 544.872314,482.114990 544.904297,486.532501 
	C545.097168,513.187134 545.000061,539.843933 545.000000,567.500000 
z"/>
<path fill="#4F6781" opacity="1.000000" stroke="none" 
	d="
M1088.826294,960.919434 
	C1088.826294,971.386230 1088.826294,981.853027 1088.826294,992.658386 
	C779.582214,992.658386 470.556152,992.658386 161.265472,992.658386 
	C161.265472,768.876953 161.265472,545.298401 161.265472,321.045593 
	C171.601639,321.045593 181.863876,321.045593 192.580109,321.565430 
	C193.019989,384.357910 193.003738,446.630493 193.006104,508.903107 
	C193.006149,510.225861 193.220474,511.548645 193.229477,513.140076 
	C193.138611,513.599792 193.153107,513.790833 193.102783,514.447632 
	C193.025253,564.959351 193.001129,615.005371 193.007492,665.051331 
	C193.009186,678.349854 193.104553,691.648315 193.101257,705.416382 
	C193.082687,716.274841 193.119736,726.663757 193.096130,737.514526 
	C193.023514,770.392761 192.990372,802.809204 193.005630,835.225647 
	C193.020340,866.476685 193.085037,897.727783 193.098083,929.446289 
	C193.042160,937.901550 193.005035,945.889404 192.992874,953.877197 
	C192.982025,961.004150 192.994202,961.009399 199.929398,961.009521 
	C291.629761,961.010620 383.330139,961.011108 475.030518,961.004395 
	C477.026459,961.004272 479.022430,960.917297 481.485596,960.922119 
	C492.284729,960.929932 502.616638,960.886414 513.417908,960.898621 
	C524.275574,960.917297 534.663940,960.880249 545.514099,960.903809 
	C596.470520,960.976318 646.965027,960.999329 697.459595,960.992371 
	C710.622070,960.990540 723.784607,960.895264 737.416626,960.898621 
	C748.274719,960.917053 758.663269,960.879883 769.513489,960.903564 
	C780.339233,960.898499 790.703308,960.832520 801.528687,960.824219 
	C819.645447,960.920593 837.300964,960.994385 854.956543,960.991699 
	C932.913147,960.979614 1010.869690,960.945496 1088.826294,960.919434 
z"/>
<path fill="#E53B44" opacity="1.000000" stroke="none" 
	d="
M1088.871094,960.594604 
	C1010.869690,960.945496 932.913147,960.979614 854.956543,960.991699 
	C837.300964,960.994385 819.645447,960.920593 801.524719,960.530823 
	C801.094666,959.789490 801.129761,959.399353 801.397705,958.667847 
	C801.752075,951.178284 801.916504,944.030396 801.982727,936.881592 
	C802.046509,930.005249 802.001892,929.997192 808.699951,929.997070 
	C899.496033,929.995361 990.292175,929.995544 1081.088257,929.996765 
	C1087.998657,929.996887 1087.893188,930.004517 1088.034058,937.169922 
	C1088.177124,944.437805 1088.557617,951.700928 1088.834229,958.966125 
	C1088.861572,959.400696 1088.888794,959.835266 1088.871094,960.594604 
z"/>
<path fill="#AEBFD1" opacity="1.000000" stroke="none" 
	d="
M993.177124,737.198364 
	C993.118103,742.020142 993.009888,746.841919 993.007446,751.663696 
	C992.977478,810.386475 992.963074,869.109253 992.463806,928.354126 
	C981.694275,928.831238 971.405640,928.786194 961.077148,928.292480 
	C961.015625,885.532593 960.993896,843.221375 960.975342,800.447144 
	C960.996826,778.978210 961.015137,757.972351 961.033508,736.966431 
	C961.033508,736.966431 961.002197,736.997986 961.456909,737.018188 
	C972.238770,736.989929 982.565857,736.941528 992.964905,736.968628 
	C993.036804,737.044128 993.177124,737.198364 993.177124,737.198364 
z"/>
<path fill="#0783CF" opacity="1.000000" stroke="none" 
	d="
M1056.800659,481.012817 
	C1056.848267,470.647003 1056.895996,460.281158 1056.870605,449.453003 
	C1056.864258,428.343628 1056.956177,407.696686 1056.990479,387.049652 
	C1057.023682,367.064392 1056.997559,347.079071 1056.997559,327.093781 
	C1056.997559,325.292328 1056.997681,323.490875 1056.997681,321.344879 
	C1067.647339,321.344879 1077.894897,321.344879 1088.573975,321.344879 
	C1088.573975,384.914154 1088.573975,448.583527 1088.573975,512.993469 
	C1078.408813,512.993469 1068.155396,512.993469 1057.451050,512.996460 
	C1057.000000,512.999390 1057.039917,513.039856 1057.023560,512.568848 
	C1056.938354,501.736206 1056.869507,491.374512 1056.800659,481.012817 
z"/>
<path fill="#E23C45" opacity="1.000000" stroke="none" 
	d="
M193.334839,512.871399 
	C193.220474,511.548645 193.006149,510.225861 193.006104,508.903107 
	C193.003738,446.630493 193.019989,384.357910 193.048981,321.628662 
	C203.503098,321.172028 213.942337,321.172028 225.053177,321.172028 
	C225.053177,363.706665 225.053177,405.914948 225.140366,448.594238 
	C225.173996,459.383148 225.120438,469.701019 225.059052,480.948364 
	C225.030106,492.267242 225.008987,502.656677 224.523407,513.015076 
	C213.817566,512.946472 203.576202,512.908936 193.334839,512.871399 
z"/>
<path fill="#3A3A3B" opacity="1.000000" stroke="none" 
	d="
M381.505127,118.407318 
	C383.547882,110.453842 383.547974,110.460068 391.341675,110.337585 
	C393.338837,110.306206 395.334778,110.198708 397.331940,110.168564 
	C399.316986,110.138603 401.302856,110.162010 404.092560,110.162010 
	C412.541840,148.040863 421.027893,186.084457 429.592072,224.478271 
	C422.252563,226.906860 415.386963,225.704636 408.616791,224.360138 
	C407.560760,224.150436 406.565308,221.953415 406.147888,220.501175 
	C404.313141,214.117844 402.561493,207.702972 401.058472,201.234772 
	C400.112061,197.161743 397.236389,197.409195 394.165070,197.349838 
	C391.000336,197.288681 388.781067,197.973801 388.103302,201.604965 
	C386.945465,207.808319 385.414307,213.941040 384.164459,220.128571 
	C383.433380,223.747864 381.764709,225.424118 377.718842,225.169846 
	C371.613983,224.786179 365.467163,225.069794 358.776184,225.069794 
	C364.271545,188.717209 371.645508,153.507370 381.505127,118.407318 
M397.765747,156.794495 
	C397.392822,154.673355 397.115784,152.529495 396.619720,150.437561 
	C396.130981,148.376434 395.420349,146.367950 394.807068,144.336380 
	C394.244476,144.359558 393.681854,144.382736 393.119232,144.405914 
	C391.558044,155.436005 389.996857,166.466080 388.389496,177.822556 
	C392.698944,177.822556 396.373474,177.822556 400.426361,177.822556 
	C399.542450,170.796936 398.716156,164.229248 397.765747,156.794495 
z"/>
<path fill="#3A3A3A" opacity="1.000000" stroke="none" 
	d="
M713.914673,226.822296 
	C708.620300,226.576660 703.793457,226.412827 698.979248,226.071106 
	C689.965576,225.431305 680.123840,218.126022 678.342285,208.970276 
	C674.827332,190.906235 674.662781,172.653366 678.097534,154.459915 
	C679.266602,148.267487 683.445312,144.827438 688.969421,143.279190 
	C700.703491,139.990479 712.684143,139.812271 724.495605,142.727859 
	C733.508484,144.952637 739.203979,150.576355 740.246765,160.382004 
	C742.107361,177.877991 741.636353,195.297516 738.780945,212.621536 
	C737.427979,220.830368 731.381287,224.453415 723.812866,225.877335 
	C720.721313,226.458969 717.532532,226.523865 713.914673,226.822296 
M697.492859,195.642212 
	C698.400269,201.160858 702.352295,202.877609 707.208618,203.096390 
	C711.947205,203.309845 717.412415,203.336075 718.977295,197.868286 
	C721.458618,189.197739 722.507080,180.164368 718.900696,171.429840 
	C716.962830,166.736282 712.068542,164.882965 706.219482,166.043610 
	C701.344055,167.011063 698.382019,170.290237 698.115173,175.350693 
	C697.773193,181.835373 697.601135,188.328995 697.492859,195.642212 
z"/>
<path fill="#3A3A3B" opacity="1.000000" stroke="none" 
	d="
M868.104919,140.944626 
	C882.503052,143.084976 890.056763,153.166916 888.711365,168.696991 
	C881.401367,168.696991 874.022156,168.696991 866.344849,168.696991 
	C865.963318,163.127594 862.773376,160.076736 857.844971,158.779831 
	C853.655212,157.677307 850.213318,159.068848 848.069885,162.826797 
	C845.991089,166.471191 847.355469,169.907928 850.249939,172.185547 
	C852.487793,173.946533 855.478760,174.951813 858.290527,175.733719 
	C862.286499,176.844910 866.430603,177.416840 870.501770,178.265335 
	C880.469421,180.342728 886.360352,186.571991 887.756226,196.496231 
	C889.126648,206.239517 886.945435,215.049789 878.788452,221.568207 
	C868.394287,229.874359 838.514343,230.912659 826.626465,217.606628 
	C822.117859,212.560226 819.624451,206.779724 820.103699,199.418732 
	C827.931335,199.418732 835.676208,199.418732 843.709473,199.418732 
	C845.723022,205.292099 850.221436,208.138962 856.544006,207.943359 
	C860.028687,207.835571 863.295959,206.765793 864.025330,202.713974 
	C864.770752,198.573318 864.614258,194.437073 859.863281,192.676056 
	C856.145264,191.297913 852.202393,190.536819 848.387268,189.407455 
	C844.407349,188.229340 840.343506,187.222458 836.522156,185.642792 
	C825.860718,181.235580 820.416199,171.698029 821.863403,160.525635 
	C823.213989,150.098099 830.882935,142.269974 842.278748,141.173904 
	C850.673950,140.366486 859.202393,140.945099 868.104919,140.944626 
z"/>
<path fill="#3A3A3B" opacity="1.000000" stroke="none" 
	d="
M563.541138,147.424759 
	C565.855713,151.156570 568.903381,154.443359 569.699341,158.206436 
	C571.018005,164.440735 570.887024,170.981674 571.446472,178.457901 
	C564.429443,177.978317 558.337708,177.718613 552.299316,177.006989 
	C551.193481,176.876663 549.938110,175.065613 549.377747,173.761429 
	C546.813171,167.792206 542.663391,165.155853 536.954285,166.184418 
	C531.049377,167.248230 528.318115,170.697601 528.025818,177.468307 
	C527.795776,182.795593 527.454346,188.121292 527.373352,193.450912 
	C527.278625,199.691589 529.722229,202.409836 536.065247,203.557800 
	C542.613220,204.742828 547.036743,202.538162 548.941772,197.135101 
	C549.379578,195.893219 549.801819,194.645813 550.350098,193.056137 
	C555.930908,193.056137 561.421936,193.115372 566.910767,193.032501 
	C569.899597,192.987381 571.131897,194.031067 570.632874,197.212387 
	C569.936890,201.649506 569.692383,206.155502 569.083984,210.608704 
	C567.887634,219.364609 563.707886,224.833450 555.103760,225.734604 
	C545.589355,226.731079 535.744507,227.024033 526.315125,225.695831 
	C516.797913,224.355255 509.956696,217.772949 508.061249,208.067963 
	C504.816040,191.451736 505.147125,174.619110 507.233704,157.865356 
	C508.309967,149.223618 513.571838,144.388916 522.146057,142.758347 
	C533.090271,140.677094 544.001404,140.443115 554.823364,143.077942 
	C557.794250,143.801270 560.457825,145.787201 563.541138,147.424759 
z"/>
<path fill="#3A3A3B" opacity="1.000000" stroke="none" 
	d="
M496.656219,220.614441 
	C496.049377,222.235733 495.486572,224.389801 494.840179,224.415192 
	C488.415833,224.667480 481.977692,224.568085 475.210052,224.568085 
	C475.093018,222.304245 474.966003,219.846786 474.793457,216.508911 
	C472.946564,217.521378 471.421753,218.241150 470.017273,219.147415 
	C464.071136,222.984238 457.587952,224.531708 450.546967,224.027710 
	C440.434265,223.303833 435.542877,218.969864 434.992706,208.918381 
	C434.374908,197.629959 434.377991,186.304062 434.257416,174.992920 
	C434.147644,164.695221 434.234161,154.395432 434.234161,143.517517 
	C441.541199,143.517517 448.075500,143.517517 455.160370,143.517517 
	C455.160370,151.731674 454.942596,160.020752 455.224915,168.292770 
	C455.479797,175.760437 455.930206,183.258118 456.954651,190.651093 
	C457.761505,196.473526 460.171478,198.059021 465.700928,198.098114 
	C470.919891,198.135010 474.557983,195.769562 475.263000,190.553406 
	C476.037262,184.825287 475.872192,178.955978 475.915497,173.146667 
	C475.979889,164.505524 475.948578,155.861572 475.787811,147.221970 
	C475.730499,144.142731 477.264465,143.032135 479.962860,143.003540 
	C485.266937,142.947296 490.572021,142.986984 496.661469,142.986984 
	C496.661469,168.928131 496.661469,194.543732 496.656219,220.614441 
z"/>
<path fill="#3A3A3A" opacity="1.000000" stroke="none" 
	d="
M788.815063,144.657074 
	C790.886169,144.402557 792.540344,144.109985 794.194946,144.107376 
	C806.635742,144.087723 812.455872,149.200089 812.851318,161.536423 
	C813.278076,174.846771 812.998718,188.179916 813.017456,201.503128 
	C813.028198,209.128006 813.019409,216.752914 813.019409,224.863800 
	C806.063293,224.863800 799.647644,224.863800 792.147156,224.863800 
	C792.147156,222.101196 792.212891,219.188828 792.135742,216.280228 
	C791.813721,204.137909 791.731384,191.979553 790.995667,179.861420 
	C790.539917,172.355209 787.432434,169.782684 781.127380,170.074677 
	C775.483948,170.336060 771.860168,174.166901 771.776062,180.870865 
	C771.617249,193.523544 771.596985,206.187241 771.973145,218.832855 
	C772.127258,224.011887 769.862061,225.606415 765.296509,225.564545 
	C760.808960,225.523376 756.320679,225.555557 751.283203,225.555557 
	C751.283203,198.260910 751.283203,171.382828 751.283203,144.223495 
	C757.994568,143.792740 764.708374,143.361816 771.946045,142.897278 
	C772.309998,145.659042 772.645813,148.207733 773.000671,150.900375 
	C778.180176,148.832611 783.289185,146.792953 788.815063,144.657074 
z"/>
<path fill="#3A3A3A" opacity="1.000000" stroke="none" 
	d="
M609.724670,167.013336 
	C609.750977,175.681412 610.039368,183.856125 609.712280,192.006165 
	C609.521667,196.756882 611.593079,199.325577 615.796936,200.274750 
	C621.914001,201.655884 628.113464,202.672226 635.223999,204.023987 
	C635.223999,210.376297 635.223999,217.506104 635.223999,224.839050 
	C622.803711,225.274963 611.025818,225.242050 599.957397,220.035721 
	C594.019775,217.242844 589.923340,213.012390 589.548584,206.032867 
	C588.924255,194.403763 588.258972,182.776840 587.654785,171.146729 
	C587.543091,168.996140 587.638794,166.834778 587.638794,164.175934 
	C583.765625,164.175934 580.205078,164.175934 576.282593,164.175934 
	C576.282593,157.303329 576.282593,150.932938 576.282593,144.107971 
	C580.166565,144.107971 583.752014,144.107971 587.781128,144.107971 
	C587.781128,133.576004 587.781128,123.483902 587.781128,113.084747 
	C594.958557,113.084747 601.676758,113.084747 609.080933,113.084747 
	C609.080933,123.567726 609.080933,133.617828 609.080933,144.285355 
	C616.569763,143.865204 623.358521,143.653763 630.110535,143.038727 
	C633.854187,142.697739 635.309326,144.019791 635.224670,147.684052 
	C635.109497,152.670563 635.195984,157.661728 635.195984,163.374451 
	C627.778259,163.374451 620.854919,163.385468 613.931580,163.368057 
	C611.716309,163.362488 609.347168,163.075134 609.724670,167.013336 
z"/>
<path fill="#0783CF" opacity="1.000000" stroke="none" 
	d="
M1056.980225,512.978882 
	C1056.960449,544.727539 1056.960449,576.496704 1056.960449,608.993469 
	C1046.401489,608.993469 1036.151855,608.993469 1025.451050,608.996460 
	C1025.000000,608.999390 1025.039917,609.039856 1025.023560,608.568848 
	C1025.007202,576.538025 1025.007202,544.978149 1025.007202,513.039856 
	C1036.130249,513.039856 1046.585083,513.039856 1057.039917,513.039856 
	C1057.039917,513.039856 1057.000000,512.999390 1056.980225,512.978882 
z"/>
<path fill="#AEBFD1" opacity="1.000000" stroke="none" 
	d="
M993.220581,704.994629 
	C1023.158386,704.996399 1053.097046,705.109070 1083.033203,704.889343 
	C1087.942017,704.853394 1089.351807,706.349304 1089.096436,711.098206 
	C1088.722046,718.063538 1088.778809,725.073608 1089.083374,732.045776 
	C1089.262207,736.135925 1087.694580,737.081848 1083.887207,737.068909 
	C1053.950439,736.966919 1024.012817,737.045776 993.626343,737.133667 
	C993.177124,737.198364 993.036804,737.044128 993.012695,736.509766 
	C993.065979,725.648499 993.143250,715.321594 993.220581,704.994629 
z"/>
<path fill="#3B3B3C" opacity="1.000000" stroke="none" 
	d="
M783.747681,1134.871826 
	C781.692261,1136.320923 779.907288,1138.387329 778.026550,1138.478760 
	C770.237854,1138.856689 762.420166,1138.637207 753.676880,1138.637207 
	C753.195068,1132.738281 752.361755,1126.714355 752.275818,1120.679810 
	C752.041260,1104.218384 752.185425,1087.751831 752.019653,1071.288818 
	C751.990112,1068.351440 752.842896,1066.981079 755.863708,1066.942383 
	C762.668579,1066.855469 769.498657,1066.198853 776.267700,1066.610352 
	C782.395386,1066.982910 786.518616,1071.180298 789.227234,1076.402954 
	C799.842224,1096.869995 798.216614,1116.316284 783.747681,1134.871826 
M776.665283,1115.435181 
	C782.569824,1109.777222 782.987366,1102.998779 780.594238,1095.713623 
	C778.398804,1089.029785 773.913818,1087.094971 766.983398,1089.781250 
	C766.983398,1097.547852 767.063171,1105.346436 766.940979,1113.141968 
	C766.896973,1115.946045 767.987000,1117.229126 770.723999,1116.910278 
	C772.507690,1116.702637 774.261230,1116.235107 776.665283,1115.435181 
z"/>
<path fill="#3B3B3C" opacity="1.000000" stroke="none" 
	d="
M276.073059,1104.149048 
	C270.119232,1106.378174 264.471588,1108.413086 258.048157,1110.727539 
	C258.048157,1117.782837 258.048157,1126.205078 258.048157,1134.686279 
	C257.094360,1134.914307 256.477081,1135.091431 255.848526,1135.207764 
	C241.276825,1137.903198 240.234070,1137.114380 240.187943,1122.620117 
	C240.126495,1103.311035 240.172775,1084.001587 240.172775,1064.281128 
	C251.440155,1061.072876 262.705780,1060.998047 273.512451,1066.081909 
	C287.467407,1072.646973 291.592712,1091.973511 276.073059,1104.149048 
M271.020447,1087.366577 
	C270.043457,1080.074463 263.475281,1076.536011 254.832733,1079.097290 
	C255.069595,1083.945557 255.312332,1088.914062 255.572418,1094.237549 
	C261.947693,1093.367676 268.231262,1095.270020 271.020447,1087.366577 
z"/>
<path fill="#0783CF" opacity="1.000000" stroke="none" 
	d="
M993.450684,673.032471 
	C992.994629,652.038269 993.008179,631.027283 993.490967,609.522278 
	C1004.320129,609.032104 1014.679993,609.036011 1025.039917,609.039856 
	C1025.039917,609.039856 1025.000000,608.999390 1024.980225,608.978882 
	C1024.960449,630.061157 1024.960449,651.164001 1024.960449,673.015686 
	C1014.406860,673.015686 1004.163574,673.015686 993.450684,673.032471 
z"/>
<path fill="#3B3B3C" opacity="1.000000" stroke="none" 
	d="
M395.082306,1125.756836 
	C391.994232,1116.017578 391.296143,1106.457153 393.211517,1096.821533 
	C395.056427,1087.540649 398.810547,1084.414673 408.299408,1084.206909 
	C412.071930,1084.124390 415.860962,1084.795044 420.414734,1085.189941 
	C420.414734,1078.156616 420.414734,1070.774292 420.414734,1063.136719 
	C425.171967,1063.136719 429.128876,1063.136719 433.846466,1063.136719 
	C433.846466,1087.318115 433.846466,1111.348389 433.846466,1135.403076 
	C424.181213,1137.369019 420.742004,1136.476074 419.701538,1131.102783 
	C416.153992,1136.060791 411.581512,1136.336060 406.368896,1135.162598 
	C401.024139,1133.959351 397.553314,1130.830688 395.082306,1125.756836 
M404.205597,1111.983765 
	C404.946198,1114.169800 405.078125,1117.021973 406.570312,1118.385376 
	C408.796570,1120.419556 411.916290,1122.395386 414.775543,1122.584229 
	C418.345856,1122.820068 419.944641,1119.480957 420.191559,1116.028076 
	C420.486389,1111.905762 420.808228,1107.770630 420.772278,1103.644043 
	C420.743774,1100.374390 420.849823,1096.739868 416.192291,1096.100952 
	C411.510468,1095.458740 406.569916,1097.549561 405.440704,1101.376953 
	C404.522797,1104.488281 404.520508,1107.869629 404.205597,1111.983765 
z"/>
<path fill="#3B3B3C" opacity="1.000000" stroke="none" 
	d="
M505.941895,1101.930176 
	C507.273529,1108.176636 508.550262,1114.000244 509.826996,1119.823730 
	C510.327179,1119.846069 510.827393,1119.868408 511.327576,1119.890747 
	C512.197754,1114.372559 513.076294,1108.855591 513.935608,1103.335693 
	C514.703430,1098.403442 515.428101,1093.464355 516.214233,1088.535156 
	C516.688904,1085.558472 518.028870,1083.831787 521.510986,1084.154175 
	C524.943604,1084.471924 528.428589,1084.223511 532.487549,1084.223511 
	C530.127258,1094.528442 527.976685,1104.219238 525.671326,1113.873291 
	C524.204773,1120.014648 522.880188,1126.228271 520.843933,1132.188232 
	C515.232056,1148.613770 504.135895,1155.524536 485.962219,1153.849243 
	C485.962219,1149.609497 485.962219,1145.300415 485.962219,1140.754517 
	C487.412140,1140.754517 488.551819,1140.749634 489.691437,1140.755249 
	C498.886322,1140.801514 500.571838,1138.940308 498.624573,1130.145264 
	C496.360748,1119.920288 493.855560,1109.748047 491.388092,1099.569214 
	C490.188812,1094.622070 488.836853,1089.711792 487.506226,1084.601562 
	C492.855316,1084.601562 497.613007,1084.601562 502.566162,1084.601562 
	C503.714386,1090.447144 504.800659,1095.977295 505.941895,1101.930176 
z"/>
<path fill="#3A3A3A" opacity="1.000000" stroke="none" 
	d="
M643.635498,153.401276 
	C643.899475,149.499176 644.144653,146.061142 644.380066,142.760010 
	C651.921875,142.760010 658.992004,142.760010 666.580383,142.760010 
	C666.580383,145.232880 666.588623,147.181427 666.579102,149.129868 
	C666.462769,172.903687 666.280457,196.677567 666.302979,220.451248 
	C666.305969,223.567001 665.742188,225.135300 662.324829,225.062592 
	C656.209167,224.932495 650.088623,225.025925 643.616638,225.025925 
	C643.616638,200.960388 643.616638,177.412872 643.635498,153.401276 
z"/>
<path fill="#3B3B3C" opacity="1.000000" stroke="none" 
	d="
M446.149139,1130.839600 
	C440.160950,1120.975586 438.562714,1110.670654 441.109222,1099.870483 
	C443.479980,1089.815552 450.739441,1084.019775 459.852570,1084.759766 
	C462.491669,1084.973999 465.043640,1086.261353 466.438629,1086.689453 
	C468.661926,1085.569824 470.237671,1084.119507 471.861786,1084.063110 
	C483.694153,1083.652588 483.763947,1083.741455 483.749786,1095.398682 
	C483.735474,1107.201904 483.585266,1119.004883 483.455078,1130.807617 
	C483.437225,1132.426636 483.191101,1134.042847 482.977478,1136.503052 
	C477.859833,1134.026367 471.292725,1139.627686 467.399994,1131.902222 
	C460.654541,1135.370483 453.250305,1139.910400 446.149139,1130.839600 
M468.121704,1102.816650 
	C468.213318,1099.527222 466.270752,1098.467163 463.366364,1098.540283 
	C458.708649,1098.657227 454.895569,1100.107422 453.355957,1105.046143 
	C451.579132,1110.745850 453.480743,1118.050293 457.375427,1120.454956 
	C462.488373,1123.611938 467.621674,1121.158569 468.032104,1115.198364 
	C468.293640,1111.400391 468.135162,1107.573608 468.121704,1102.816650 
z"/>
<path fill="#3B3B3C" opacity="1.000000" stroke="none" 
	d="
M913.636353,1087.009766 
	C927.713928,1087.067749 927.735779,1087.067749 927.767944,1100.599976 
	C927.797852,1113.201050 927.774353,1125.802002 927.774353,1138.195557 
	C917.397034,1140.420898 913.263611,1139.442871 911.862122,1134.681885 
	C911.267456,1134.923950 910.654541,1135.094360 910.120911,1135.402222 
	C898.242126,1142.257324 890.848511,1139.557617 886.476685,1126.485962 
	C883.514587,1117.629517 882.604187,1108.581421 886.201904,1099.667358 
	C888.917297,1092.939331 893.483887,1087.956543 901.269836,1087.798950 
	C904.682373,1087.729858 908.120605,1088.932007 911.886780,1089.618896 
	C911.995972,1089.406738 912.599609,1088.234619 913.636353,1087.009766 
M897.084717,1109.143433 
	C897.654663,1112.999146 897.638550,1117.070801 898.957275,1120.650635 
	C900.311951,1124.327881 904.001648,1125.269287 907.762146,1124.450195 
	C911.419006,1123.653809 912.035889,1120.676270 912.111450,1117.522827 
	C912.182983,1114.533203 912.222412,1111.541016 912.185547,1108.551025 
	C912.102966,1101.845703 909.465088,1099.718994 903.213867,1102.247925 
	C900.800964,1103.224121 899.212341,1106.237915 897.084717,1109.143433 
z"/>
<path fill="#3A3A3B" opacity="1.000000" stroke="none" 
	d="
M1016.066772,1139.992310 
	C1001.849731,1139.608765 996.203003,1134.201782 995.809387,1120.573364 
	C995.598572,1113.274048 995.529480,1105.935547 996.040466,1098.660034 
	C996.600159,1090.690430 999.382812,1087.408081 1007.271362,1086.498047 
	C1013.444397,1085.785767 1019.882446,1086.101562 1026.052612,1086.996338 
	C1032.030151,1087.863281 1035.941528,1091.965210 1036.074463,1098.290771 
	C1036.276489,1107.898315 1036.388062,1117.538940 1035.814087,1127.122314 
	C1035.274902,1136.128784 1031.574707,1139.283325 1022.521912,1139.955444 
	C1020.537476,1140.102783 1018.533630,1139.987915 1016.066772,1139.992310 
M1009.510681,1108.245239 
	C1009.355042,1111.888428 1009.133057,1115.530273 1009.062500,1119.175171 
	C1008.992126,1122.809937 1011.050659,1124.711670 1014.510742,1124.965820 
	C1018.036621,1125.224854 1022.189819,1125.442261 1022.967468,1120.968262 
	C1023.746216,1116.487915 1023.663940,1111.764771 1023.282043,1107.204712 
	C1022.964111,1103.407715 1020.238647,1101.456543 1016.323914,1101.635986 
	C1012.620300,1101.805542 1009.885742,1103.204834 1009.510681,1108.245239 
z"/>
<path fill="#3B3B3C" opacity="1.000000" stroke="none" 
	d="
M289.766907,1100.747437 
	C290.092712,1085.608154 302.516418,1081.723145 314.241211,1083.056274 
	C326.919281,1084.497681 332.455231,1093.322754 330.443848,1109.638916 
	C321.633118,1109.638916 312.702637,1109.638916 303.916534,1109.638916 
	C302.230286,1117.443970 304.695862,1123.489624 309.690704,1124.800171 
	C313.961334,1125.920532 316.306976,1123.622681 318.048584,1116.344971 
	C322.000458,1116.344971 326.035889,1116.344971 330.823517,1116.344971 
	C330.142365,1121.284912 329.941956,1125.945312 328.767578,1130.346069 
	C327.613373,1134.671143 323.686981,1136.542236 319.554657,1136.849365 
	C314.259735,1137.243164 308.849426,1137.464233 303.603668,1136.821899 
	C295.468506,1135.825684 292.371063,1129.164429 291.065765,1122.424316 
	C289.728180,1115.517700 290.099640,1108.280029 289.766907,1100.747437 
M312.263702,1093.015259 
	C305.489777,1093.484497 303.467163,1095.590820 304.048370,1101.625244 
	C309.214722,1101.625244 314.380127,1101.625244 319.643585,1101.625244 
	C319.524445,1096.803955 317.261719,1094.168335 312.263702,1093.015259 
z"/>
<path fill="#3B3B3C" opacity="1.000000" stroke="none" 
	d="
M807.136963,1087.028809 
	C809.723145,1087.009644 811.857971,1087.009644 814.874756,1087.009644 
	C814.874756,1094.709473 814.823975,1101.995605 814.902893,1109.280273 
	C814.929871,1111.766602 815.166443,1114.265991 815.514893,1116.729980 
	C815.998718,1120.151489 817.860107,1122.131104 821.566162,1121.938965 
	C825.156494,1121.752808 827.154358,1119.702271 827.466797,1116.342285 
	C827.804382,1112.712280 827.690979,1109.035889 827.687500,1105.379639 
	C827.683105,1100.725342 827.649780,1096.069336 827.518555,1091.417114 
	C827.421692,1087.983154 828.981384,1086.663574 832.357910,1086.916260 
	C834.964905,1087.111084 837.598083,1086.955078 840.600464,1086.955078 
	C840.600464,1104.400879 840.600464,1121.293335 840.600464,1138.656006 
	C836.156494,1138.656006 831.921387,1138.656006 827.398560,1138.656006 
	C827.202759,1137.274170 826.999207,1135.837524 826.799316,1134.427002 
	C822.946106,1135.724976 819.168091,1137.792480 815.231079,1138.161011 
	C806.632935,1138.965454 801.629395,1136.531860 801.605957,1127.435913 
	C801.572021,1114.313354 801.597290,1101.190552 801.597290,1087.630981 
	C803.508667,1087.412109 805.097168,1087.230103 807.136963,1087.028809 
z"/>
<path fill="#3A3A3A" opacity="1.000000" stroke="none" 
	d="
M1046.102295,1139.129395 
	C1044.727173,1138.141479 1043.061157,1137.165771 1043.051025,1136.173096 
	C1042.888062,1120.211182 1042.936035,1104.247070 1042.936035,1087.961548 
	C1047.292480,1087.633667 1051.507568,1087.316406 1055.825439,1086.991455 
	C1056.176514,1088.738281 1056.464478,1090.171387 1056.873169,1092.205811 
	C1058.508667,1091.445679 1059.852417,1090.576904 1061.323120,1090.187134 
	C1064.642578,1089.307617 1068.018799,1088.082275 1071.382812,1088.047729 
	C1078.338867,1087.976196 1081.692627,1091.034546 1081.845825,1097.929810 
	C1082.144775,1111.378784 1081.933594,1124.838989 1081.933594,1138.731934 
	C1077.625244,1138.731934 1073.582886,1138.731934 1068.957275,1138.731934 
	C1068.957275,1132.923096 1069.063232,1127.141602 1068.919800,1121.366455 
	C1068.825073,1117.548706 1068.399170,1113.737793 1068.072510,1109.927979 
	C1067.748291,1106.148438 1065.720703,1104.148804 1061.854126,1104.401855 
	C1058.086426,1104.648193 1056.052612,1106.839722 1056.005005,1110.540894 
	C1055.921509,1117.029663 1056.239014,1123.526855 1056.045044,1130.010254 
	C1055.760010,1139.532104 1058.003174,1139.429321 1046.102295,1139.129395 
z"/>
<path fill="#3B3B3C" opacity="1.000000" stroke="none" 
	d="
M968.408020,1087.295410 
	C969.215759,1091.475952 969.605286,1095.494873 970.039551,1099.975586 
	C964.157532,1099.975586 959.227417,1099.975586 953.768982,1099.975586 
	C953.768982,1106.787720 953.579346,1113.212158 953.928528,1119.607178 
	C953.998535,1120.889404 955.917542,1122.723022 957.333313,1123.153442 
	C961.104980,1124.300049 965.067017,1124.820557 969.627319,1125.723389 
	C969.627319,1129.596191 969.627319,1133.970459 969.627319,1138.803833 
	C962.157837,1139.313477 954.788147,1139.059448 947.772583,1136.010620 
	C943.713989,1134.246826 941.048523,1131.388550 940.804199,1126.581543 
	C940.367615,1117.990112 939.695007,1109.410522 939.102905,1100.554810 
	C936.916748,1100.375244 934.814880,1100.202515 932.477539,1100.010498 
	C932.477539,1096.040161 932.477539,1092.166748 932.477539,1088.083984 
	C934.932007,1087.931152 937.045593,1087.799561 939.696167,1087.634644 
	C939.696167,1081.132446 939.696167,1074.751831 939.696167,1068.269531 
	C944.338318,1068.269531 948.427368,1068.269531 953.094543,1068.269531 
	C953.094543,1074.841675 953.094543,1081.080688 953.094543,1087.853027 
	C958.460876,1087.593994 963.225342,1087.363892 968.408020,1087.295410 
z"/>
<path fill="#3B3B3C" opacity="1.000000" stroke="none" 
	d="
M872.731934,1087.847168 
	C875.593079,1087.657349 878.026306,1087.509399 880.749268,1087.343872 
	C880.749268,1093.642700 880.749268,1099.384766 880.749268,1105.129395 
	C877.090332,1104.710693 873.529541,1104.044922 869.953613,1103.949707 
	C863.241821,1103.770996 861.381165,1105.834106 861.416565,1112.532959 
	C861.462097,1121.147461 861.427673,1129.762085 861.427673,1138.833740 
	C857.226624,1138.833740 852.980774,1138.833740 848.162415,1138.833740 
	C848.162415,1122.029541 848.162415,1105.047852 848.162415,1087.331787 
	C852.980774,1089.445068 858.671143,1084.001587 863.044128,1089.966309 
	C865.857666,1089.335205 869.080811,1088.612183 872.731934,1087.847168 
z"/>
<path fill="#3B3B3C" opacity="1.000000" stroke="none" 
	d="
M336.781403,1115.500000 
	C336.775635,1105.068115 336.775635,1095.105347 336.775635,1084.234375 
	C341.960907,1086.301147 347.552856,1081.255859 351.917908,1086.649292 
	C357.482300,1085.793091 363.449982,1084.875000 369.785919,1083.900024 
	C369.785919,1090.572144 369.785919,1096.177734 369.785919,1102.088257 
	C366.656708,1101.703613 363.625854,1101.137207 360.575104,1100.992920 
	C351.913727,1100.583618 350.285889,1102.384521 350.467804,1110.923218 
	C350.641022,1119.053467 350.505127,1127.190430 350.505127,1135.811768 
	C346.123260,1135.811768 341.750214,1135.811768 336.787170,1135.811768 
	C336.787170,1129.205322 336.787170,1122.587158 336.781403,1115.500000 
z"/>
<path fill="#0883CF" opacity="1.000000" stroke="none" 
	d="
M705.004150,1105.000000 
	C705.004150,1110.456055 705.004150,1115.413818 705.004150,1120.682617 
	C694.303406,1120.682617 684.060486,1120.682617 673.405273,1120.682617 
	C673.405273,1110.363525 673.405273,1100.002563 673.405273,1089.316895 
	C683.697327,1089.316895 693.940247,1089.316895 705.004150,1089.316895 
	C705.004150,1094.334351 705.004150,1099.418091 705.004150,1105.000000 
z"/>
<path fill="#E23C46" opacity="1.000000" stroke="none" 
	d="
M193.004730,1116.799316 
	C192.143158,1118.513794 191.310638,1120.802979 190.416885,1120.827026 
	C180.815659,1121.086670 171.204742,1120.988892 161.299896,1120.988892 
	C161.299896,1110.250732 161.299896,1100.013672 161.299896,1089.384399 
	C171.697754,1089.384399 182.052521,1089.384399 193.005356,1089.384399 
	C193.005356,1098.454346 193.005356,1107.388306 193.004730,1116.799316 
z"/>
<path fill="#3B3B3C" opacity="1.000000" stroke="none" 
	d="
M988.698792,1118.000000 
	C988.693848,1125.103882 988.693848,1131.707886 988.693848,1138.674561 
	C983.957153,1138.674561 979.422546,1138.674561 974.788452,1138.674561 
	C974.788452,1121.386597 974.788452,1104.339111 974.788452,1087.037109 
	C979.625366,1087.037109 984.032227,1087.037109 988.703735,1087.037109 
	C988.703735,1097.360962 988.703735,1107.430542 988.698792,1118.000000 
z"/>
<path fill="#3B3B3C" opacity="1.000000" stroke="none" 
	d="
M644.770508,107.265961 
	C651.969971,107.161697 658.747314,107.161697 666.362122,107.161697 
	C666.362122,114.149979 666.598145,120.261742 666.175293,126.327568 
	C666.083984,127.637810 663.687805,129.733551 662.237793,129.836334 
	C656.490601,130.243698 650.697449,130.003784 644.348511,130.003784 
	C644.348511,122.077675 644.348511,114.723953 644.770508,107.265961 
z"/>
<path fill="#C44953" opacity="1.000000" stroke="none" 
	d="
M961.116943,928.741150 
	C971.405640,928.786194 981.694275,928.831238 992.431396,928.804993 
	C1022.527527,928.807556 1052.175171,928.881653 1081.822754,928.954468 
	C1083.968750,928.959717 1086.114746,928.955200 1088.996338,928.955200 
	C1088.996338,938.874023 1088.996338,948.460144 1088.915283,958.506226 
	C1088.557617,951.700928 1088.177124,944.437805 1088.034058,937.169922 
	C1087.893188,930.004517 1087.998657,929.996887 1081.088257,929.996765 
	C990.292175,929.995544 899.496033,929.995361 808.699951,929.997070 
	C802.001892,929.997192 802.046509,930.005249 801.982727,936.881592 
	C801.916504,944.030396 801.752075,951.178284 801.317749,958.204590 
	C800.990051,948.377991 800.975281,938.673279 801.431885,928.961914 
	C851.984497,928.955017 902.065735,928.958374 952.147034,928.945312 
	C955.137024,928.944519 958.126953,928.812256 961.116943,928.741150 
z"/>
<path fill="#3B3B3C" opacity="1.000000" stroke="none" 
	d="
M976.677246,1064.433350 
	C980.887024,1064.421265 984.665649,1064.421265 988.560059,1064.421265 
	C988.712097,1066.556641 988.898254,1067.858887 988.882507,1069.158691 
	C988.758606,1079.356689 991.471069,1079.155518 979.336243,1078.838867 
	C978.041260,1078.805176 976.749146,1078.660034 974.256958,1078.480103 
	C974.945740,1073.620605 975.595947,1069.033081 976.677246,1064.433350 
z"/>
<path fill="#1B7EBB" opacity="1.000000" stroke="none" 
	d="
M993.147705,704.529297 
	C993.143250,715.321594 993.065979,725.648499 992.940796,736.434326 
	C982.565857,736.941528 972.238770,736.989929 961.441040,737.033813 
	C960.950195,726.658630 960.929871,716.288086 960.917847,704.986938 
	C960.976440,693.738159 961.026611,683.420044 961.076843,673.101868 
	C971.419617,673.057434 981.762329,673.013000 992.576782,672.977417 
	C993.057312,683.345398 993.066040,693.704712 993.147705,704.529297 
M962.424011,675.038147 
	C962.289185,694.321533 962.100464,713.605103 962.167664,732.887756 
	C962.171265,733.925537 964.292725,735.808838 965.479797,735.851013 
	C973.124329,736.122803 980.789612,736.146240 988.431030,735.834412 
	C989.661316,735.784180 991.824341,733.660706 991.838379,732.475159 
	C992.055603,714.174194 992.044678,695.869324 991.858215,677.567627 
	C991.846069,676.375977 989.997803,674.197632 988.974060,674.179932 
	C980.343384,674.030090 971.705872,674.277161 962.424011,675.038147 
z"/>
<path fill="#D5D8E1" opacity="1.000000" stroke="none" 
	d="
M545.000000,567.000000 
	C545.000061,539.843933 545.097168,513.187134 544.904297,486.532501 
	C544.872314,482.114990 546.153625,480.899323 550.546448,480.909149 
	C610.855530,481.044373 671.165100,481.045410 731.474182,480.907654 
	C735.897644,480.897583 737.097778,482.169373 737.089905,486.552643 
	C736.962463,557.524231 736.961609,628.496094 737.091370,699.467651 
	C737.099426,703.881165 735.846680,705.100769 731.453674,705.090942 
	C671.144653,704.955750 610.835022,704.954712 550.526001,705.092468 
	C546.102661,705.102539 544.893250,703.831787 544.908325,699.447388 
	C545.059448,655.465332 545.000122,611.482544 545.000000,567.000000 
z"/>
<path fill="#D5D8E1" opacity="1.000000" stroke="none" 
	d="
M320.903168,673.036621 
	C320.935455,611.732849 320.959290,550.429138 321.009186,489.125366 
	C321.016479,480.134186 320.089203,481.011230 328.949707,481.008698 
	C388.088440,480.991974 447.227203,480.999115 506.365936,481.001312 
	C512.987549,481.001556 512.998108,481.009735 512.998352,487.442444 
	C513.000916,557.742554 513.000793,628.042725 512.998840,698.342834 
	C512.998657,704.993835 512.990784,704.997314 506.080902,704.999512 
	C444.776825,705.018738 383.472717,705.036560 321.632812,704.609497 
	C321.032379,693.788330 320.967773,683.412476 320.903168,673.036621 
z"/>
<path fill="#D5D8E1" opacity="1.000000" stroke="none" 
	d="
M961.052979,672.626953 
	C961.026611,683.420044 960.976440,693.738159 960.854492,704.521423 
	C898.806946,704.990967 836.831116,704.952881 774.855652,705.088501 
	C770.367798,705.098328 768.888733,703.991089 768.898499,699.277283 
	C769.045288,628.471924 769.037170,557.666077 768.912476,486.860657 
	C768.904602,482.381714 769.994324,480.885010 774.717712,480.897308 
	C834.860474,481.053436 895.003967,481.062958 955.146606,480.887115 
	C960.231567,480.872253 961.098694,482.663025 961.089539,487.224915 
	C960.965698,548.867126 961.019409,610.509583 961.052979,672.626953 
z"/>
<path fill="#D5D8E1" opacity="1.000000" stroke="none" 
	d="
M544.934570,864.772156 
	C544.956421,824.273071 545.072144,783.773499 544.882019,743.275391 
	C544.858093,738.174561 546.260620,736.872681 551.307434,736.887451 
	C611.139404,737.062256 670.972229,737.069885 730.804077,736.877930 
	C736.033203,736.861206 737.130066,738.470093 737.106506,743.387085 
	C736.914795,783.552307 736.994934,823.718750 736.526917,864.417236 
	C732.743408,864.964905 729.425293,864.987549 726.107239,864.994324 
	C697.737854,865.052124 669.368469,865.107178 640.532227,865.118408 
	C632.427551,865.047180 624.789734,865.018250 617.151917,864.994385 
	C593.079468,864.919250 569.007019,864.846069 544.934570,864.772156 
z"/>
<path fill="#D4D8E2" opacity="1.000000" stroke="none" 
	d="
M769.029663,833.089233 
	C769.019897,802.797852 769.085266,772.506104 768.914307,742.215637 
	C768.890320,737.977905 770.303467,736.914795 774.353760,736.924316 
	C825.615845,737.045166 876.878357,737.010864 928.584045,737.488159 
	C929.003662,758.986389 928.980042,780.012512 928.977173,801.018738 
	C928.997925,800.998779 929.040466,800.959778 928.569397,800.974121 
	C907.200684,800.988403 886.303101,800.988403 864.959778,800.988403 
	C864.959778,812.136780 864.959778,822.588623 864.979248,833.019226 
	C864.998779,832.997986 865.038757,832.956360 864.567871,832.972046 
	C832.407898,833.021545 800.718811,833.055420 769.029663,833.089233 
z"/>
<path fill="#D6D8E1" opacity="1.000000" stroke="none" 
	d="
M352.932159,737.011292 
	C404.356506,737.007629 455.780975,737.059143 507.204895,736.905273 
	C511.781250,736.891602 513.131531,738.155884 513.099548,742.773132 
	C512.893066,772.561218 512.976929,802.351257 512.477966,832.590210 
	C480.313110,833.041077 448.635803,833.042358 416.975708,832.572388 
	C416.992981,821.856995 416.992981,811.612793 416.992981,800.990540 
	C395.159821,800.990540 374.057373,800.990540 352.989899,800.523560 
	C352.993958,779.041504 352.963074,758.026428 352.932159,737.011292 
z"/>
<path fill="#D4D8E2" opacity="1.000000" stroke="none" 
	d="
M1025.023560,608.568848 
	C1014.679993,609.036011 1004.320129,609.032104 993.494995,609.059326 
	C993.019897,568.278442 993.093140,527.466064 992.889648,486.655151 
	C992.865540,481.823181 994.540161,480.866577 998.922363,480.913971 
	C1017.910278,481.119263 1036.901611,481.009033 1056.346191,481.013184 
	C1056.869507,491.374512 1056.938354,501.736206 1057.023560,512.568848 
	C1046.585083,513.039856 1036.130249,513.039856 1025.007202,513.039856 
	C1025.007202,544.978149 1025.007202,576.538025 1025.023560,608.568848 
z"/>
<path fill="#D6D7E1" opacity="1.000000" stroke="none" 
	d="
M224.987885,513.046143 
	C225.008987,502.656677 225.030106,492.267242 225.137268,481.406982 
	C244.706039,480.957947 264.189606,481.081512 283.670776,480.919067 
	C287.764282,480.884918 289.097412,482.046265 289.081879,486.246857 
	C288.931549,526.877625 288.975830,567.509094 288.476746,608.590393 
	C277.646667,609.012573 267.304321,608.984741 256.981689,608.977417 
	C257.001373,608.997864 257.039581,609.039917 257.025482,608.568848 
	C257.011383,576.544189 257.011383,544.990540 257.011383,512.960754 
	C245.868576,512.960754 235.417328,512.960754 224.956543,512.986023 
	C224.947021,513.011292 224.987885,513.046143 224.987885,513.046143 
z"/>
<path fill="#0883CF" opacity="1.000000" stroke="none" 
	d="
M640.999084,865.163025 
	C669.368469,865.107178 697.737854,865.052124 726.107239,864.994324 
	C729.425293,864.987549 732.743408,864.964905 736.526245,864.873108 
	C747.356445,864.867126 757.721802,864.937622 768.540283,865.002258 
	C768.993286,864.996399 768.960144,864.959778 768.978577,865.430786 
	C768.973755,876.169434 768.950500,886.437012 768.472046,896.800293 
	C725.660645,896.946350 683.304565,896.996826 640.965454,896.575928 
	C640.987976,885.790771 640.993530,875.476868 640.999084,865.163025 
z"/>
<path fill="#E23C46" opacity="1.000000" stroke="none" 
	d="
M640.532227,865.118408 
	C640.993530,875.476868 640.987976,885.790771 640.990540,896.552307 
	C640.998657,897.000000 641.048157,896.951843 640.576660,896.967163 
	C599.421509,896.987305 558.737976,896.995422 518.054382,896.984680 
	C516.401001,896.984192 514.747620,896.806580 513.083008,896.490723 
	C513.071777,896.269958 512.888123,895.867859 512.944824,895.415039 
	C513.011475,884.964111 513.021545,874.965942 513.014282,864.987061 
	C512.997009,865.006348 512.960876,865.043335 512.960876,865.043335 
	C523.316467,865.006836 533.672119,864.970398 544.481140,864.853027 
	C569.007019,864.846069 593.079468,864.919250 617.151917,864.994385 
	C624.789734,865.018250 632.427551,865.047180 640.532227,865.118408 
z"/>
<path fill="#E23C45" opacity="1.000000" stroke="none" 
	d="
M416.958466,833.043640 
	C448.635803,833.042358 480.313110,833.041077 512.449707,833.063599 
	C512.938721,843.425110 512.968567,853.762939 512.979614,864.572021 
	C512.960876,865.043335 512.997009,865.006348 512.543579,864.984253 
	C480.429230,864.932678 448.768280,864.903198 417.063416,864.938110 
	C417.019501,865.002380 417.123047,864.885315 417.095245,864.428101 
	C417.057343,853.634888 417.047241,843.298828 417.017334,832.982849 
	C416.997559,833.002930 416.958466,833.043640 416.958466,833.043640 
z"/>
<path fill="#0783CF" opacity="1.000000" stroke="none" 
	d="
M769.025330,833.551941 
	C800.718811,833.055420 832.407898,833.021545 864.554565,833.443481 
	C865.012085,844.149231 865.012085,854.399231 865.012085,864.959778 
	C832.498901,864.959778 800.729553,864.959778 768.960144,864.959778 
	C768.960144,864.959778 768.993286,864.996399 769.010559,865.014038 
	C769.025513,854.692627 769.023254,844.353638 769.025330,833.551941 
z"/>
<path fill="#0783CF" opacity="1.000000" stroke="none" 
	d="
M928.956360,801.038696 
	C928.980042,780.012512 929.003662,758.986389 929.058289,737.494934 
	C939.423523,737.015381 949.757751,737.001099 960.562744,736.976624 
	C961.015137,757.972351 960.996826,778.978210 960.509949,800.478638 
	C949.679688,800.995056 939.318054,801.016846 928.956360,801.038696 
z"/>
<path fill="#E23C45" opacity="1.000000" stroke="none" 
	d="
M256.962006,608.956909 
	C267.304321,608.984741 277.646667,609.012573 288.447998,609.063721 
	C288.942963,630.086121 288.978882,651.085327 289.034241,672.539856 
	C289.053650,672.995239 289.034149,672.952148 288.563477,672.969971 
	C277.850098,672.987793 267.607361,672.987793 256.962006,672.987793 
	C256.962006,651.158386 256.962006,630.057678 256.962006,608.956909 
z"/>
<path fill="#C44953" opacity="1.000000" stroke="none" 
	d="
M320.443695,673.004395 
	C320.967773,683.412476 321.032379,693.788330 321.182007,704.641968 
	C321.193298,715.444214 321.119507,725.768738 321.023926,736.545715 
	C321.002136,736.998169 321.035126,736.964844 320.565247,737.004211 
	C309.740967,737.016663 299.386536,736.989746 289.016052,736.981384 
	C289.000000,737.000000 289.037262,736.967834 289.007080,736.502563 
	C288.895905,725.732605 288.814911,715.427917 288.819366,704.653870 
	C288.947937,693.773743 288.991028,683.362915 289.034119,672.952148 
	C289.034149,672.952148 289.053650,672.995239 289.036194,673.010132 
	C299.340576,673.007324 309.662384,672.989685 320.443695,673.004395 
M289.995117,690.502136 
	C289.997162,704.141052 290.013275,717.779968 289.988312,731.418884 
	C289.983765,733.905945 289.964752,736.084595 293.497528,736.026611 
	C301.146484,735.900940 308.805298,736.143494 316.443573,735.831421 
	C317.668549,735.781372 319.821381,733.654297 319.835602,732.466858 
	C320.055054,714.173401 320.057007,695.875793 319.843414,677.582275 
	C319.829376,676.379395 317.706360,674.221802 316.495636,674.171814 
	C308.857605,673.856384 301.193817,673.856323 293.555573,674.168396 
	C292.328827,674.218506 290.316895,676.256165 290.168976,677.546997 
	C289.717529,681.487549 289.998901,685.512085 289.995117,690.502136 
z"/>
<path fill="#C44953" opacity="1.000000" stroke="none" 
	d="
M352.468811,736.989380 
	C352.963074,758.026428 352.993958,779.041504 353.008087,800.502380 
	C352.991302,800.948120 353.042114,800.971985 352.570892,800.985596 
	C341.764404,800.980774 331.429138,800.962341 321.042786,800.481079 
	C321.006165,779.000427 321.020630,757.982666 321.035095,736.964844 
	C321.035126,736.964844 321.002136,736.998169 320.985626,737.015076 
	C331.314545,737.010498 341.660004,736.988953 352.468811,736.989380 
M322.000000,751.509766 
	C322.000397,766.147339 322.014221,780.784912 321.988251,795.422485 
	C321.983826,797.911438 321.968506,800.088135 325.498718,800.030640 
	C333.148071,799.906006 340.807251,800.148010 348.445862,799.835693 
	C349.671722,799.785645 351.826080,797.657776 351.840240,796.469971 
	C352.058289,778.175659 351.957825,759.877869 352.028503,741.581177 
	C352.039948,738.611694 350.595367,737.918823 348.002930,737.976501 
	C343.514099,738.076233 339.021393,738.000427 334.530334,738.000183 
	C322.000000,737.999573 322.000000,738.000000 322.000000,751.509766 
z"/>
<path fill="#D5D8E1" opacity="1.000000" stroke="none" 
	d="
M193.127762,928.978821 
	C193.085037,897.727783 193.020340,866.476685 193.005630,835.225647 
	C192.990372,802.809204 193.023514,770.392761 193.553513,737.499023 
	C225.726791,737.003723 257.382019,736.985779 289.037262,736.967834 
	C289.037262,736.967834 289.000000,737.000000 289.008728,737.452698 
	C289.007172,801.536377 288.996857,865.167358 288.524414,928.875000 
	C256.417419,928.960693 224.772598,928.969727 193.127762,928.978821 
z"/>
<path fill="#D5D8E1" opacity="1.000000" stroke="none" 
	d="
M288.563477,672.969971 
	C288.991028,683.362915 288.947937,693.773743 288.371765,704.610962 
	C256.278107,705.007202 224.717514,704.977051 193.156906,704.946838 
	C193.104553,691.648315 193.009186,678.349854 193.007492,665.051331 
	C193.001129,615.005371 193.025253,564.959351 193.560013,514.452698 
	C202.217728,513.996216 210.363068,514.239258 218.485184,513.909668 
	C222.923355,513.729553 224.117325,515.194580 224.089050,519.553772 
	C223.908142,547.446350 223.975601,575.340759 224.044418,603.234314 
	C224.049042,605.110718 224.733856,606.985413 225.564499,608.909058 
	C236.364319,608.984802 246.701950,609.012329 257.039581,609.039917 
	C257.039581,609.039917 257.001373,608.997864 256.981689,608.977417 
	C256.962006,630.057678 256.962006,651.158386 256.962006,672.987793 
	C267.607361,672.987793 277.850098,672.987793 288.563477,672.969971 
z"/>
<path fill="#0684D0" opacity="1.000000" stroke="none" 
	d="
M193.098083,929.446289 
	C224.772598,928.969727 256.417419,928.960693 288.987000,928.948120 
	C300.278992,928.895874 310.646179,928.847107 321.475464,928.875610 
	C374.972931,928.955750 428.008331,928.958618 481.027313,929.432373 
	C481.013397,940.225769 481.015900,950.548279 481.018372,960.870850 
	C479.022430,960.917297 477.026459,961.004272 475.030518,961.004395 
	C383.330139,961.011108 291.629761,961.010620 199.929398,961.009521 
	C192.994202,961.009399 192.982025,961.004150 192.992874,953.877197 
	C193.005035,945.889404 193.042160,937.901550 193.098083,929.446289 
z"/>
<path fill="#D5D8E1" opacity="1.000000" stroke="none" 
	d="
M736.947083,960.842957 
	C723.784607,960.895264 710.622070,960.990540 697.459595,960.992371 
	C646.965027,960.999329 596.470520,960.976318 545.498657,960.446472 
	C545.017578,949.686646 545.013794,939.444885 545.474609,929.126221 
	C549.257141,929.034485 552.574951,929.012390 555.892822,929.005676 
	C584.260193,928.948486 612.627625,928.894104 641.462219,928.882324 
	C649.235291,928.952698 656.541199,928.983032 663.847046,929.005615 
	C688.252258,929.080933 712.657532,929.153503 737.047546,929.681274 
	C737.003906,940.371277 736.975464,950.607117 736.947083,960.842957 
z"/>
<path fill="#AFBFD1" opacity="1.000000" stroke="none" 
	d="
M193.101257,705.416382 
	C224.717514,704.977051 256.278107,705.007202 288.286316,705.080322 
	C288.814911,715.427917 288.895905,725.732605 289.007080,736.502563 
	C257.382019,736.985779 225.726791,737.003723 193.614166,737.037231 
	C193.119736,726.663757 193.082687,716.274841 193.101257,705.416382 
z"/>
<path fill="#D4D8E2" opacity="1.000000" stroke="none" 
	d="
M481.485596,960.922119 
	C481.015900,950.548279 481.013397,940.225769 481.006592,929.452271 
	C481.002228,929.001404 480.959656,929.040100 481.430695,929.026062 
	C492.264801,929.075073 502.627899,929.138184 512.992065,929.657288 
	C512.978333,940.356506 512.963440,950.599670 512.948547,960.842896 
	C502.616638,960.886414 492.284729,960.929932 481.485596,960.922119 
z"/>
<path fill="#AFBFD1" opacity="1.000000" stroke="none" 
	d="
M737.416626,960.898621 
	C736.975464,950.607117 737.003906,940.371277 737.501221,929.599976 
	C748.292297,929.118042 758.614563,929.171570 768.952026,929.679321 
	C768.995483,940.369995 769.023682,950.606323 769.051880,960.842651 
	C758.663269,960.879883 748.274719,960.917053 737.416626,960.898621 
z"/>
<path fill="#D6D7E1" opacity="1.000000" stroke="none" 
	d="
M769.513489,960.903564 
	C769.023682,950.606323 768.995483,940.369995 769.422852,929.592896 
	C780.265686,929.047913 790.652893,929.043701 801.019592,929.022461 
	C800.999146,929.005371 800.960510,928.968628 800.960510,928.968628 
	C800.975281,938.673279 800.990051,948.377991 801.084839,958.545898 
	C801.129761,959.399353 801.094666,959.789490 801.063477,960.473022 
	C790.703308,960.832520 780.339233,960.898499 769.513489,960.903564 
z"/>
<path fill="#AEBFD1" opacity="1.000000" stroke="none" 
	d="
M513.417908,960.898621 
	C512.963440,950.599670 512.978333,940.356506 513.454468,929.584717 
	C524.280579,929.105164 534.645264,929.154114 545.010010,929.203003 
	C545.013794,939.444885 545.017578,949.686646 545.036865,960.385803 
	C534.663940,960.880249 524.275574,960.917297 513.417908,960.898621 
z"/>
<path fill="#F0CCD5" opacity="1.000000" stroke="none" 
	d="
M225.102325,608.860901 
	C224.733856,606.985413 224.049042,605.110718 224.044418,603.234314 
	C223.975601,575.340759 223.908142,547.446350 224.089050,519.553772 
	C224.117325,515.194580 222.923355,513.729553 218.485184,513.909668 
	C210.363068,514.239258 202.217728,513.996216 193.624832,513.986938 
	C193.153107,513.790833 193.138611,513.599792 193.229477,513.140076 
	C203.576202,512.908936 213.817566,512.946472 224.523407,513.015076 
	C224.987885,513.046143 224.947021,513.011292 224.982819,513.456604 
	C225.046509,545.554932 225.074417,577.207886 225.102325,608.860901 
z"/>
<path fill="#D5D8E1" opacity="1.000000" stroke="none" 
	d="
M928.977173,801.018738 
	C939.318054,801.016846 949.679688,800.995056 960.506775,800.941711 
	C960.993896,843.221375 961.015625,885.532593 961.077148,928.292480 
	C958.126953,928.812256 955.137024,928.944519 952.147034,928.945312 
	C902.065735,928.958374 851.984497,928.955017 801.431885,928.961914 
	C800.960510,928.968628 800.999146,929.005371 801.006836,928.551392 
	C801.014465,917.852844 801.014465,907.608154 801.014465,896.704651 
	C789.818176,896.704651 779.372681,896.704651 768.927246,896.704651 
	C768.950500,886.437012 768.973755,876.169434 768.978577,865.430786 
	C800.729553,864.959778 832.498901,864.959778 865.012085,864.959778 
	C865.012085,854.399231 865.012085,844.149231 865.025391,833.427795 
	C865.038757,832.956360 864.998779,832.997986 865.450317,833.005188 
	C886.799805,833.012390 907.697632,833.012390 929.040466,833.012390 
	C929.040466,821.863770 929.040466,811.411804 929.040466,800.959778 
	C929.040466,800.959778 928.997925,800.998779 928.977173,801.018738 
z"/>
<path fill="#D2D5DD" opacity="1.000000" stroke="none" 
	d="
M397.827820,157.228027 
	C398.716156,164.229248 399.542450,170.796936 400.426361,177.822556 
	C396.373474,177.822556 392.698944,177.822556 388.389496,177.822556 
	C389.996857,166.466080 391.558044,155.436005 393.119232,144.405914 
	C393.681854,144.382736 394.244476,144.359558 394.807068,144.336380 
	C395.420349,146.367950 396.130981,148.376434 396.619720,150.437561 
	C397.115784,152.529495 397.392822,154.673355 397.827820,157.228027 
z"/>
<path fill="#D2D5DD" opacity="1.000000" stroke="none" 
	d="
M697.424316,195.230499 
	C697.601135,188.328995 697.773193,181.835373 698.115173,175.350693 
	C698.382019,170.290237 701.344055,167.011063 706.219482,166.043610 
	C712.068542,164.882965 716.962830,166.736282 718.900696,171.429840 
	C722.507080,180.164368 721.458618,189.197739 718.977295,197.868286 
	C717.412415,203.336075 711.947205,203.309845 707.208618,203.096390 
	C702.352295,202.877609 698.400269,201.160858 697.424316,195.230499 
z"/>
<path fill="#D2D5DD" opacity="1.000000" stroke="none" 
	d="
M776.346802,1115.659546 
	C774.261230,1116.235107 772.507690,1116.702637 770.723999,1116.910278 
	C767.987000,1117.229126 766.896973,1115.946045 766.940979,1113.141968 
	C767.063171,1105.346436 766.983398,1097.547852 766.983398,1089.781250 
	C773.913818,1087.094971 778.398804,1089.029785 780.594238,1095.713623 
	C782.987366,1102.998779 782.569824,1109.777222 776.346802,1115.659546 
z"/>
<path fill="#D2D5DD" opacity="1.000000" stroke="none" 
	d="
M270.994995,1087.764648 
	C268.231262,1095.270020 261.947693,1093.367676 255.572418,1094.237549 
	C255.312332,1088.914062 255.069595,1083.945557 254.832733,1079.097290 
	C263.475281,1076.536011 270.043457,1080.074463 270.994995,1087.764648 
z"/>
<path fill="#D2D5DD" opacity="1.000000" stroke="none" 
	d="
M404.158875,1111.557495 
	C404.520508,1107.869629 404.522797,1104.488281 405.440704,1101.376953 
	C406.569916,1097.549561 411.510468,1095.458740 416.192291,1096.100952 
	C420.849823,1096.739868 420.743774,1100.374390 420.772278,1103.644043 
	C420.808228,1107.770630 420.486389,1111.905762 420.191559,1116.028076 
	C419.944641,1119.480957 418.345856,1122.820068 414.775543,1122.584229 
	C411.916290,1122.395386 408.796570,1120.419556 406.570312,1118.385376 
	C405.078125,1117.021973 404.946198,1114.169800 404.158875,1111.557495 
z"/>
<path fill="#D2D5DD" opacity="1.000000" stroke="none" 
	d="
M468.143372,1103.288208 
	C468.135162,1107.573608 468.293640,1111.400391 468.032104,1115.198364 
	C467.621674,1121.158569 462.488373,1123.611938 457.375427,1120.454956 
	C453.480743,1118.050293 451.579132,1110.745850 453.355957,1105.046143 
	C454.895569,1100.107422 458.708649,1098.657227 463.366364,1098.540283 
	C466.270752,1098.467163 468.213318,1099.527222 468.143372,1103.288208 
z"/>
<path fill="#D2D5DD" opacity="1.000000" stroke="none" 
	d="
M897.166443,1108.733398 
	C899.212341,1106.237915 900.800964,1103.224121 903.213867,1102.247925 
	C909.465088,1099.718994 912.102966,1101.845703 912.185547,1108.551025 
	C912.222412,1111.541016 912.182983,1114.533203 912.111450,1117.522827 
	C912.035889,1120.676270 911.419006,1123.653809 907.762146,1124.450195 
	C904.001648,1125.269287 900.311951,1124.327881 898.957275,1120.650635 
	C897.638550,1117.070801 897.654663,1112.999146 897.166443,1108.733398 
z"/>
<path fill="#D2D5DD" opacity="1.000000" stroke="none" 
	d="
M1009.549561,1107.823120 
	C1009.885742,1103.204834 1012.620300,1101.805542 1016.323914,1101.635986 
	C1020.238647,1101.456543 1022.964111,1103.407715 1023.282043,1107.204712 
	C1023.663940,1111.764771 1023.746216,1116.487915 1022.967468,1120.968262 
	C1022.189819,1125.442261 1018.036621,1125.224854 1014.510742,1124.965820 
	C1011.050659,1124.711670 1008.992126,1122.809937 1009.062500,1119.175171 
	C1009.133057,1115.530273 1009.355042,1111.888428 1009.549561,1107.823120 
z"/>
<path fill="#D2D5DD" opacity="1.000000" stroke="none" 
	d="
M312.662292,1093.042725 
	C317.261719,1094.168335 319.524445,1096.803955 319.643585,1101.625244 
	C314.380127,1101.625244 309.214722,1101.625244 304.048370,1101.625244 
	C303.467163,1095.590820 305.489777,1093.484497 312.662292,1093.042725 
z"/>
<path fill="#0584D1" opacity="1.000000" stroke="none" 
	d="
M962.747192,674.721558 
	C971.705872,674.277161 980.343384,674.030090 988.974060,674.179932 
	C989.997803,674.197632 991.846069,676.375977 991.858215,677.567627 
	C992.044678,695.869324 992.055603,714.174194 991.838379,732.475159 
	C991.824341,733.660706 989.661316,735.784180 988.431030,735.834412 
	C980.789612,736.146240 973.124329,736.122803 965.479797,735.851013 
	C964.292725,735.808838 962.171265,733.925537 962.167664,732.887756 
	C962.100464,713.605103 962.289185,694.321533 962.747192,674.721558 
z"/>
<path fill="#0783CF" opacity="1.000000" stroke="none" 
	d="
M928.569397,800.974121 
	C929.040466,811.411804 929.040466,821.863770 929.040466,833.012390 
	C907.697632,833.012390 886.799805,833.012390 865.430847,833.026428 
	C864.959778,822.588623 864.959778,812.136780 864.959778,800.988403 
	C886.303101,800.988403 907.200684,800.988403 928.569397,800.974121 
z"/>
<path fill="#E23C45" opacity="1.000000" stroke="none" 
	d="
M352.973114,800.969360 
	C374.057373,800.990540 395.159821,800.990540 416.992981,800.990540 
	C416.992981,811.612793 416.992981,821.856995 416.975708,832.572388 
	C416.958466,833.043640 416.997559,833.002930 416.546326,832.983521 
	C395.099152,832.933960 374.103241,832.903870 353.064026,832.938354 
	C353.020752,833.002991 353.123169,832.885132 353.095337,832.429077 
	C353.059052,821.639404 353.050598,811.305664 353.042114,800.971985 
	C353.042114,800.971985 352.991302,800.948120 352.973114,800.969360 
z"/>
<path fill="#E23C45" opacity="1.000000" stroke="none" 
	d="
M225.564514,608.909058 
	C225.074417,577.207886 225.046509,545.554932 224.992340,513.431335 
	C235.417328,512.960754 245.868576,512.960754 257.011383,512.960754 
	C257.011383,544.990540 257.011383,576.544189 257.025482,608.568848 
	C246.701950,609.012329 236.364319,608.984802 225.564514,608.909058 
z"/>
<path fill="#E23C46" opacity="1.000000" stroke="none" 
	d="
M768.472046,896.800293 
	C779.372681,896.704651 789.818176,896.704651 801.014465,896.704651 
	C801.014465,907.608154 801.014465,917.852844 801.027222,928.568481 
	C790.652893,929.043701 780.265686,929.047913 769.407715,929.138550 
	C758.614563,929.171570 748.292297,929.118042 737.516357,929.145874 
	C712.657532,929.153503 688.252258,929.080933 663.847046,929.005615 
	C656.541199,928.983032 649.235291,928.952698 641.465210,928.425171 
	C641.016663,917.600220 641.032410,907.276062 641.048157,896.951843 
	C641.048157,896.951843 640.998657,897.000000 640.973511,897.023682 
	C683.304565,896.996826 725.660645,896.946350 768.472046,896.800293 
z"/>
<path fill="#D5D8E1" opacity="1.000000" stroke="none" 
	d="
M481.022949,928.981445 
	C428.008331,928.958618 374.972931,928.955750 321.476135,928.421387 
	C321.032288,885.917114 321.049866,843.944397 321.529419,801.980835 
	C329.448456,801.994995 336.905579,802.001160 344.362671,802.004395 
	C351.994324,802.007751 351.994781,802.006592 351.995789,809.883240 
	C351.996552,816.014648 351.922363,822.147644 352.047638,828.276489 
	C352.079132,829.819397 352.747498,831.349243 353.123169,832.885132 
	C353.123169,832.885132 353.020752,833.002991 353.338776,833.243591 
	C355.450928,833.657776 357.244751,833.977966 359.039276,833.981995 
	C376.128601,834.020203 393.220825,834.173828 410.305725,833.895630 
	C415.044098,833.818481 416.294189,835.408081 416.080719,839.867798 
	C415.755829,846.654846 415.928406,853.470032 416.047394,860.270569 
	C416.074402,861.814636 416.747406,863.347351 417.123047,864.885315 
	C417.123047,864.885315 417.019501,865.002380 417.338135,865.243347 
	C419.624878,865.657837 421.592743,865.979797 423.561035,865.982361 
	C449.548157,866.016052 475.535309,866.004883 501.522461,866.004883 
	C511.995850,866.004883 511.891754,866.006287 512.034729,876.615479 
	C512.121277,883.035645 512.590698,889.450562 512.888123,895.867859 
	C512.888123,895.867859 513.071777,896.269958 512.620728,896.612915 
	C501.915283,896.955811 491.660858,896.955811 480.959656,896.955811 
	C480.959656,908.130859 480.959656,918.585510 480.959656,929.040100 
	C480.959656,929.040100 481.002228,929.001404 481.022949,928.981445 
z"/>
<path fill="#0883CF" opacity="1.000000" stroke="none" 
	d="
M481.430695,929.026062 
	C480.959656,918.585510 480.959656,908.130859 480.959656,896.955811 
	C491.660858,896.955811 501.915283,896.955811 512.631958,896.833618 
	C514.747620,896.806580 516.401001,896.984192 518.054382,896.984680 
	C558.737976,896.995422 599.421509,896.987305 640.576660,896.967163 
	C641.032410,907.276062 641.016663,917.600220 640.997986,928.381653 
	C612.627625,928.894104 584.260193,928.948486 555.892822,929.005676 
	C552.574951,929.012390 549.257141,929.034485 545.474609,929.126221 
	C534.645264,929.154114 524.280579,929.105164 513.453369,929.128784 
	C502.627899,929.138184 492.264801,929.075073 481.430695,929.026062 
z"/>
<path fill="#F0CCD5" opacity="1.000000" stroke="none" 
	d="
M512.944824,895.415039 
	C512.590698,889.450562 512.121277,883.035645 512.034729,876.615479 
	C511.891754,866.006287 511.995850,866.004883 501.522461,866.004883 
	C475.535309,866.004883 449.548157,866.016052 423.561035,865.982361 
	C421.592743,865.979797 419.624878,865.657837 417.382050,865.179077 
	C448.768280,864.903198 480.429230,864.932678 512.560913,864.964966 
	C513.021545,874.965942 513.011475,884.964111 512.944824,895.415039 
z"/>
<path fill="#F0CCD5" opacity="1.000000" stroke="none" 
	d="
M417.095245,864.428101 
	C416.747406,863.347351 416.074402,861.814636 416.047394,860.270569 
	C415.928406,853.470032 415.755829,846.654846 416.080719,839.867798 
	C416.294189,835.408081 415.044098,833.818481 410.305725,833.895630 
	C393.220825,834.173828 376.128601,834.020203 359.039276,833.981995 
	C357.244751,833.977966 355.450928,833.657776 353.382050,833.178955 
	C374.103241,832.903870 395.099152,832.933960 416.566101,832.963440 
	C417.047241,843.298828 417.057343,853.634888 417.095245,864.428101 
z"/>
<path fill="#AFBFD1" opacity="1.000000" stroke="none" 
	d="
M321.067444,801.971619 
	C321.049866,843.944397 321.032288,885.917114 321.014038,928.344116 
	C310.646179,928.847107 300.278992,928.895874 289.449158,928.871460 
	C288.996857,865.167358 289.007172,801.536377 289.024780,737.434082 
	C299.386536,736.989746 309.740967,737.016663 320.565247,737.004211 
	C321.020630,757.982666 321.006165,779.000427 321.022522,800.737427 
	C321.058014,801.628296 321.062714,801.799927 321.067444,801.971619 
z"/>
<path fill="#E53B44" opacity="1.000000" stroke="none" 
	d="
M289.995117,690.003052 
	C289.998901,685.512085 289.717529,681.487549 290.168976,677.546997 
	C290.316895,676.256165 292.328827,674.218506 293.555573,674.168396 
	C301.193817,673.856323 308.857605,673.856384 316.495636,674.171814 
	C317.706360,674.221802 319.829376,676.379395 319.843414,677.582275 
	C320.057007,695.875793 320.055054,714.173401 319.835602,732.466858 
	C319.821381,733.654297 317.668549,735.781372 316.443573,735.831421 
	C308.805298,736.143494 301.146484,735.900940 293.497528,736.026611 
	C289.964752,736.084595 289.983765,733.905945 289.988312,731.418884 
	C290.013275,717.779968 289.997162,704.141052 289.995117,690.003052 
z"/>
<path fill="#E53B44" opacity="1.000000" stroke="none" 
	d="
M322.000000,751.011963 
	C322.000000,738.000000 322.000000,737.999573 334.530334,738.000183 
	C339.021393,738.000427 343.514099,738.076233 348.002930,737.976501 
	C350.595367,737.918823 352.039948,738.611694 352.028503,741.581177 
	C351.957825,759.877869 352.058289,778.175659 351.840240,796.469971 
	C351.826080,797.657776 349.671722,799.785645 348.445862,799.835693 
	C340.807251,800.148010 333.148071,799.906006 325.498718,800.030640 
	C321.968506,800.088135 321.983826,797.911438 321.988251,795.422485 
	C322.014221,780.784912 322.000397,766.147339 322.000000,751.011963 
z"/>
<path fill="#F0CCD5" opacity="1.000000" stroke="none" 
	d="
M321.529419,801.980835 
	C321.062714,801.799927 321.058014,801.628296 321.073608,801.200317 
	C331.429138,800.962341 341.764404,800.980774 352.570923,800.985596 
	C353.050598,811.305664 353.059052,821.639404 353.095337,832.429077 
	C352.747498,831.349243 352.079132,829.819397 352.047638,828.276489 
	C351.922363,822.147644 351.996552,816.014648 351.995789,809.883240 
	C351.994781,802.006592 351.994324,802.007751 344.362671,802.004395 
	C336.905579,802.001160 329.448456,801.994995 321.529419,801.980835 
z"/>
</svg>