<svg version="1.1" id="Layer_1" xmlns="http://www.w3.org/2000/svg" xmlns:xlink="http://www.w3.org/1999/xlink" x="0px" y="0px"
	 width="100%" viewBox="0 0 1320 1320" enable-background="new 0 0 1320 1320" xml:space="preserve">
<path fill="#1C1C1C" opacity="1.000000" stroke="none" 
	d="
M615.000000,1321.000000 
	C410.000000,1321.000000 205.500000,1321.000000 1.000000,1321.000000 
	C1.000000,881.000000 1.000000,441.000000 1.000000,1.000000 
	C441.000000,1.000000 881.000000,1.000000 1321.000000,1.000000 
	C1321.000000,441.000000 1321.000000,881.000000 1321.000000,1321.000000 
	C1085.833374,1321.000000 850.666687,1321.000000 615.000000,1321.000000 
M781.466614,481.091003 
	C781.366638,481.387970 781.266602,481.684937 781.019409,482.911224 
	C780.971130,522.252319 780.922852,561.593384 779.954773,600.994324 
	C760.310608,600.965576 740.666504,600.936829 721.002502,599.982666 
	C721.002502,560.401550 721.002502,520.820374 721.002502,481.162292 
	C700.569336,481.162292 680.766663,481.162292 660.041687,481.014038 
	C560.456787,481.014038 460.871826,481.014038 360.872314,481.014038 
	C360.872314,521.262390 360.872314,560.994812 360.872314,601.135132 
	C300.728882,601.135132 240.999710,601.135132 181.275146,601.135132 
	C181.275146,661.275269 181.275146,721.003296 181.275146,780.715332 
	C201.285187,780.715332 221.018768,780.715332 241.164993,780.715332 
	C241.164993,740.700073 241.164993,700.967651 241.164993,661.295898 
	C281.312073,661.295898 321.042908,661.295898 361.183655,661.295898 
	C361.183655,721.319946 361.183655,781.049133 361.183655,840.712158 
	C481.315857,840.712158 601.036194,840.712158 721.091858,840.712158 
	C721.091858,800.624084 721.091858,760.823181 722.017212,721.002502 
	C741.656311,721.043457 761.295410,721.084412 780.994385,722.045227 
	C780.994385,761.630920 780.994385,801.216675 780.994385,840.696655 
	C901.341980,840.696655 1021.064819,840.696655 1140.702759,840.696655 
	C1140.702759,720.670227 1140.702759,600.947449 1140.702759,481.123932 
	C1139.764771,481.072418 1139.117554,481.005829 1138.470337,481.005798 
	C1039.818726,481.000732 941.167114,480.997345 842.515503,481.036438 
	C841.320801,481.036926 840.126282,481.585785 838.165344,481.970886 
	C835.100952,481.647339 832.037231,481.053955 828.971985,481.045593 
	C813.310364,481.002899 797.648438,481.111176 781.466614,481.091003 
z"/>
<path fill="#FFFFFF" opacity="1.000000" stroke="none" 
	d="
M721.091858,721.022339 
	C721.091858,760.823181 721.091858,800.624084 721.091858,840.712158 
	C601.036194,840.712158 481.315857,840.712158 361.183655,840.712158 
	C361.183655,781.049133 361.183655,721.319946 361.183655,661.295898 
	C321.042908,661.295898 281.312073,661.295898 241.164993,661.295898 
	C241.164993,700.967651 241.164993,740.700073 241.164993,780.715332 
	C221.018768,780.715332 201.285187,780.715332 181.275146,780.715332 
	C181.275146,721.003296 181.275146,661.275269 181.275146,601.135132 
	C240.999710,601.135132 300.728882,601.135132 360.872314,601.135132 
	C360.872314,560.994812 360.872314,521.262390 360.872314,481.014038 
	C460.871826,481.014038 560.456787,481.014038 660.513794,481.546326 
	C660.990540,559.575928 660.994690,637.073181 661.001221,714.570496 
	C661.001770,720.992432 661.009521,720.995911 667.593811,720.999329 
	C685.426514,721.008728 703.259155,721.014893 721.091858,721.022339 
M541.000000,584.500000 
	C541.000000,570.072632 541.000000,555.645325 541.000000,541.301270 
	C500.675568,541.301270 460.945465,541.301270 421.296753,541.301270 
	C421.296753,621.326782 421.296753,701.050720 421.296753,780.698853 
	C461.324341,780.698853 501.054443,780.698853 541.000000,780.698853 
	C541.000000,715.431946 541.000000,650.465942 541.000000,584.500000 
z"/>
<path fill="#FFFFFF" opacity="1.000000" stroke="none" 
	d="
M721.022339,600.908081 
	C740.666504,600.936829 760.310608,600.965576 780.891052,600.983398 
	C801.497375,600.992920 821.167419,601.013367 840.911743,601.495117 
	C840.985962,661.549011 840.985962,721.141541 840.985962,780.716309 
	C881.284912,780.716309 921.017029,780.716309 960.714355,780.716309 
	C960.714355,700.704468 960.714355,620.976440 960.714355,541.091675 
	C920.626831,541.091675 880.824707,541.091675 841.015808,540.617310 
	C841.005981,524.029175 841.116699,507.913818 840.906311,491.802704 
	C840.862976,488.486694 839.621155,485.186279 838.931702,481.878693 
	C840.126282,481.585785 841.320801,481.036926 842.515503,481.036438 
	C941.167114,480.997345 1039.818726,481.000732 1138.470337,481.005798 
	C1139.117554,481.005829 1139.764771,481.072418 1140.702759,481.123932 
	C1140.702759,600.947449 1140.702759,720.670227 1140.702759,840.696655 
	C1021.064819,840.696655 901.341980,840.696655 780.994385,840.696655 
	C780.994385,801.216675 780.994385,761.630920 780.983398,721.108948 
	C780.981445,702.034973 780.900696,683.896484 781.073792,665.760376 
	C781.109314,662.041931 779.978821,660.886475 776.248657,660.925232 
	C759.610352,661.098267 742.967834,660.884705 726.330017,661.082703 
	C722.280884,661.130981 720.856506,660.074158 720.908264,655.819336 
	C721.130798,637.517883 721.014954,619.212219 721.022339,600.908081 
z"/>
<path fill="#D9D9D9" opacity="1.000000" stroke="none" 
	d="
M721.012390,600.445435 
	C721.014954,619.212219 721.130798,637.517883 720.908264,655.819336 
	C720.856506,660.074158 722.280884,661.130981 726.330017,661.082703 
	C742.967834,660.884705 759.610352,661.098267 776.248657,660.925232 
	C779.978821,660.886475 781.109314,662.041931 781.073792,665.760376 
	C780.900696,683.896484 780.981445,702.034973 780.953491,720.649048 
	C761.295410,721.084412 741.656311,721.043457 721.554565,721.012451 
	C703.259155,721.014893 685.426514,721.008728 667.593811,720.999329 
	C661.009521,720.995911 661.001770,720.992432 661.001221,714.570496 
	C660.994690,637.073181 660.990540,559.575928 660.974976,481.620483 
	C680.766663,481.162292 700.569336,481.162292 721.002502,481.162292 
	C721.002502,520.820374 721.002502,560.401550 721.012390,600.445435 
z"/>
<path fill="#D9D9D9" opacity="1.000000" stroke="none" 
	d="
M838.548523,481.924805 
	C839.621155,485.186279 840.862976,488.486694 840.906311,491.802704 
	C841.116699,507.913818 841.005981,524.029175 841.005798,541.080017 
	C840.947510,561.689331 840.892517,581.361572 840.837524,601.033875 
	C821.167419,601.013367 801.497375,600.992920 781.350952,600.953491 
	C780.922852,561.593384 780.971130,522.252319 781.261597,482.345520 
	C781.714172,481.614319 781.875122,481.409943 781.986572,481.166656 
	C797.648438,481.111176 813.310364,481.002899 828.971985,481.045593 
	C832.037231,481.053955 835.100952,481.647339 838.548523,481.924805 
z"/>
<path fill="#D9D9D9" opacity="1.000000" stroke="none" 
	d="
M781.726562,481.128845 
	C781.875122,481.409943 781.714172,481.614319 781.335205,481.880859 
	C781.266602,481.684937 781.366638,481.387970 781.726562,481.128845 
z"/>
<path fill="#1C1C1C" opacity="1.000000" stroke="none" 
	d="
M541.000000,585.000000 
	C541.000000,650.465942 541.000000,715.431946 541.000000,780.698853 
	C501.054443,780.698853 461.324341,780.698853 421.296753,780.698853 
	C421.296753,701.050720 421.296753,621.326782 421.296753,541.301270 
	C460.945465,541.301270 500.675568,541.301270 541.000000,541.301270 
	C541.000000,555.645325 541.000000,570.072632 541.000000,585.000000 
z"/>
<path fill="#1C1C1C" opacity="1.000000" stroke="none" 
	d="
M840.911743,601.495117 
	C840.892517,581.361572 840.947510,561.689331 841.012573,541.554321 
	C880.824707,541.091675 920.626831,541.091675 960.714355,541.091675 
	C960.714355,620.976440 960.714355,700.704468 960.714355,780.716309 
	C921.017029,780.716309 881.284912,780.716309 840.985962,780.716309 
	C840.985962,721.141541 840.985962,661.549011 840.911743,601.495117 
z"/>
</svg>