<?xml version="1.0" standalone="no"?>
<!DOCTYPE svg PUBLIC "-//W3C//DTD SVG 20010904//EN"
 "http://www.w3.org/TR/2001/REC-SVG-20010904/DTD/svg10.dtd">
<svg version="1.0" xmlns="http://www.w3.org/2000/svg"
 width="1320.000000pt" height="1320.000000pt" viewBox="0 0 1320.000000 1320.000000"
 preserveAspectRatio="xMidYMid meet">

<g transform="translate(0.000000,1320.000000) scale(0.100000,-0.100000)"
fill="#000000" stroke="none">
<path d="M0 6600 l0 -6600 6600 0 6600 0 0 6600 0 6600 -6600 0 -6600 0 0
-6600z m7200 1200 l0 -600 300 0 300 0 0 600 0 600 1800 0 1800 0 0 -1800 0
-1800 -1800 0 -1800 0 0 600 0 600 -300 0 -300 0 0 -600 0 -600 -1800 0 -1800
0 0 900 0 900 -600 0 -600 0 0 -600 0 -600 -300 0 -300 0 0 900 0 900 900 0
900 0 0 600 0 600 1800 0 1800 0 0 -600z"/>
<path d="M4200 6600 l0 -1200 600 0 600 0 0 1200 0 1200 -600 0 -600 0 0
-1200z"/>
<path d="M8400 6600 l0 -1200 600 0 600 0 0 1200 0 1200 -600 0 -600 0 0
-1200z"/>
</g>
</svg>
