<svg version="1.1" id="Layer_1" xmlns="http://www.w3.org/2000/svg" xmlns:xlink="http://www.w3.org/1999/xlink" x="0px" y="0px"
	 width="100%" viewBox="0 0 300 300" enable-background="new 0 0 300 300" xml:space="preserve">
<path fill="#FFE762" opacity="1.000000" stroke="none" 
	d="
M201.000000,301.000000 
	C134.381958,301.000000 67.763916,301.000000 1.072938,301.000000 
	C1.072938,201.121613 1.072938,101.243149 1.072938,1.000000 
	C34.020000,1.000000 67.041344,1.000000 100.531342,1.468657 
	C101.041031,34.941154 101.082062,67.944992 101.085297,101.419312 
	C101.031708,133.010193 101.107994,164.131210 100.899605,195.250336 
	C100.868790,199.851151 102.180557,201.130997 106.761330,201.099838 
	C135.717148,200.902817 164.674973,200.999405 193.632126,201.000366 
	C200.995987,201.000626 200.999161,201.002747 200.999466,208.137390 
	C201.000732,239.091599 201.000000,270.045807 201.000000,301.000000 
z"/>
<path fill="#FB922B" opacity="1.000000" stroke="none" 
	d="
M201.468658,301.000000 
	C201.000000,270.045807 201.000732,239.091599 200.999466,208.137390 
	C200.999161,201.002747 200.995987,201.000626 193.632126,201.000366 
	C164.674973,200.999405 135.717148,200.902817 106.761330,201.099838 
	C102.180557,201.130997 100.868790,199.851151 100.899605,195.250336 
	C101.107994,164.131210 101.031708,133.010193 101.543396,101.441071 
	C135.015137,100.960815 167.990967,100.929291 201.216522,100.905319 
	C201.632187,100.895546 201.798111,100.878227 202.433167,100.903671 
	C235.281403,100.917900 267.660492,100.889366 300.278290,100.905388 
	C300.516968,100.949944 301.000000,101.000000 301.000000,101.000000 
	C301.000000,167.569336 301.000000,234.138672 301.000000,301.000000 
	C267.979675,301.000000 234.958496,301.000000 201.468658,301.000000 
z"/>
<path fill="#000000" opacity="1.000000" stroke="none" 
	d="
M200.966797,100.897766 
	C167.990967,100.929291 135.015137,100.960815 101.581192,100.970581 
	C101.082062,67.944992 101.041031,34.941154 101.000000,1.468657 
	C134.020889,1.000000 167.041794,1.000000 200.539871,1.250859 
	C201.066925,1.661451 201.116791,1.821184 201.091797,2.445481 
	C201.066833,35.276878 201.116745,67.643715 201.090393,100.226425 
	C201.014114,100.442299 200.966797,100.897766 200.966797,100.897766 
z"/>
<path fill="#FFE762" opacity="1.000000" stroke="none" 
	d="
M201.166656,100.010544 
	C201.116745,67.643715 201.066833,35.276878 201.263214,2.311601 
	C201.720764,1.508275 201.884262,1.270556 202.000000,1.000000 
	C234.354233,1.000000 266.708466,1.000000 299.661316,1.200903 
	C300.464447,1.653442 300.711121,1.852840 301.000000,2.000000 
	C301.000000,34.354229 301.000000,66.708458 300.811768,99.641953 
	C300.385223,100.394547 300.190582,100.607742 300.039612,100.860832 
	C267.660492,100.889366 235.281403,100.917900 202.328705,100.737946 
	C201.591507,100.319603 201.395340,100.146637 201.166656,100.010544 
z"/>
<path fill="#FFE762" opacity="1.000000" stroke="none" 
	d="
M201.750000,1.000000 
	C201.884262,1.270556 201.720764,1.508275 201.338089,1.847037 
	C201.116791,1.821184 201.066925,1.661451 201.008530,1.250859 
	C201.000000,1.000000 201.500000,1.000000 201.750000,1.000000 
z"/>
<path fill="#FFE762" opacity="1.000000" stroke="none" 
	d="
M301.000000,1.500000 
	C300.711121,1.852840 300.464447,1.653442 300.130005,1.200903 
	C300.333344,1.000000 300.666656,1.000000 301.000000,1.500000 
z"/>
<path fill="#FFE762" opacity="1.000000" stroke="none" 
	d="
M300.278290,100.905388 
	C300.190582,100.607742 300.385223,100.394547 300.811768,100.110611 
	C301.000000,100.000000 301.000000,100.500000 301.000000,100.750000 
	C301.000000,101.000000 300.516968,100.949944 300.278290,100.905388 
z"/>
<path fill="#FFE762" opacity="1.000000" stroke="none" 
	d="
M201.090393,100.226425 
	C201.395340,100.146637 201.591507,100.319603 201.859573,100.695183 
	C201.798111,100.878227 201.632187,100.895546 201.216522,100.905319 
	C200.966797,100.897766 201.014114,100.442299 201.090393,100.226425 
z"/>
</svg>