<svg version="1.1" id="Layer_1" xmlns="http://www.w3.org/2000/svg" xmlns:xlink="http://www.w3.org/1999/xlink" x="0px" y="0px"
	 width="100%" viewBox="0 0 970 938" enable-background="new 0 0 970 938" xml:space="preserve">
<path fill="#030303" opacity="1.000000" stroke="none" 
	d="
M967.000000,939.000000 
	C647.302429,939.000000 327.604858,939.000000 7.498497,938.533203 
	C7.089729,627.042542 7.089729,316.018677 7.089729,5.058496 
	C327.371277,5.058496 646.925476,5.058496 966.902161,5.058496 
	C966.902161,7.240506 966.902161,9.204226 966.902161,11.167948 
	C966.902161,318.447083 966.901917,625.726257 966.906189,933.005371 
	C966.906189,935.003601 966.967346,937.001770 967.000000,939.000000 
M945.052124,64.500008 
	C945.052124,51.907513 945.052124,39.315022 945.052124,26.893101 
	C639.339844,26.893101 334.296509,26.893101 29.302240,26.893101 
	C29.302240,325.025421 29.302240,622.872437 29.302240,920.613403 
	C334.700073,920.613403 639.743408,920.613403 945.052124,920.613403 
	C945.052124,635.380615 945.052124,350.440308 945.052124,64.500008 
z"/>
<path fill="#FAFAFA" opacity="1.000000" stroke="none" 
	d="
M967.500000,939.000000 
	C966.967346,937.001770 966.906189,935.003601 966.906189,933.005371 
	C966.901917,625.726257 966.902161,318.447083 966.902161,11.167948 
	C966.902161,9.204226 966.902161,7.240506 966.902161,5.058496 
	C646.925476,5.058496 327.371277,5.058496 7.089729,5.058496 
	C7.089729,316.018677 7.089729,627.042542 7.044865,938.533203 
	C5.000350,939.000000 3.000699,939.000000 1.000786,939.000000 
	C1.000524,626.388306 1.000524,313.776611 1.000524,1.082459 
	C324.221863,1.082459 647.443787,1.082459 970.832825,1.082459 
	C970.832825,313.666595 970.832825,626.333313 970.832825,939.000000 
	C969.998901,939.000000 968.999451,939.000000 967.500000,939.000000 
z"/>
<path fill="#FDFDFD" opacity="1.000000" stroke="none" 
	d="
M945.052124,65.000015 
	C945.052124,350.440308 945.052124,635.380615 945.052124,920.613403 
	C639.743408,920.613403 334.700073,920.613403 29.302240,920.613403 
	C29.302240,622.872437 29.302240,325.025421 29.302240,26.893101 
	C334.296509,26.893101 639.339844,26.893101 945.052124,26.893101 
	C945.052124,39.315022 945.052124,51.907513 945.052124,65.000015 
M847.500183,48.313156 
	C582.066284,48.313156 316.632416,48.313156 51.005142,48.313156 
	C51.005142,332.093536 51.005142,615.339539 51.005142,898.823120 
	C341.707092,898.823120 632.255554,898.823120 922.808533,898.823120 
	C922.808533,615.276306 922.808533,331.934998 922.808533,48.313160 
	C897.786438,48.313160 873.143372,48.313160 847.500183,48.313156 
z"/>
<path fill="#050403" opacity="1.000000" stroke="none" 
	d="
M848.000244,48.313156 
	C873.143372,48.313160 897.786438,48.313160 922.808533,48.313160 
	C922.808533,331.934998 922.808533,615.276306 922.808533,898.823120 
	C632.255554,898.823120 341.707092,898.823120 51.005142,898.823120 
	C51.005142,615.339539 51.005142,332.093536 51.005142,48.313156 
	C316.632416,48.313156 582.066284,48.313156 848.000244,48.313156 
M72.627090,447.499878 
	C72.627090,590.580444 72.627090,733.660950 72.627090,876.914368 
	C349.111816,876.914368 624.989746,876.914368 901.064575,876.914368 
	C901.064575,607.971191 901.064575,339.285828 901.064575,70.397751 
	C624.882507,70.397751 349.009186,70.397751 72.626900,70.397751 
	C72.626900,195.951248 72.626900,321.225555 72.627090,447.499878 
z"/>
<path fill="#EDAB69" opacity="1.000000" stroke="none" 
	d="
M72.626999,446.999878 
	C72.626900,321.225555 72.626900,195.951248 72.626900,70.397751 
	C349.009186,70.397751 624.882507,70.397751 901.064575,70.397751 
	C901.064575,339.285828 901.064575,607.971191 901.064575,876.914368 
	C624.989746,876.914368 349.111816,876.914368 72.627090,876.914368 
	C72.627090,733.660950 72.627090,590.580444 72.626999,446.999878 
M202.898438,244.190048 
	C202.964615,243.788788 203.030792,243.387512 203.318314,242.072296 
	C203.244766,231.060196 203.171204,220.048080 203.375214,208.281113 
	C203.375214,205.988388 203.375214,203.695648 203.375214,200.969849 
	C210.903687,200.969849 217.838943,200.969849 224.790436,200.969849 
	C224.790436,193.497833 224.790436,186.470001 224.790436,179.055786 
	C217.242264,179.055786 210.099304,179.055786 203.300125,178.167358 
	C203.235458,172.790588 203.170792,167.413834 203.372040,161.448792 
	C202.961517,159.957993 204.857559,156.978790 200.085205,157.437729 
	C192.949203,157.414673 185.812851,157.335968 178.677277,157.380600 
	C165.419403,157.463531 152.161972,157.618393 138.159515,158.239975 
	C138.103180,161.038071 137.893463,163.843491 138.026733,166.632538 
	C138.223175,170.743256 138.663971,174.842316 139.918594,179.151733 
	C160.955963,179.093124 181.993317,179.034515 203.266373,179.888855 
	C203.195663,186.260269 203.124969,192.631668 202.209396,198.998932 
	C191.468231,199.333435 180.726761,199.949326 169.985947,199.938278 
	C152.710114,199.920502 135.434891,199.465271 118.158363,199.318924 
	C117.479889,199.313156 116.790581,200.586639 116.140572,202.167740 
	C116.140572,216.201981 116.140572,230.236237 116.140572,244.517868 
	C118.038383,244.517868 119.473488,244.517868 121.836975,244.717117 
	C144.595291,244.651108 167.353622,244.585098 190.887238,244.728485 
	C192.216461,244.659302 193.545700,244.590134 195.615021,244.709747 
	C196.115891,244.644836 196.616745,244.579941 197.842941,244.722229 
	C199.293610,244.561249 200.744293,244.400253 202.177139,244.343140 
	C202.177139,244.343140 202.278824,244.370819 202.898438,244.190048 
M334.293182,155.726151 
	C334.156372,156.109741 334.019562,156.493317 333.032867,157.268753 
	C319.105591,157.268753 305.178314,157.268753 290.649170,157.268753 
	C290.649170,135.305634 290.649170,113.772728 290.649170,92.287827 
	C283.114929,92.287827 276.191742,92.287827 269.329010,92.287827 
	C269.329010,143.222137 269.329010,193.865875 269.329010,244.375931 
	C276.654755,244.375931 283.552277,244.375931 290.842163,244.375931 
	C290.842163,222.570557 290.842163,201.153366 290.842163,178.974319 
	C305.509766,178.974319 319.773651,178.974319 334.178528,179.903458 
	C334.178528,186.809891 334.178528,193.716309 334.178528,200.961182 
	C341.857361,200.961182 348.941681,200.961182 356.076874,201.902206 
	C356.076874,216.112732 356.076874,230.323257 356.076874,244.414719 
	C363.849152,244.414719 370.756256,244.414719 377.627258,244.414719 
	C377.627258,229.832809 377.627258,215.612061 377.627258,201.055573 
	C370.182129,201.055573 363.056427,201.055573 356.072601,200.118607 
	C356.072601,193.221176 356.072601,186.323730 356.072601,179.056290 
	C348.203674,179.056290 341.080444,179.056290 334.191040,178.136765 
	C334.058929,171.017166 333.926819,163.897583 334.390076,156.979034 
	C334.592316,156.936417 334.794525,156.893814 335.758240,157.244095 
	C337.172211,157.191177 338.586182,157.138260 340.745911,157.318054 
	C343.830322,157.243515 346.914703,157.168961 350.838684,157.317810 
	C352.555511,156.620758 355.850494,159.356552 356.058716,154.077499 
	C356.001862,148.718414 355.945007,143.359344 356.056702,137.364166 
	C356.046326,136.928406 356.035950,136.492661 356.927124,135.789413 
	C363.844666,135.789413 370.762207,135.789413 377.642761,135.789413 
	C377.642761,120.778099 377.642761,106.562592 377.642761,92.401672 
	C370.308777,92.401672 363.284332,92.401672 356.111481,92.401672 
	C356.111481,107.256218 356.111481,121.705414 355.457794,135.785049 
	C354.971741,135.840363 354.485657,135.895676 353.085724,135.732590 
	C347.723724,135.805450 342.361694,135.878311 336.262970,135.751450 
	C335.671814,136.556229 335.080658,137.360992 334.284149,139.053665 
	C334.354675,143.663284 334.425171,148.272919 334.294037,153.628571 
	C334.368225,154.132812 334.442413,154.637054 334.293182,155.726151 
M118.406418,135.698624 
	C117.646683,136.635559 116.269272,137.549164 116.232841,138.513428 
	C116.064285,142.974625 116.268364,147.449921 116.170265,152.626602 
	C116.225258,153.103729 116.280243,153.580856 116.163559,154.736588 
	C115.854782,158.149109 117.942299,157.636688 120.949638,157.328461 
	C126.300453,157.249817 131.651276,157.171173 137.810364,156.725342 
	C137.877136,153.918564 138.102890,151.104416 137.973190,148.306747 
	C137.781998,144.182465 137.337631,140.069931 136.087448,135.728912 
	C130.396713,135.804169 124.705971,135.879410 118.406418,135.698624 
M552.369934,772.381958 
	C552.265076,770.983215 552.160278,769.584412 552.039062,767.967285 
	C537.332581,767.967285 523.202332,767.967285 508.901001,767.047668 
	C508.901001,745.799133 508.901001,724.550537 508.901001,703.061401 
	C494.113739,703.061401 479.892609,703.061401 465.472107,703.061401 
	C465.472107,724.810486 465.472107,746.321655 465.472107,767.869690 
	C480.266449,767.869690 494.720276,767.869690 508.941254,768.713745 
	C508.987305,770.142883 509.033356,771.571960 508.904236,773.924072 
	C508.965118,785.282532 509.026001,796.640930 508.907043,808.854980 
	C508.338806,812.490234 510.924927,811.868469 513.008301,811.869873 
	C525.961060,811.878845 538.913757,811.874329 552.463623,811.874329 
	C552.463623,826.598938 552.463623,840.813965 552.463623,855.154419 
	C559.986938,855.154419 566.903564,855.154419 573.935486,855.154419 
	C573.935486,840.561401 573.935486,826.259460 574.878845,811.889343 
	C589.098328,811.889343 603.317810,811.889343 617.935791,811.889343 
	C617.935791,796.787415 617.935791,782.365417 618.873718,768.071777 
	C632.954834,768.071777 647.035889,768.071777 661.298523,768.071777 
	C661.298523,746.130676 661.298523,724.731567 661.298523,703.074524 
	C646.836914,703.074524 632.622437,703.074524 618.030273,703.074524 
	C618.030273,724.875000 618.030273,746.456299 617.093750,768.106628 
	C602.903503,768.106628 588.713257,768.106628 574.028931,768.106628 
	C574.028931,783.244507 574.028931,797.646301 573.101685,811.895203 
	C566.470581,811.895203 559.839417,811.895203 553.012512,811.895203 
	C552.681824,810.472595 552.391357,809.223267 552.324524,807.062073 
	C552.248413,795.719177 552.172241,784.376221 552.369934,772.381958 
M225.111862,134.142166 
	C225.054733,120.428749 224.997620,106.715324 224.601120,92.202194 
	C195.889557,92.202194 167.177994,92.202194 138.138428,92.202194 
	C138.138428,106.554955 138.135178,120.638565 138.168762,134.722076 
	C138.169281,134.938095 138.625015,135.153046 139.654663,135.640594 
	C155.652039,135.660751 171.649506,135.725403 187.646744,135.686554 
	C199.800476,135.657043 211.953903,135.495880 224.421936,135.605438 
	C224.736923,135.523056 224.844131,135.326935 225.111862,134.142166 
M508.902893,135.112579 
	C508.902893,120.859047 508.902893,106.605522 508.902893,92.350876 
	C486.711121,92.350876 465.180908,92.350876 443.024200,92.350876 
	C443.024200,107.148041 443.024200,121.597290 442.122406,135.755768 
	C435.377502,135.755768 428.632568,135.755768 421.845001,135.755768 
	C421.845001,172.402847 421.845001,208.327240 421.845001,244.470978 
	C429.027466,244.470978 435.924255,244.470978 443.450073,244.470978 
	C443.450073,222.626266 443.450073,201.067535 443.450073,179.469742 
	C465.500031,179.469742 486.917877,179.469742 508.939941,179.469742 
	C508.939941,201.284592 508.939941,222.826141 508.939941,244.419678 
	C516.442505,244.419678 523.334778,244.419678 530.282776,244.419678 
	C530.282776,208.059097 530.282776,172.046295 530.282776,136.056335 
	C522.887085,136.056335 515.922424,136.056335 508.902893,135.112579 
M267.991608,702.894409 
	C261.016205,702.939453 254.040771,702.984436 246.445068,703.587341 
	C246.296707,705.393616 246.022919,707.199646 246.019440,709.006226 
	C245.985504,726.661499 245.890457,744.317932 246.077576,761.971313 
	C246.118912,765.872314 245.054718,767.113831 241.045181,767.086182 
	C216.062393,766.914246 191.076996,766.894775 166.094666,767.095764 
	C161.729065,767.130798 160.882477,765.567078 160.922287,761.616028 
	C161.101868,743.795959 161.030380,725.972961 160.950195,708.151428 
	C160.942551,706.450378 160.247025,704.752563 158.959045,702.908264 
	C144.852173,702.908264 130.745285,702.908264 116.427956,702.908264 
	C116.427956,753.862976 116.427956,804.391724 116.427956,855.049805 
	C130.955261,855.049805 145.182922,855.049805 160.030975,855.049805 
	C160.030975,833.213318 160.030975,811.690186 160.030975,790.334839 
	C189.378784,790.334839 218.102463,790.334839 247.221985,790.334839 
	C247.221985,812.092468 247.221985,833.514099 247.221985,854.963684 
	C254.733337,854.963684 261.845734,854.963684 269.567841,854.398865 
	C269.712555,853.424927 269.983459,852.450989 269.983856,851.476990 
	C270.003845,803.372620 270.009674,755.268311 269.954132,707.164001 
	C269.952545,705.790466 269.271301,704.417786 267.991608,702.894409 
M704.460205,703.586182 
	C704.307007,704.557251 704.020386,705.528198 704.019897,706.499329 
	C703.997009,754.603149 703.989990,802.706909 704.041504,850.810669 
	C704.043030,852.194946 704.695679,853.578491 705.946533,855.221863 
	C756.396484,855.221863 806.846497,855.221863 857.544739,855.221863 
	C857.544739,840.662537 857.544739,826.444458 857.544739,811.809875 
	C813.970276,811.809875 770.715332,811.809875 727.250854,811.809875 
	C727.250854,804.351807 727.250854,797.313660 727.250854,789.831177 
	C756.320129,789.831177 785.060608,789.831177 813.852173,789.831177 
	C813.852173,782.461426 813.852173,775.541748 813.852173,768.143188 
	C784.853943,768.143188 756.121887,768.143188 727.323486,768.143188 
	C727.323486,760.630127 727.323486,753.606323 727.323486,746.108459 
	C770.956970,746.108459 814.192566,746.108459 857.619263,746.108459 
	C857.619263,731.538574 857.619263,717.454956 857.619263,702.821350 
	C855.441895,702.821350 853.494446,702.821289 851.546997,702.821289 
	C809.223511,702.821106 766.899963,702.811462 724.576477,702.830933 
	C718.082764,702.833923 711.589050,702.971313 704.460205,703.586182 
M530.749207,649.091248 
	C530.749207,638.003174 530.749207,626.915100 530.749207,615.975037 
	C538.350586,615.975037 545.235535,615.975037 552.523315,615.975037 
	C552.523315,623.174133 552.523315,629.950745 552.523315,636.872009 
	C618.114380,636.872009 683.282776,636.872009 748.457458,636.872009 
	C748.457458,629.623474 748.457458,622.747131 748.457458,615.260376 
	C690.250305,615.260376 632.407532,615.260376 573.996948,615.260376 
	C573.996948,607.757385 573.996948,600.859192 573.996948,593.648926 
	C566.638000,593.648926 559.849121,593.648926 552.711609,593.648926 
	C552.711609,588.886292 552.711609,584.454285 553.319580,579.689697 
	C554.585083,576.950073 553.181824,572.831787 558.935974,572.861938 
	C605.598511,573.106323 652.263000,573.039856 698.926636,572.943787 
	C702.945496,572.935547 704.089722,574.469727 704.077515,578.270325 
	C704.061768,583.165894 704.656799,588.063477 705.606995,593.524292 
	C706.432129,593.601318 707.257202,593.745483 708.082336,593.745728 
	C756.713257,593.759521 805.344177,593.762756 853.975098,593.755737 
	C855.100403,593.755554 856.225769,593.625854 857.484619,593.548340 
	C857.484619,586.198730 857.484619,579.172485 857.484619,571.771118 
	C813.859314,571.771118 770.617065,571.771118 726.935242,571.771118 
	C726.935242,568.602661 727.047424,565.805481 726.909424,563.020691 
	C726.692322,558.639587 726.306824,554.266846 725.996521,549.156921 
	C725.812866,548.267090 725.629211,547.377258 725.637451,547.417053 
	C723.068726,548.007690 720.917969,548.930237 718.765503,548.934204 
	C672.790344,549.018127 626.815002,548.989685 580.839661,549.032410 
	C578.904602,549.034241 576.969849,549.511292 574.322449,549.359680 
	C574.322449,542.431885 574.322449,535.504150 574.322449,528.024048 
	C669.109192,528.024048 763.321167,528.024048 857.502808,528.024048 
	C857.502808,520.558350 857.502808,513.669800 857.502808,506.163483 
	C762.929871,506.163483 668.727173,506.163483 574.477539,506.163483 
	C574.477539,491.448700 574.477539,477.363525 574.477539,463.193298 
	C610.829163,463.193298 646.887756,463.193298 683.443909,463.193298 
	C683.443909,470.431915 683.443909,477.343689 683.443909,484.314758 
	C741.828552,484.314758 799.713257,484.314758 857.524719,484.314758 
	C857.524719,476.996185 857.524719,470.073486 857.524719,462.680847 
	C806.601562,462.680847 756.022766,462.680847 705.012329,462.680847 
	C705.012329,455.283783 705.012329,448.356049 705.012329,440.845764 
	C661.210938,440.845764 617.841370,440.845764 574.536072,440.845764 
	C574.536072,433.331543 574.536072,426.421143 574.536072,419.368286 
	C654.467651,419.368286 734.048523,419.368286 814.241699,419.368286 
	C814.241699,426.661102 814.241699,433.718292 814.241699,440.638641 
	C829.096069,440.638641 843.335388,440.638641 857.534668,440.638641 
	C857.534668,433.364380 857.534668,426.454498 857.534668,419.096375 
	C850.282043,419.096375 843.358337,419.096375 835.818359,419.096375 
	C835.818359,411.619293 835.818359,404.578186 835.818359,397.036896 
	C748.302002,397.036896 661.416138,397.036896 574.443726,397.036896 
	C574.443726,389.735016 574.443726,382.971283 574.443726,375.614624 
	C668.924500,375.614624 763.150208,375.614624 857.603027,375.614624 
	C857.603027,368.111572 857.603027,361.205872 857.603027,353.810699 
	C755.924316,353.810699 654.512756,353.810699 552.749695,353.810699 
	C552.749695,347.237793 552.749695,341.143433 553.495361,334.733002 
	C556.003601,334.154938 558.511414,333.073669 561.020142,333.071411 
	C656.000122,332.985474 750.980164,332.992462 845.960205,333.026459 
	C849.093689,333.027588 852.228149,333.584839 855.359741,333.561005 
	C856.210266,333.554504 857.051880,332.370453 857.861816,331.332764 
	C857.861816,331.332764 858.058960,330.989746 858.626099,330.385406 
	C859.075073,324.868378 859.620850,319.355865 859.876282,313.829895 
	C859.918274,312.922333 858.683472,311.955750 857.736206,310.612213 
	C857.484009,310.390320 857.231873,310.168457 856.847168,309.219727 
	C853.884277,309.146484 850.921448,309.009552 847.958557,309.009247 
	C745.972107,308.998077 643.985718,309.000183 541.999268,308.998932 
	C533.620544,308.998840 533.621887,308.993683 531.323547,301.351257 
	C531.282410,301.214539 531.086914,301.124268 530.747498,300.100769 
	C530.747498,296.314117 530.747498,292.527466 530.747498,288.179291 
	C639.966614,288.179291 748.670837,288.179291 857.565613,288.179291 
	C857.565613,280.720184 857.565613,273.834045 857.565613,266.729065 
	C632.217590,266.729065 407.180267,266.729065 181.628098,266.729065 
	C181.628098,273.926117 181.628098,280.856750 181.628098,288.272217 
	C174.200272,288.272217 167.277237,288.272217 159.732590,288.272217 
	C159.732590,295.801727 159.732590,302.849457 159.732590,310.298584 
	C152.172638,310.298584 145.243713,310.298584 137.841064,310.298584 
	C137.841064,324.965881 137.841064,339.205566 137.841064,353.898438 
	C130.440247,353.898438 123.521141,353.898438 116.508308,353.898438 
	C116.508308,434.051575 116.508308,513.737488 116.508308,593.891113 
	C123.792397,593.891113 130.710297,593.891113 138.161926,593.891113 
	C138.161926,608.580688 138.161926,622.811218 138.161926,637.476807 
	C145.642761,637.476807 152.573242,637.476807 159.954346,637.476807 
	C159.954346,644.837097 159.954346,651.753540 159.954346,659.147705 
	C167.322998,659.147705 174.233887,659.147705 182.012070,659.147705 
	C182.012070,666.740479 182.012070,673.852966 182.013031,681.712402 
	C182.885971,682.229370 183.776306,683.220764 184.629181,683.189514 
	C192.748047,682.891968 200.860443,682.055847 208.974915,682.053284 
	C421.302429,681.986023 633.630005,681.997192 845.957520,682.027283 
	C849.091553,682.027771 852.226807,682.584961 855.358887,682.560547 
	C856.210144,682.553894 857.052185,681.370361 857.862183,680.332947 
	C857.862183,680.332947 858.059937,679.990112 858.626526,679.385132 
	C859.075317,673.868347 859.620972,668.356018 859.876343,662.830322 
	C859.918335,661.922485 858.684082,660.955566 857.736389,659.612244 
	C857.484131,659.390381 857.231934,659.168518 856.847229,658.219788 
	C853.884338,658.146545 850.921387,658.009521 847.958496,658.009216 
	C745.971191,657.998108 643.983826,658.000305 541.996521,657.999268 
	C533.618713,657.999207 533.619995,657.994446 531.324585,650.348022 
	C531.283569,650.211304 531.088074,650.120911 530.749207,649.091248 
M770.656128,199.391739 
	C770.656128,192.794235 770.656128,186.196732 770.656128,179.143951 
	C792.724976,179.143951 814.134949,179.143951 835.766907,179.143951 
	C835.766907,171.755173 835.766907,164.839981 835.766907,157.278854 
	C814.022583,157.278854 792.481323,157.278854 771.020752,157.278854 
	C771.020752,149.742218 771.020752,142.857559 771.020752,135.442413 
	C800.154053,135.442413 828.885437,135.442413 857.465942,135.442413 
	C857.465942,120.660240 857.465942,106.427490 857.465942,92.294952 
	C813.818237,92.294952 770.565369,92.294952 727.223145,92.294952 
	C727.223145,143.153748 727.223145,193.721054 727.223145,244.373459 
	C770.861145,244.373459 814.227966,244.373459 857.478394,244.373459 
	C857.478394,229.747284 857.478394,215.511551 857.478394,201.068192 
	C830.272888,201.068192 803.455383,201.082764 776.637939,201.037659 
	C774.706177,201.034409 772.775269,200.595734 770.656128,199.391739 
M421.617462,741.289368 
	C421.617462,728.557739 421.617462,715.826050 421.617462,703.026855 
	C384.871155,703.026855 348.939331,703.026855 312.786163,703.026855 
	C312.786163,717.458130 312.786163,731.679871 312.786163,746.455933 
	C327.339996,746.455933 341.577240,746.455933 355.690765,746.455933 
	C355.690765,768.559265 355.690765,790.104431 355.690765,811.984741 
	C341.183777,811.984741 327.077209,811.984741 312.816467,811.984741 
	C312.816467,826.540039 312.816467,840.751831 312.816467,854.964233 
	C349.197693,854.964233 385.218567,854.964233 421.340942,854.964233 
	C421.340942,840.472351 421.340942,826.386658 421.340942,811.827515 
	C414.145050,811.827515 407.224487,811.827515 400.143890,811.827515 
	C400.143890,789.814819 400.143890,768.278809 400.143890,746.301208 
	C406.255188,746.301208 412.058868,746.142578 417.848083,746.363525 
	C421.086090,746.487061 421.999115,745.108154 421.617462,741.289368 
M577.499939,135.704300 
	C590.790100,135.704300 604.080200,135.704300 617.948853,135.704300 
	C617.948853,172.240173 617.948853,208.288162 617.948853,244.463470 
	C625.441101,244.463470 632.345215,244.463470 639.847595,244.463470 
	C639.847595,208.123825 639.847595,172.078705 639.847595,135.566238 
	C661.862183,135.566238 683.280640,135.566238 704.795227,135.566238 
	C704.795227,120.851143 704.795227,106.612602 704.795227,92.290329 
	C653.943481,92.290329 603.385315,92.290329 552.742126,92.290329 
	C552.742126,106.808395 552.742126,121.035072 552.742126,135.704178 
	C560.900391,135.704178 568.700195,135.704178 577.499939,135.704300 
z"/>
<path fill="#040302" opacity="1.000000" stroke="none" 
	d="
M858.058960,330.989746 
	C858.058960,330.989746 857.861816,331.332764 857.422729,331.600830 
	C855.151489,331.894592 853.319275,331.942719 851.487061,331.942780 
	C753.841919,331.946259 656.196838,331.945648 558.551697,331.946106 
	C557.218811,331.946106 555.696777,331.560486 554.611938,332.081421 
	C553.721558,332.509033 553.350769,334.018921 552.749695,335.049072 
	C552.749695,341.143433 552.749695,347.237793 552.749695,353.810699 
	C654.512756,353.810699 755.924316,353.810699 857.603027,353.810699 
	C857.603027,361.205872 857.603027,368.111572 857.603027,375.614624 
	C763.150208,375.614624 668.924500,375.614624 574.443726,375.614624 
	C574.443726,382.971283 574.443726,389.735016 574.443726,397.036896 
	C661.416138,397.036896 748.302002,397.036896 835.818359,397.036896 
	C835.818359,404.578186 835.818359,411.619293 835.818359,419.096375 
	C843.358337,419.096375 850.282043,419.096375 857.534668,419.096375 
	C857.534668,426.454498 857.534668,433.364380 857.534668,440.638641 
	C843.335388,440.638641 829.096069,440.638641 814.241699,440.638641 
	C814.241699,433.718292 814.241699,426.661102 814.241699,419.368286 
	C734.048523,419.368286 654.467651,419.368286 574.536072,419.368286 
	C574.536072,426.421143 574.536072,433.331543 574.536072,440.845764 
	C617.841370,440.845764 661.210938,440.845764 705.012329,440.845764 
	C705.012329,448.356049 705.012329,455.283783 705.012329,462.680847 
	C756.022766,462.680847 806.601562,462.680847 857.524719,462.680847 
	C857.524719,470.073486 857.524719,476.996185 857.524719,484.314758 
	C799.713257,484.314758 741.828552,484.314758 683.443909,484.314758 
	C683.443909,477.343689 683.443909,470.431915 683.443909,463.193298 
	C646.887756,463.193298 610.829163,463.193298 574.477539,463.193298 
	C574.477539,477.363525 574.477539,491.448700 574.477539,506.163483 
	C668.727173,506.163483 762.929871,506.163483 857.502808,506.163483 
	C857.502808,513.669800 857.502808,520.558350 857.502808,528.024048 
	C763.321167,528.024048 669.109192,528.024048 574.322449,528.024048 
	C574.322449,535.504150 574.322449,542.431885 575.131042,549.687134 
	C601.365784,550.027588 626.791931,550.066895 652.218079,550.046326 
	C676.809570,550.026428 701.401123,549.944946 725.992615,549.890564 
	C726.306824,554.266846 726.692322,558.639587 726.909424,563.020691 
	C727.047424,565.805481 726.935242,568.602661 726.935242,571.771118 
	C770.617065,571.771118 813.859314,571.771118 857.484619,571.771118 
	C857.484619,579.172485 857.484619,586.198730 857.484619,593.548340 
	C856.225769,593.625854 855.100403,593.755554 853.975098,593.755737 
	C805.344177,593.762756 756.713257,593.759521 708.082336,593.745728 
	C707.257202,593.745483 706.432129,593.601318 705.352356,592.780945 
	C705.097717,585.442993 705.097717,578.848389 705.097717,572.272095 
	C653.895386,572.272095 603.273376,572.272095 552.235413,572.272095 
	C552.410583,575.123352 552.561096,577.572754 552.711609,580.022217 
	C552.711609,584.454285 552.711609,588.886292 552.711609,593.648926 
	C559.849121,593.648926 566.638000,593.648926 573.996948,593.648926 
	C573.996948,600.859192 573.996948,607.757385 573.996948,615.260376 
	C632.407532,615.260376 690.250305,615.260376 748.457458,615.260376 
	C748.457458,622.747131 748.457458,629.623474 748.457458,636.872009 
	C683.282776,636.872009 618.114380,636.872009 552.523315,636.872009 
	C552.523315,629.950745 552.523315,623.174133 552.523315,615.975037 
	C545.235535,615.975037 538.350586,615.975037 530.749207,615.975037 
	C530.749207,626.915100 530.749207,638.003174 530.751709,650.001587 
	C530.754211,653.514771 530.754211,656.117554 530.754211,659.088013 
	C532.939331,659.088013 534.574890,659.088074 536.210510,659.088013 
	C641.637512,659.086853 747.064575,659.086182 852.491577,659.078674 
	C853.987610,659.078552 855.483643,658.992554 856.979675,658.946655 
	C857.231934,659.168518 857.484131,659.390381 857.814941,660.275879 
	C857.948975,667.289734 858.004456,673.639893 858.059937,679.990112 
	C858.059937,679.990112 857.862183,680.332947 857.423401,680.601440 
	C854.818787,680.895630 852.652893,680.943848 850.487061,680.943970 
	C627.662048,680.953430 404.837067,680.959351 182.012070,680.965393 
	C182.012070,673.852966 182.012070,666.740479 182.012070,659.147705 
	C174.233887,659.147705 167.322998,659.147705 159.954346,659.147705 
	C159.954346,651.753540 159.954346,644.837097 159.954346,637.476807 
	C152.573242,637.476807 145.642761,637.476807 138.161926,637.476807 
	C138.161926,622.811218 138.161926,608.580688 138.161926,593.891113 
	C130.710297,593.891113 123.792397,593.891113 116.508308,593.891113 
	C116.508308,513.737488 116.508308,434.051575 116.508308,353.898438 
	C123.521141,353.898438 130.440247,353.898438 137.841064,353.898438 
	C137.841064,339.205566 137.841064,324.965881 137.841064,310.298584 
	C145.243713,310.298584 152.172638,310.298584 159.732590,310.298584 
	C159.732590,302.849457 159.732590,295.801727 159.732590,288.272217 
	C167.277237,288.272217 174.200272,288.272217 181.628098,288.272217 
	C181.628098,280.856750 181.628098,273.926117 181.628098,266.729065 
	C407.180267,266.729065 632.217590,266.729065 857.565613,266.729065 
	C857.565613,273.834045 857.565613,280.720184 857.565613,288.179291 
	C748.670837,288.179291 639.966614,288.179291 530.747498,288.179291 
	C530.747498,292.527466 530.747498,296.314117 530.750488,301.007690 
	C530.753479,304.517120 530.753479,307.119568 530.753479,310.087982 
	C532.941528,310.087982 534.577271,310.087982 536.213013,310.087952 
	C641.639221,310.086761 747.065430,310.086121 852.491638,310.078613 
	C853.987671,310.078522 855.483643,309.992493 856.979675,309.946594 
	C857.231873,310.168457 857.484009,310.390320 857.814331,311.276031 
	C857.947937,318.289825 858.003479,324.639771 858.058960,330.989746 
M312.907990,353.911987 
	C319.843353,353.911987 326.778717,353.911987 333.819031,353.911987 
	C333.819031,346.237793 333.819031,339.225922 333.819031,332.302582 
	C326.516235,332.302582 319.634094,332.302582 312.060303,332.302582 
	C312.060303,339.787048 312.060303,346.904755 311.120483,353.886230 
	C304.520782,353.886230 297.921112,353.886230 291.097046,353.886230 
	C291.097046,361.291199 291.097046,368.168335 291.097046,375.581665 
	C297.511963,375.581665 303.640289,375.724243 309.748230,375.435577 
	C310.720398,375.389618 312.379791,373.416504 312.394775,372.316223 
	C312.478180,366.192261 312.152618,360.062744 312.907990,353.911987 
M247.032089,637.905518 
	C247.032089,644.819763 247.032089,651.734070 247.032089,658.688110 
	C254.637283,658.688110 261.642731,658.688110 268.588135,658.688110 
	C268.588135,651.401672 268.588135,644.522034 268.588135,637.032166 
	C261.160736,637.032166 254.063446,637.032166 247.035706,636.093079 
	C247.035706,622.063660 247.035706,608.034241 247.035706,593.491577 
	C239.336197,593.491577 232.438461,593.491577 225.157974,593.491577 
	C225.157974,586.018433 225.157974,579.067566 226.065323,571.969421 
	C240.338669,572.007568 254.612030,572.045715 268.911469,573.009949 
	C268.911469,587.068542 268.911469,601.127136 268.911469,615.752686 
	C276.489380,615.752686 283.388031,615.752686 290.928589,615.752686 
	C290.928589,623.182190 290.928589,630.057617 290.928589,636.813354 
	C298.476471,636.813354 305.350342,636.813354 312.299988,636.813354 
	C312.299988,622.344543 312.299988,608.284668 312.299988,593.687500 
	C305.083710,593.687500 298.171326,593.687500 290.543060,593.687500 
	C290.543060,586.046204 290.543060,578.934143 290.715576,570.923279 
	C290.715576,505.978394 290.715576,441.033478 290.715576,375.858398 
	C283.311432,375.858398 276.383209,375.858398 268.940002,375.858398 
	C268.940002,390.218018 268.940002,404.455872 268.940002,418.793213 
	C261.380920,418.793213 254.340622,418.793213 246.933289,418.793213 
	C246.933289,404.310791 246.933289,390.171326 247.077255,375.100067 
	C247.077255,368.161957 247.077255,361.223846 247.077255,353.799805 
	C254.538971,353.799805 261.451782,353.799805 269.009613,353.799805 
	C269.009613,346.287323 269.009613,339.250732 269.009613,331.749908 
	C276.571014,331.749908 283.476288,331.749908 290.887756,331.749908 
	C290.887756,324.361298 290.887756,317.457855 290.887756,309.963104 
	C298.290955,309.963104 305.190308,309.963104 311.994202,309.963104 
	C311.994202,302.454315 311.994202,295.558777 311.994202,288.493896 
	C297.541107,288.493896 283.482117,288.493896 268.761963,288.493896 
	C268.761963,295.804779 268.761963,302.843811 268.761963,310.326660 
	C261.188629,310.326660 254.272873,310.326660 246.906616,310.326660 
	C246.906616,317.713409 246.906616,324.627289 246.906616,331.992523 
	C239.531830,331.992523 232.619797,331.992523 225.161346,331.992523 
	C225.161346,337.560181 225.221176,342.674042 225.148315,347.785980 
	C225.015793,357.082367 224.804398,366.377655 223.737350,375.634399 
	C217.117218,375.634399 210.497086,375.634399 203.359344,375.634399 
	C203.359344,383.041656 203.359344,389.954620 203.359344,397.326050 
	C195.887833,397.326050 188.936600,397.326050 181.778900,396.363403 
	C181.778900,382.293457 181.778900,368.223511 181.778900,353.682495 
	C189.286972,353.682495 196.047211,353.682495 202.934402,353.682495 
	C202.934402,338.765015 202.934402,324.327728 203.876221,310.032959 
	C210.811813,310.032959 217.747421,310.032959 224.727661,310.032959 
	C224.727661,302.512512 224.727661,295.505615 224.727661,288.196289 
	C218.651703,288.196289 213.007538,288.373718 207.381531,288.130676 
	C203.929398,287.981506 203.184677,289.429718 203.245438,292.538055 
	C203.358917,298.345276 203.106445,304.159668 202.072189,310.064392 
	C195.459457,310.064392 188.846741,310.064392 181.725250,310.064392 
	C181.725250,317.585663 181.725250,324.500458 181.725250,332.062500 
	C174.182266,332.062500 167.135590,332.062500 159.572937,332.062500 
	C159.572937,346.934601 159.572937,361.151001 159.572937,375.909180 
	C152.133835,375.909180 145.235519,375.909180 138.338913,375.909180 
	C138.338913,441.487274 138.338913,506.506104 138.338913,571.610474 
	C145.578506,571.610474 152.482193,571.610474 159.884811,571.610474 
	C159.884811,564.408508 159.884811,557.493103 159.884811,550.374023 
	C167.484650,550.374023 174.586395,550.374023 181.690277,551.263306 
	C181.690277,558.004272 181.690277,564.745178 181.690277,571.972961 
	C189.189865,571.972961 196.115753,571.972961 203.264465,572.892578 
	C203.264465,586.849121 203.264465,600.805664 203.264465,615.346741 
	C210.785828,615.346741 217.703049,615.346741 225.163498,615.346741 
	C225.163498,622.833496 225.163498,629.743408 225.163498,636.963562 
	C232.822708,636.963562 239.931076,636.963562 247.032089,637.905518 
M552.387085,418.500336 
	C552.387085,411.567169 552.387085,404.634003 552.387085,397.225281 
	C544.825806,397.225281 537.916931,397.225281 530.495117,397.225281 
	C530.495117,382.516754 530.495117,368.295471 530.495117,353.664612 
	C523.038513,353.664612 516.101257,353.664612 508.750854,353.664612 
	C508.750854,338.989777 508.750854,324.734497 508.750854,310.061890 
	C494.072937,310.061890 479.822021,310.061890 465.005219,310.061890 
	C465.005219,302.602844 465.005219,295.559113 465.005219,288.482239 
	C450.332153,288.482239 436.235046,288.482239 421.536713,288.482239 
	C421.536713,295.756378 421.536713,302.816132 421.536713,310.272919 
	C406.682861,310.272919 392.427704,310.272919 377.847412,310.272919 
	C377.847412,317.637756 377.847412,324.578064 377.847412,332.028198 
	C370.468353,332.028198 363.410370,332.028198 355.931458,332.028198 
	C355.931458,346.783051 355.931458,361.021545 355.931458,375.690613 
	C348.570587,375.690613 341.638519,375.690613 334.260132,375.690613 
	C334.260132,383.037659 334.260132,389.953430 334.260132,397.333618 
	C326.892029,397.333618 319.973724,397.333618 312.787842,397.333618 
	C312.787842,455.698090 312.787842,513.586975 312.787842,572.065552 
	C320.061737,572.065552 327.120148,572.065552 334.463318,572.065552 
	C334.463318,586.774780 334.463318,600.895813 334.463318,615.635925 
	C341.812622,615.635925 348.858459,615.635925 356.299316,615.635925 
	C356.299316,623.189209 356.299316,630.123352 356.299316,637.378174 
	C378.165466,637.378174 399.606140,637.378174 421.645203,637.378174 
	C421.645203,644.748047 421.645203,651.789795 421.645203,658.717041 
	C443.794586,658.717041 465.338470,658.717041 487.246155,658.717041 
	C487.246155,651.420288 487.246155,644.495056 487.246155,637.187012 
	C494.537415,637.187012 501.468811,637.187012 508.888672,637.187012 
	C508.888672,622.565430 508.888672,608.330139 508.888672,593.682617 
	C516.295837,593.682617 523.215454,593.682617 530.592529,593.682617 
	C530.592529,579.023743 530.592529,564.776367 530.592529,549.998901 
	C538.124634,549.998901 545.201660,549.998901 552.387085,549.998901 
	C552.387085,506.140900 552.387085,462.820587 552.387085,418.500336 
M166.554626,593.781677 
	C164.463943,593.781677 162.373260,593.781677 160.140778,593.781677 
	C160.140778,601.318481 160.140778,608.196899 160.140778,615.168335 
	C167.424301,615.168335 174.424622,615.168335 181.337524,615.168335 
	C181.337524,607.836731 181.337524,600.974060 181.337524,593.780823 
	C176.467484,593.780823 172.005249,593.780823 166.554626,593.781677 
z"/>
<path fill="#020101" opacity="1.000000" stroke="none" 
	d="
M705.095337,703.046570 
	C711.589050,702.971313 718.082764,702.833923 724.576477,702.830933 
	C766.899963,702.811462 809.223511,702.821106 851.546997,702.821289 
	C853.494446,702.821289 855.441895,702.821350 857.619263,702.821350 
	C857.619263,717.454956 857.619263,731.538574 857.619263,746.108459 
	C814.192566,746.108459 770.956970,746.108459 727.323486,746.108459 
	C727.323486,753.606323 727.323486,760.630127 727.323486,768.143188 
	C756.121887,768.143188 784.853943,768.143188 813.852173,768.143188 
	C813.852173,775.541748 813.852173,782.461426 813.852173,789.831177 
	C785.060608,789.831177 756.320129,789.831177 727.250854,789.831177 
	C727.250854,797.313660 727.250854,804.351807 727.250854,811.809875 
	C770.715332,811.809875 813.970276,811.809875 857.544739,811.809875 
	C857.544739,826.444458 857.544739,840.662537 857.544739,855.221863 
	C806.846497,855.221863 756.396484,855.221863 705.519897,854.627686 
	C705.093933,803.704529 705.094604,753.375549 705.095337,703.046570 
z"/>
<path fill="#030201" opacity="1.000000" stroke="none" 
	d="
M770.750000,199.875626 
	C772.775269,200.595734 774.706177,201.034409 776.637939,201.037659 
	C803.455383,201.082764 830.272888,201.068192 857.478394,201.068192 
	C857.478394,215.511551 857.478394,229.747284 857.478394,244.373459 
	C814.227966,244.373459 770.861145,244.373459 727.223145,244.373459 
	C727.223145,193.721054 727.223145,143.153748 727.223145,92.294952 
	C770.565369,92.294952 813.818237,92.294952 857.465942,92.294952 
	C857.465942,106.427490 857.465942,120.660240 857.465942,135.442413 
	C828.885437,135.442413 800.154053,135.442413 771.020752,135.442413 
	C771.020752,142.857559 771.020752,149.742218 771.020752,157.278854 
	C792.481323,157.278854 814.022583,157.278854 835.766907,157.278854 
	C835.766907,164.839981 835.766907,171.755173 835.766907,179.143951 
	C814.134949,179.143951 792.724976,179.143951 770.656128,179.143951 
	C770.656128,186.196732 770.656128,192.794235 770.750000,199.875626 
z"/>
<path fill="#020201" opacity="1.000000" stroke="none" 
	d="
M421.617737,741.762695 
	C421.999115,745.108154 421.086090,746.487061 417.848083,746.363525 
	C412.058868,746.142578 406.255188,746.301208 400.143890,746.301208 
	C400.143890,768.278809 400.143890,789.814819 400.143890,811.827515 
	C407.224487,811.827515 414.145050,811.827515 421.340942,811.827515 
	C421.340942,826.386658 421.340942,840.472351 421.340942,854.964233 
	C385.218567,854.964233 349.197693,854.964233 312.816467,854.964233 
	C312.816467,840.751831 312.816467,826.540039 312.816467,811.984741 
	C327.077209,811.984741 341.183777,811.984741 355.690765,811.984741 
	C355.690765,790.104431 355.690765,768.559265 355.690765,746.455933 
	C341.577240,746.455933 327.339996,746.455933 312.786163,746.455933 
	C312.786163,731.679871 312.786163,717.458130 312.786163,703.026855 
	C348.939331,703.026855 384.871155,703.026855 421.617462,703.026855 
	C421.617462,715.826050 421.617462,728.557739 421.617737,741.762695 
z"/>
<path fill="#030201" opacity="1.000000" stroke="none" 
	d="
M247.065353,703.029480 
	C254.040771,702.984436 261.016205,702.939453 268.451050,703.434326 
	C268.926361,754.304077 268.942230,804.633911 268.958099,854.963684 
	C261.845734,854.963684 254.733337,854.963684 247.221985,854.963684 
	C247.221985,833.514099 247.221985,812.092468 247.221985,790.334839 
	C218.102463,790.334839 189.378784,790.334839 160.030975,790.334839 
	C160.030975,811.690186 160.030975,833.213318 160.030975,855.049805 
	C145.182922,855.049805 130.955261,855.049805 116.427956,855.049805 
	C116.427956,804.391724 116.427956,753.862976 116.427956,702.908264 
	C130.745285,702.908264 144.852173,702.908264 159.414246,703.444946 
	C159.869446,725.223450 159.869446,746.465210 159.869446,767.759644 
	C189.215149,767.759644 218.030777,767.759644 247.065353,767.759644 
	C247.065353,745.929199 247.065353,724.479370 247.065353,703.029480 
z"/>
<path fill="#040202" opacity="1.000000" stroke="none" 
	d="
M576.999939,135.704239 
	C568.700195,135.704178 560.900391,135.704178 552.742126,135.704178 
	C552.742126,121.035072 552.742126,106.808395 552.742126,92.290329 
	C603.385315,92.290329 653.943481,92.290329 704.795227,92.290329 
	C704.795227,106.612602 704.795227,120.851143 704.795227,135.566238 
	C683.280640,135.566238 661.862183,135.566238 639.847595,135.566238 
	C639.847595,172.078705 639.847595,208.123825 639.847595,244.463470 
	C632.345215,244.463470 625.441101,244.463470 617.948853,244.463470 
	C617.948853,208.288162 617.948853,172.240173 617.948853,135.704300 
	C604.080200,135.704300 590.790100,135.704300 576.999939,135.704239 
z"/>
<path fill="#040302" opacity="1.000000" stroke="none" 
	d="
M508.957733,136.056335 
	C515.922424,136.056335 522.887085,136.056335 530.282776,136.056335 
	C530.282776,172.046295 530.282776,208.059097 530.282776,244.419678 
	C523.334778,244.419678 516.442505,244.419678 508.939941,244.419678 
	C508.939941,222.826141 508.939941,201.284592 508.939941,179.469742 
	C486.917877,179.469742 465.500031,179.469742 443.450073,179.469742 
	C443.450073,201.067535 443.450073,222.626266 443.450073,244.470978 
	C435.924255,244.470978 429.027466,244.470978 421.845001,244.470978 
	C421.845001,208.327240 421.845001,172.402847 421.845001,135.755768 
	C428.632568,135.755768 435.377502,135.755768 442.556396,135.879410 
	C442.990387,136.003052 442.947357,135.968658 443.093536,136.419662 
	C443.239716,143.599060 443.239716,150.327454 443.239716,157.091217 
	C465.574158,157.091217 486.973145,157.091217 509.048737,157.091217 
	C509.048737,149.863464 509.048737,142.914795 509.024109,135.986786 
	C508.999451,136.007431 508.957733,136.056335 508.957733,136.056335 
z"/>
<path fill="#050302" opacity="1.000000" stroke="none" 
	d="
M333.794739,156.777985 
	C333.926819,163.897583 334.058929,171.017166 334.097046,178.578583 
	C334.003052,179.020386 334.037537,178.974319 334.037537,178.974319 
	C319.773651,178.974319 305.509766,178.974319 290.842163,178.974319 
	C290.842163,201.153366 290.842163,222.570557 290.842163,244.375931 
	C283.552277,244.375931 276.654755,244.375931 269.329010,244.375931 
	C269.329010,193.865875 269.329010,143.222137 269.329010,92.287827 
	C276.191742,92.287827 283.114929,92.287827 290.649170,92.287827 
	C290.649170,113.772728 290.649170,135.305634 290.649170,157.268753 
	C305.178314,157.268753 319.105591,157.268753 333.438721,157.049118 
	C333.844543,156.829483 333.794739,156.777985 333.794739,156.777985 
z"/>
<path fill="#030201" opacity="1.000000" stroke="none" 
	d="
M224.107468,135.393280 
	C211.953903,135.495880 199.800476,135.657043 187.646744,135.686554 
	C171.649506,135.725403 155.652039,135.660751 139.299728,135.010086 
	C138.963623,122.395378 139.194916,110.405815 138.892181,98.429741 
	C138.778000,93.912758 140.227203,92.875275 144.545212,92.905853 
	C171.342514,93.095627 198.141846,93.001694 224.940491,93.001907 
	C224.997620,106.715324 225.054733,120.428749 224.806091,134.613480 
	C224.340561,135.150955 224.209610,135.253784 224.107468,135.393280 
z"/>
<path fill="#040302" opacity="1.000000" stroke="none" 
	d="
M190.111938,244.519089 
	C167.353622,244.585098 144.595291,244.651108 121.180466,244.383194 
	C119.371216,243.612686 118.218460,243.176102 117.009499,242.718231 
	C117.009499,231.029709 117.208664,219.403732 116.913109,207.790344 
	C116.792091,203.035065 118.571045,201.886032 123.019600,201.921295 
	C145.600403,202.100342 168.186325,202.203384 190.763626,201.870209 
	C196.778168,201.781448 201.049545,203.074890 203.097656,209.035980 
	C203.171204,220.048080 203.244766,231.060196 202.959030,242.681183 
	C202.492767,243.650314 202.385788,244.010559 202.278824,244.370819 
	C202.278824,244.370819 202.177139,244.343140 201.812866,244.212692 
	C200.004929,244.226517 198.561279,244.370789 197.117615,244.515045 
	C196.616745,244.579941 196.115891,244.644836 194.981262,244.449524 
	C192.935654,244.299225 191.523788,244.409149 190.111938,244.519089 
z"/>
<path fill="#050302" opacity="1.000000" stroke="none" 
	d="
M443.007294,136.024796 
	C443.024200,121.597290 443.024200,107.148041 443.024200,92.350876 
	C465.180908,92.350876 486.711121,92.350876 508.902893,92.350876 
	C508.902893,106.605522 508.902893,120.859047 508.930298,135.584457 
	C508.957733,136.056335 508.999451,136.007431 508.561523,135.883789 
	C486.398193,135.829651 464.672760,135.899155 442.947357,135.968658 
	C442.947357,135.968658 442.990387,136.003052 443.007294,136.024796 
z"/>
<path fill="#030201" opacity="1.000000" stroke="none" 
	d="
M509.174072,767.869690 
	C494.720276,767.869690 480.266449,767.869690 465.472107,767.869690 
	C465.472107,746.321655 465.472107,724.810486 465.472107,703.061401 
	C479.892609,703.061401 494.113739,703.061401 508.901001,703.061401 
	C508.901001,724.550537 508.901001,745.799133 509.011963,767.485107 
	C509.122955,767.922485 509.174072,767.869690 509.174072,767.869690 
z"/>
<path fill="#030202" opacity="1.000000" stroke="none" 
	d="
M618.030273,768.037537 
	C618.030273,746.456299 618.030273,724.875000 618.030273,703.074524 
	C632.622437,703.074524 646.836914,703.074524 661.298523,703.074524 
	C661.298523,724.731567 661.298523,746.130676 661.298523,768.071777 
	C647.035889,768.071777 632.954834,768.071777 618.426270,768.033203 
	C617.978821,767.994690 618.030273,768.037537 618.030273,768.037537 
z"/>
<path fill="#060302" opacity="1.000000" stroke="none" 
	d="
M617.957275,767.968994 
	C617.935791,782.365417 617.935791,796.787415 617.935791,811.889343 
	C603.317810,811.889343 589.098328,811.889343 574.431702,811.945190 
	C573.984558,812.000977 574.028931,812.048096 574.028931,812.048096 
	C574.028931,797.646301 574.028931,783.244507 574.028931,768.106628 
	C588.713257,768.106628 602.903503,768.106628 617.562012,768.072083 
	C618.030273,768.037537 617.978821,767.994690 617.957275,767.968994 
z"/>
<path fill="#040201" opacity="1.000000" stroke="none" 
	d="
M509.086853,807.999390 
	C509.026001,796.640930 508.965118,785.282532 509.383789,773.461182 
	C511.209717,772.296570 512.583313,771.641479 513.892944,770.876892 
	C514.783752,770.356812 515.575562,769.172913 516.427612,769.157227 
	C524.829285,769.001953 533.240662,769.213196 541.635925,768.927979 
	C545.879272,768.783752 549.688782,768.890747 552.096130,773.033325 
	C552.172241,784.376221 552.248413,795.719177 551.828674,807.484863 
	C549.489258,807.594055 547.645630,807.280396 545.330383,806.886536 
	C545.850525,808.589417 546.142029,809.543640 546.585388,810.995117 
	C536.939270,810.995117 527.782349,810.881470 518.630676,811.051331 
	C515.001221,811.118652 511.619110,811.064331 509.086853,807.999390 
z"/>
<path fill="#060403" opacity="1.000000" stroke="none" 
	d="
M203.106140,162.037064 
	C203.170792,167.413834 203.235458,172.790588 203.150024,178.594238 
	C202.999939,179.021133 203.030685,178.975906 203.030685,178.975906 
	C181.993317,179.034515 160.955963,179.093124 139.459702,178.584137 
	C138.968658,171.258804 138.936508,164.501053 138.904358,157.743301 
	C152.161972,157.618393 165.419403,157.463531 178.677277,157.380600 
	C185.812851,157.335968 192.949203,157.414673 200.538254,157.908127 
	C201.696243,159.598038 202.401184,160.817551 203.106140,162.037064 
z"/>
<path fill="#060403" opacity="1.000000" stroke="none" 
	d="
M508.996948,808.427185 
	C511.619110,811.064331 515.001221,811.118652 518.630676,811.051331 
	C527.782349,810.881470 536.939270,810.995117 546.585388,810.995117 
	C546.142029,809.543640 545.850525,808.589417 545.330383,806.886536 
	C547.645630,807.280396 549.489258,807.594055 551.716919,807.940796 
	C552.391357,809.223267 552.681824,810.472595 553.012512,811.895203 
	C559.839417,811.895203 566.470581,811.895203 573.565308,811.971680 
	C574.028931,812.048096 573.984558,812.000977 573.960022,811.979248 
	C573.935486,826.259460 573.935486,840.561401 573.935486,855.154419 
	C566.903564,855.154419 559.986938,855.154419 552.463623,855.154419 
	C552.463623,840.813965 552.463623,826.598938 552.463623,811.874329 
	C538.913757,811.874329 525.961060,811.878845 513.008301,811.869873 
	C510.924927,811.868469 508.338806,812.490234 508.996948,808.427185 
z"/>
<path fill="#080403" opacity="1.000000" stroke="none" 
	d="
M355.930695,201.055573 
	C363.056427,201.055573 370.182129,201.055573 377.627258,201.055573 
	C377.627258,215.612061 377.627258,229.832809 377.627258,244.414719 
	C370.756256,244.414719 363.849152,244.414719 356.076874,244.414719 
	C356.076874,230.323257 356.076874,216.112732 356.027710,201.455414 
	C355.978577,201.008621 355.930695,201.055573 355.930695,201.055573 
z"/>
<path fill="#070402" opacity="1.000000" stroke="none" 
	d="
M356.111481,136.154602 
	C356.111481,121.705414 356.111481,107.256218 356.111481,92.401672 
	C363.284332,92.401672 370.308777,92.401672 377.642761,92.401672 
	C377.642761,106.562592 377.642761,120.778099 377.642761,135.789413 
	C370.762207,135.789413 363.844666,135.789413 356.499817,135.944290 
	C356.072479,136.099167 356.111481,136.154602 356.111481,136.154602 
z"/>
<path fill="#E6B17A" opacity="1.000000" stroke="none" 
	d="
M182.012543,681.338867 
	C404.837067,680.959351 627.662048,680.953430 850.487061,680.943970 
	C852.652893,680.943848 854.818787,680.895630 857.441528,680.798462 
	C857.052185,681.370361 856.210144,682.553894 855.358887,682.560547 
	C852.226807,682.584961 849.091553,682.027771 845.957520,682.027283 
	C633.630005,681.997192 421.302429,681.986023 208.974915,682.053284 
	C200.860443,682.055847 192.748047,682.891968 184.629181,683.189514 
	C183.776306,683.220764 182.885971,682.229370 182.012543,681.338867 
z"/>
<path fill="#090603" opacity="1.000000" stroke="none" 
	d="
M203.236435,208.658539 
	C201.049545,203.074890 196.778168,201.781448 190.763626,201.870209 
	C168.186325,202.203384 145.600403,202.100342 123.019600,201.921295 
	C118.571045,201.886032 116.792091,203.035065 116.913109,207.790344 
	C117.208664,219.403732 117.009499,231.029709 117.009499,242.718231 
	C118.218460,243.176102 119.371216,243.612686 120.716278,244.283569 
	C119.473488,244.517868 118.038383,244.517868 116.140572,244.517868 
	C116.140572,230.236237 116.140572,216.201981 116.579712,201.644196 
	C123.831558,201.094894 130.644241,201.049805 137.456955,201.046982 
	C157.897293,201.038559 178.337906,201.087540 198.777435,200.960297 
	C200.207062,200.951385 201.628845,199.684830 203.054260,199.003082 
	C203.124969,192.631668 203.195663,186.260269 203.148529,179.432373 
	C203.030685,178.975906 202.999939,179.021133 202.978134,179.038452 
	C210.099304,179.055786 217.242264,179.055786 224.790436,179.055786 
	C224.790436,186.470001 224.790436,193.497833 224.790436,200.969849 
	C217.838943,200.969849 210.903687,200.969849 203.375214,200.969849 
	C203.375214,203.695648 203.375214,205.988388 203.236435,208.658539 
z"/>
<path fill="#080503" opacity="1.000000" stroke="none" 
	d="
M356.002289,200.984894 
	C348.941681,200.961182 341.857361,200.961182 334.178528,200.961182 
	C334.178528,193.716309 334.178528,186.809891 334.108032,179.438889 
	C334.037537,178.974319 334.003052,179.020386 333.980133,179.038330 
	C341.080444,179.056290 348.203674,179.056290 356.072601,179.056290 
	C356.072601,186.323730 356.072601,193.221176 356.001648,200.587097 
	C355.930695,201.055573 355.978577,201.008621 356.002289,200.984894 
z"/>
<path fill="#050202" opacity="1.000000" stroke="none" 
	d="
M116.335236,154.057983 
	C116.280243,153.580856 116.225258,153.103729 116.472870,151.936066 
	C117.522057,146.148590 118.268639,141.051620 119.015228,135.954651 
	C124.705971,135.879410 130.396713,135.804169 136.543671,136.312607 
	C137.000641,143.628372 137.001373,150.360458 137.002090,157.092529 
	C131.651276,157.171173 126.300453,157.249817 120.320259,156.957550 
	C118.572334,155.743744 117.453789,154.900864 116.335236,154.057983 
z"/>
<path fill="#050302" opacity="1.000000" stroke="none" 
	d="
M336.999695,135.951172 
	C342.361694,135.878311 347.723724,135.805450 353.579010,136.157074 
	C354.677582,137.054474 355.282867,137.527359 355.888153,138.000259 
	C355.945007,143.359344 356.001862,148.718414 355.566071,154.538330 
	C353.381989,155.697556 351.690552,156.395981 349.999115,157.094406 
	C346.914703,157.168961 343.830322,157.243515 340.372345,156.809387 
	C340.026306,152.163773 338.195465,151.018723 334.495667,152.882538 
	C334.425171,148.272919 334.354675,143.663284 334.549194,138.871033 
	C335.129303,139.364563 335.444336,140.040726 335.759399,140.716873 
	C336.076233,140.686646 336.393097,140.656403 336.709961,140.626175 
	C336.806549,139.067841 336.903107,137.509506 336.999695,135.951172 
M344.913391,148.359482 
	C344.275604,147.906113 343.637787,147.452759 342.981995,146.263306 
	C342.340302,145.602737 341.698639,144.942169 341.056946,144.281601 
	C340.785217,144.779190 340.513458,145.276764 340.241730,145.774353 
	C341.161163,146.183105 342.080566,146.591858 343.086945,147.638931 
	C343.723816,148.093338 344.360687,148.547729 345.010559,149.683243 
	C345.334595,150.290100 345.658630,150.896957 345.982635,151.503830 
	C346.262268,151.209656 346.541931,150.915497 346.821594,150.621338 
	C346.215210,150.080078 345.608826,149.538818 344.913391,148.359482 
z"/>
<path fill="#E3AE7A" opacity="1.000000" stroke="none" 
	d="
M856.913452,309.583130 
	C855.483643,309.992493 853.987671,310.078522 852.491638,310.078613 
	C747.065430,310.086121 641.639221,310.086761 536.213013,310.087952 
	C534.577271,310.087982 532.941528,310.087982 530.753479,310.087982 
	C530.753479,307.119568 530.753479,304.517120 530.858521,301.463470 
	C531.086914,301.124268 531.282410,301.214539 531.323547,301.351257 
	C533.621887,308.993683 533.620544,308.998840 541.999268,308.998932 
	C643.985718,309.000183 745.972107,308.998077 847.958557,309.009247 
	C850.921448,309.009552 853.884277,309.146484 856.913452,309.583130 
z"/>
<path fill="#E3AE7A" opacity="1.000000" stroke="none" 
	d="
M856.913452,658.583252 
	C855.483643,658.992554 853.987610,659.078552 852.491577,659.078674 
	C747.064575,659.086182 641.637512,659.086853 536.210510,659.088013 
	C534.574890,659.088074 532.939331,659.088013 530.754211,659.088013 
	C530.754211,656.117554 530.754211,653.514771 530.859497,650.460449 
	C531.088074,650.120911 531.283569,650.211304 531.324585,650.348022 
	C533.619995,657.994446 533.618713,657.999207 541.996521,657.999268 
	C643.983826,658.000305 745.971191,657.998108 847.958496,658.009216 
	C850.921387,658.009521 853.884338,658.146545 856.913452,658.583252 
z"/>
<path fill="#E5B17A" opacity="1.000000" stroke="none" 
	d="
M553.122559,334.891052 
	C553.350769,334.018921 553.721558,332.509033 554.611938,332.081421 
	C555.696777,331.560486 557.218811,331.946106 558.551697,331.946106 
	C656.196838,331.945648 753.841919,331.946259 851.487061,331.942780 
	C853.319275,331.942719 855.151489,331.894592 857.440613,331.797852 
	C857.051880,332.370453 856.210266,333.554504 855.359741,333.561005 
	C852.228149,333.584839 849.093689,333.027588 845.960205,333.026459 
	C750.980164,332.992462 656.000122,332.985474 561.020142,333.071411 
	C558.511414,333.073669 556.003601,334.154938 553.122559,334.891052 
z"/>
<path fill="#E7B07A" opacity="1.000000" stroke="none" 
	d="
M246.755219,703.308411 
	C247.065353,724.479370 247.065353,745.929199 247.065353,767.759644 
	C218.030777,767.759644 189.215149,767.759644 159.869446,767.759644 
	C159.869446,746.465210 159.869446,725.223450 159.870148,703.517456 
	C160.247025,704.752563 160.942551,706.450378 160.950195,708.151428 
	C161.030380,725.972961 161.101868,743.795959 160.922287,761.616028 
	C160.882477,765.567078 161.729065,767.130798 166.094666,767.095764 
	C191.076996,766.894775 216.062393,766.914246 241.045181,767.086182 
	C245.054718,767.113831 246.118912,765.872314 246.077576,761.971313 
	C245.890457,744.317932 245.985504,726.661499 246.019440,709.006226 
	C246.022919,707.199646 246.296707,705.393616 246.755219,703.308411 
z"/>
<path fill="#DAA876" opacity="1.000000" stroke="none" 
	d="
M553.015625,579.855957 
	C552.561096,577.572754 552.410583,575.123352 552.235413,572.272095 
	C603.273376,572.272095 653.895386,572.272095 705.097717,572.272095 
	C705.097717,578.848389 705.097717,585.442993 705.043213,592.498901 
	C704.656799,588.063477 704.061768,583.165894 704.077515,578.270325 
	C704.089722,574.469727 702.945496,572.935547 698.926636,572.943787 
	C652.263000,573.039856 605.598511,573.106323 558.935974,572.861938 
	C553.181824,572.831787 554.585083,576.950073 553.015625,579.855957 
z"/>
<path fill="#E5B17A" opacity="1.000000" stroke="none" 
	d="
M725.994568,549.523743 
	C701.401123,549.944946 676.809570,550.026428 652.218079,550.046326 
	C626.791931,550.066895 601.365784,550.027588 575.487305,549.890747 
	C576.969849,549.511292 578.904602,549.034241 580.839661,549.032410 
	C626.815002,548.989685 672.790344,549.018127 718.765503,548.934204 
	C720.917969,548.930237 723.068726,548.007690 725.637451,547.417053 
	C725.629211,547.377258 725.812866,548.267090 725.994568,549.523743 
z"/>
<path fill="#E3AE7A" opacity="1.000000" stroke="none" 
	d="
M269.262970,854.681274 
	C268.942230,804.633911 268.926361,754.304077 268.908752,703.509521 
	C269.271301,704.417786 269.952545,705.790466 269.954132,707.164001 
	C270.009674,755.268311 270.003845,803.372620 269.983856,851.476990 
	C269.983459,852.450989 269.712555,853.424927 269.262970,854.681274 
z"/>
<path fill="#E3AE7A" opacity="1.000000" stroke="none" 
	d="
M704.777771,703.316406 
	C705.094604,753.375549 705.093933,803.704529 705.068970,854.497925 
	C704.695679,853.578491 704.043030,852.194946 704.041504,850.810669 
	C703.989990,802.706909 703.997009,754.603149 704.019897,706.499329 
	C704.020386,705.528198 704.307007,704.557251 704.777771,703.316406 
z"/>
<path fill="#090603" opacity="1.000000" stroke="none" 
	d="
M224.770813,92.602051 
	C198.141846,93.001694 171.342514,93.095627 144.545212,92.905853 
	C140.227203,92.875275 138.778000,93.912758 138.892181,98.429741 
	C139.194916,110.405815 138.963623,122.395378 138.906555,134.874023 
	C138.625015,135.153046 138.169281,134.938095 138.168762,134.722076 
	C138.135178,120.638565 138.138428,106.554955 138.138428,92.202194 
	C167.177994,92.202194 195.889557,92.202194 224.770813,92.602051 
z"/>
<path fill="#E4B17C" opacity="1.000000" stroke="none" 
	d="
M202.631836,199.001007 
	C201.628845,199.684830 200.207062,200.951385 198.777435,200.960297 
	C178.337906,201.087540 157.897293,201.038559 137.456955,201.046982 
	C130.644241,201.049805 123.831558,201.094894 116.562592,201.192368 
	C116.790581,200.586639 117.479889,199.313156 118.158363,199.318924 
	C135.434891,199.465271 152.710114,199.920502 169.985947,199.938278 
	C180.726761,199.949326 191.468231,199.333435 202.631836,199.001007 
z"/>
<path fill="#060403" opacity="1.000000" stroke="none" 
	d="
M552.233032,772.707642 
	C549.688782,768.890747 545.879272,768.783752 541.635925,768.927979 
	C533.240662,769.213196 524.829285,769.001953 516.427612,769.157227 
	C515.575562,769.172913 514.783752,770.356812 513.892944,770.876892 
	C512.583313,771.641479 511.209717,772.296570 509.471375,772.999695 
	C509.033356,771.571960 508.987305,770.142883 509.057678,768.291748 
	C509.174072,767.869690 509.122955,767.922485 509.097504,767.944885 
	C523.202332,767.967285 537.332581,767.967285 552.039062,767.967285 
	C552.160278,769.584412 552.265076,770.983215 552.233032,772.707642 
z"/>
<path fill="#070303" opacity="1.000000" stroke="none" 
	d="
M334.394836,153.255554 
	C338.195465,151.018723 340.026306,152.163773 339.999451,156.693024 
	C338.586182,157.138260 337.172211,157.191177 335.370361,156.819305 
	C334.827179,155.976776 334.671875,155.559036 334.516602,155.141312 
	C334.442413,154.637054 334.368225,154.132812 334.394836,153.255554 
z"/>
<path fill="#E6B17A" opacity="1.000000" stroke="none" 
	d="
M858.343262,679.687622 
	C858.004456,673.639893 857.948975,667.289734 857.966553,660.477783 
	C858.684082,660.955566 859.918335,661.922485 859.876343,662.830322 
	C859.620972,668.356018 859.075317,673.868347 858.343262,679.687622 
z"/>
<path fill="#E5B17A" opacity="1.000000" stroke="none" 
	d="
M858.342529,330.687561 
	C858.003479,324.639771 857.947937,318.289825 857.965576,311.478149 
	C858.683472,311.955750 859.918274,312.922333 859.876282,313.829895 
	C859.620850,319.355865 859.075073,324.868378 858.342529,330.687561 
z"/>
<path fill="#090603" opacity="1.000000" stroke="none" 
	d="
M118.710815,135.826645 
	C118.268639,141.051620 117.522057,146.148590 116.557205,151.582855 
	C116.268364,147.449921 116.064285,142.974625 116.232841,138.513428 
	C116.269272,137.549164 117.646683,136.635559 118.710815,135.826645 
z"/>
<path fill="#090603" opacity="1.000000" stroke="none" 
	d="
M137.406219,156.908936 
	C137.001373,150.360458 137.000641,143.628372 137.000504,136.424347 
	C137.337631,140.069931 137.781998,144.182465 137.973190,148.306747 
	C138.102890,151.104416 137.877136,153.918564 137.406219,156.908936 
z"/>
<path fill="#090603" opacity="1.000000" stroke="none" 
	d="
M138.531937,157.991638 
	C138.936508,164.501053 138.968658,171.258804 139.000763,178.481445 
	C138.663971,174.842316 138.223175,170.743256 138.026733,166.632538 
	C137.893463,163.843491 138.103180,161.038071 138.531937,157.991638 
z"/>
<path fill="#090603" opacity="1.000000" stroke="none" 
	d="
M203.239075,161.742920 
	C202.401184,160.817551 201.696243,159.598038 200.981873,158.054321 
	C204.857559,156.978790 202.961517,159.957993 203.239075,161.742920 
z"/>
<path fill="#070303" opacity="1.000000" stroke="none" 
	d="
M350.418884,157.206116 
	C351.690552,156.395981 353.381989,155.697556 355.478821,154.998718 
	C355.850494,159.356552 352.555511,156.620758 350.418884,157.206116 
z"/>
<path fill="#070303" opacity="1.000000" stroke="none" 
	d="
M336.631348,135.851318 
	C336.903107,137.509506 336.806549,139.067841 336.709961,140.626175 
	C336.393097,140.656403 336.076233,140.686646 335.759399,140.716873 
	C335.444336,140.040726 335.129303,139.364563 334.651886,138.427094 
	C335.080658,137.360992 335.671814,136.556229 336.631348,135.851318 
z"/>
<path fill="#090603" opacity="1.000000" stroke="none" 
	d="
M116.249397,154.397278 
	C117.453789,154.900864 118.572334,155.743744 119.866394,156.845520 
	C117.942299,157.636688 115.854782,158.149109 116.249397,154.397278 
z"/>
<path fill="#090603" opacity="1.000000" stroke="none" 
	d="
M197.480286,244.618637 
	C198.561279,244.370789 200.004929,244.226517 201.821777,244.160751 
	C200.744293,244.400253 199.293610,244.561249 197.480286,244.618637 
z"/>
<path fill="#090603" opacity="1.000000" stroke="none" 
	d="
M190.499588,244.623779 
	C191.523788,244.409149 192.935654,244.299225 194.611206,244.355133 
	C193.545700,244.590134 192.216461,244.659302 190.499588,244.623779 
z"/>
<path fill="#070303" opacity="1.000000" stroke="none" 
	d="
M355.972412,137.682220 
	C355.282867,137.527359 354.677582,137.054474 354.035950,136.266266 
	C354.485657,135.895676 354.971741,135.840363 355.784637,135.969818 
	C356.111481,136.154602 356.072479,136.099167 356.049042,136.078033 
	C356.035950,136.492661 356.046326,136.928406 355.972412,137.682220 
z"/>
<path fill="#050302" opacity="1.000000" stroke="none" 
	d="
M334.404907,155.433731 
	C334.671875,155.559036 334.827179,155.976776 334.989624,156.622849 
	C334.794525,156.893814 334.592316,156.936417 334.092407,156.878510 
	C333.794739,156.777985 333.844543,156.829483 333.863647,156.853195 
	C334.019562,156.493317 334.156372,156.109741 334.404907,155.433731 
z"/>
<path fill="#090603" opacity="1.000000" stroke="none" 
	d="
M224.264709,135.499359 
	C224.209610,135.253784 224.340561,135.150955 224.621948,135.050934 
	C224.844131,135.326935 224.736923,135.523056 224.264709,135.499359 
z"/>
<path fill="#090603" opacity="1.000000" stroke="none" 
	d="
M202.588623,244.280426 
	C202.385788,244.010559 202.492767,243.650314 202.848358,243.138153 
	C203.030792,243.387512 202.964615,243.788788 202.588623,244.280426 
z"/>
<path fill="#FEFDCC" opacity="1.000000" stroke="none" 
	d="
M552.387085,419.000305 
	C552.387085,462.820587 552.387085,506.140900 552.387085,549.998901 
	C545.201660,549.998901 538.124634,549.998901 530.592529,549.998901 
	C530.592529,564.776367 530.592529,579.023743 530.592529,593.682617 
	C523.215454,593.682617 516.295837,593.682617 508.888672,593.682617 
	C508.888672,608.330139 508.888672,622.565430 508.888672,637.187012 
	C501.468811,637.187012 494.537415,637.187012 487.246155,637.187012 
	C487.246155,644.495056 487.246155,651.420288 487.246155,658.717041 
	C465.338470,658.717041 443.794586,658.717041 421.645203,658.717041 
	C421.645203,651.789795 421.645203,644.748047 421.645203,637.378174 
	C399.606140,637.378174 378.165466,637.378174 356.299316,637.378174 
	C356.299316,630.123352 356.299316,623.189209 356.299316,615.635925 
	C348.858459,615.635925 341.812622,615.635925 334.463318,615.635925 
	C334.463318,600.895813 334.463318,586.774780 334.463318,572.065552 
	C327.120148,572.065552 320.061737,572.065552 312.787842,572.065552 
	C312.787842,513.586975 312.787842,455.698090 312.787842,397.333618 
	C319.973724,397.333618 326.892029,397.333618 334.260132,397.333618 
	C334.260132,389.953430 334.260132,383.037659 334.260132,375.690613 
	C341.638519,375.690613 348.570587,375.690613 355.931458,375.690613 
	C355.931458,361.021545 355.931458,346.783051 355.931458,332.028198 
	C363.410370,332.028198 370.468353,332.028198 377.847412,332.028198 
	C377.847412,324.578064 377.847412,317.637756 377.847412,310.272919 
	C392.427704,310.272919 406.682861,310.272919 421.536713,310.272919 
	C421.536713,302.816132 421.536713,295.756378 421.536713,288.482239 
	C436.235046,288.482239 450.332153,288.482239 465.005219,288.482239 
	C465.005219,295.559113 465.005219,302.602844 465.005219,310.061890 
	C479.822021,310.061890 494.072937,310.061890 508.750854,310.061890 
	C508.750854,324.734497 508.750854,338.989777 508.750854,353.664612 
	C516.101257,353.664612 523.038513,353.664612 530.495117,353.664612 
	C530.495117,368.295471 530.495117,382.516754 530.495117,397.225281 
	C537.916931,397.225281 544.825806,397.225281 552.387085,397.225281 
	C552.387085,404.634003 552.387085,411.567169 552.387085,419.000305 
M377.945007,437.500763 
	C377.945007,467.601379 377.945007,497.701996 377.945007,528.349487 
	C385.442596,528.349487 392.497345,528.349487 399.898102,528.349487 
	C399.898102,535.817932 399.898102,542.744690 399.898102,549.705505 
	C429.131165,549.705505 457.987274,549.705505 487.269104,549.705505 
	C487.269104,535.134644 487.269104,520.905457 487.269104,506.259705 
	C494.612274,506.259705 501.533417,506.259705 508.624817,506.259705 
	C508.624817,477.096558 508.624817,448.364105 508.624817,419.085968 
	C501.352966,419.085968 494.301666,419.085968 486.901611,419.085968 
	C486.901611,411.619141 486.901611,404.692444 486.901611,397.543854 
	C457.796783,397.543854 429.063873,397.543854 399.746094,397.543854 
	C399.746094,404.812195 399.746094,411.867554 399.746094,419.264526 
	C392.225372,419.264526 385.286438,419.264526 377.945007,419.264526 
	C377.945007,425.246918 377.945007,430.874176 377.945007,437.500763 
z"/>
<path fill="#D4D3A9" opacity="1.000000" stroke="none" 
	d="
M181.985382,397.326050 
	C188.936600,397.326050 195.887833,397.326050 203.359344,397.326050 
	C203.359344,389.954620 203.359344,383.041656 203.359344,375.634399 
	C210.497086,375.634399 217.117218,375.634399 224.669510,375.734436 
	C232.712204,375.900269 239.822754,375.966064 246.933289,376.031860 
	C246.933289,390.171326 246.933289,404.310791 246.933289,418.793213 
	C254.340622,418.793213 261.380920,418.793213 268.940002,418.793213 
	C268.940002,404.455872 268.940002,390.218018 268.940002,375.858398 
	C276.383209,375.858398 283.311432,375.858398 290.715576,375.858398 
	C290.715576,441.033478 290.715576,505.978394 290.191711,571.400513 
	C282.740356,571.946533 275.812866,572.015198 268.885376,572.083923 
	C254.612030,572.045715 240.338669,572.007568 225.134598,571.995483 
	C217.149796,572.005310 210.095718,571.989136 203.041641,571.972961 
	C196.115753,571.972961 189.189865,571.972961 181.690277,571.972961 
	C181.690277,564.745178 181.690277,558.004272 181.749695,550.328247 
	C181.840195,547.233459 181.897141,545.073730 181.898590,542.913940 
	C181.931198,494.384644 181.957718,445.855347 181.985382,397.326050 
z"/>
<path fill="#939375" opacity="1.000000" stroke="none" 
	d="
M181.882141,396.844727 
	C181.957718,445.855347 181.931198,494.384644 181.898590,542.913940 
	C181.897141,545.073730 181.840195,547.233459 181.748627,549.883667 
	C174.586395,550.374023 167.484650,550.374023 159.884811,550.374023 
	C159.884811,557.493103 159.884811,564.408508 159.884811,571.610474 
	C152.482193,571.610474 145.578506,571.610474 138.338913,571.610474 
	C138.338913,506.506104 138.338913,441.487274 138.338913,375.909180 
	C145.235519,375.909180 152.133835,375.909180 159.572937,375.909180 
	C159.572937,361.151001 159.572937,346.934601 159.572937,332.062500 
	C167.135590,332.062500 174.182266,332.062500 181.725250,332.062500 
	C181.725250,324.500458 181.725250,317.585663 181.725250,310.064392 
	C188.846741,310.064392 195.459457,310.064392 202.524811,309.994385 
	C202.977432,309.924408 202.934402,309.890411 202.934402,309.890411 
	C202.934402,324.327728 202.934402,338.765015 202.934402,353.682495 
	C196.047211,353.682495 189.286972,353.682495 181.778900,353.682495 
	C181.778900,368.223511 181.778900,382.293457 181.882141,396.844727 
z"/>
<path fill="#929174" opacity="1.000000" stroke="none" 
	d="
M247.005280,375.565979 
	C239.822754,375.966064 232.712204,375.900269 225.113800,375.753937 
	C224.804398,366.377655 225.015793,357.082367 225.148315,347.785980 
	C225.221176,342.674042 225.161346,337.560181 225.161346,331.992523 
	C232.619797,331.992523 239.531830,331.992523 246.906616,331.992523 
	C246.906616,324.627289 246.906616,317.713409 246.906616,310.326660 
	C254.272873,310.326660 261.188629,310.326660 268.761963,310.326660 
	C268.761963,302.843811 268.761963,295.804779 268.761963,288.493896 
	C283.482117,288.493896 297.541107,288.493896 311.994202,288.493896 
	C311.994202,295.558777 311.994202,302.454315 311.994202,309.963104 
	C305.190308,309.963104 298.290955,309.963104 290.887756,309.963104 
	C290.887756,317.457855 290.887756,324.361298 290.887756,331.749908 
	C283.476288,331.749908 276.571014,331.749908 269.009613,331.749908 
	C269.009613,339.250732 269.009613,346.287323 269.009613,353.799805 
	C261.451782,353.799805 254.538971,353.799805 247.077255,353.799805 
	C247.077255,361.223846 247.077255,368.161957 247.005280,375.565979 
z"/>
<path fill="#909073" opacity="1.000000" stroke="none" 
	d="
M268.898438,572.546936 
	C275.812866,572.015198 282.740356,571.946533 290.105469,571.849915 
	C290.543060,578.934143 290.543060,586.046204 290.543060,593.687500 
	C298.171326,593.687500 305.083710,593.687500 312.299988,593.687500 
	C312.299988,608.284668 312.299988,622.344543 312.299988,636.813354 
	C305.350342,636.813354 298.476471,636.813354 290.928589,636.813354 
	C290.928589,630.057617 290.928589,623.182190 290.928589,615.752686 
	C283.388031,615.752686 276.489380,615.752686 268.911469,615.752686 
	C268.911469,601.127136 268.911469,587.068542 268.898438,572.546936 
z"/>
<path fill="#919174" opacity="1.000000" stroke="none" 
	d="
M203.153046,572.432739 
	C210.095718,571.989136 217.149796,572.005310 224.680923,572.069092 
	C225.157974,579.067566 225.157974,586.018433 225.157974,593.491577 
	C232.438461,593.491577 239.336197,593.491577 247.035706,593.491577 
	C247.035706,608.034241 247.035706,622.063660 247.020721,636.546997 
	C247.005722,637.000977 247.039444,636.963562 247.039444,636.963562 
	C239.931076,636.963562 232.822708,636.963562 225.163498,636.963562 
	C225.163498,629.743408 225.163498,622.833496 225.163498,615.346741 
	C217.703049,615.346741 210.785828,615.346741 203.264465,615.346741 
	C203.264465,600.805664 203.264465,586.849121 203.153046,572.432739 
z"/>
<path fill="#909074" opacity="1.000000" stroke="none" 
	d="
M246.985931,637.016602 
	C254.063446,637.032166 261.160736,637.032166 268.588135,637.032166 
	C268.588135,644.522034 268.588135,651.401672 268.588135,658.688110 
	C261.642731,658.688110 254.637283,658.688110 247.032089,658.688110 
	C247.032089,651.734070 247.032089,644.819763 247.035767,637.434570 
	C247.039444,636.963562 247.005722,637.000977 246.985931,637.016602 
z"/>
<path fill="#8C8C70" opacity="1.000000" stroke="none" 
	d="
M312.060303,354.022491 
	C312.060303,346.904755 312.060303,339.787048 312.060303,332.302582 
	C319.634094,332.302582 326.516235,332.302582 333.819031,332.302582 
	C333.819031,339.225922 333.819031,346.237793 333.819031,353.911987 
	C326.778717,353.911987 319.843353,353.911987 312.466370,353.939453 
	C312.024719,353.966949 312.060303,354.022491 312.060303,354.022491 
z"/>
<path fill="#8E8E72" opacity="1.000000" stroke="none" 
	d="
M167.048813,593.781250 
	C172.005249,593.780823 176.467484,593.780823 181.337524,593.780823 
	C181.337524,600.974060 181.337524,607.836731 181.337524,615.168335 
	C174.424622,615.168335 167.424301,615.168335 160.140778,615.168335 
	C160.140778,608.196899 160.140778,601.318481 160.140778,593.781677 
	C162.373260,593.781677 164.463943,593.781677 167.048813,593.781250 
z"/>
<path fill="#8F8E72" opacity="1.000000" stroke="none" 
	d="
M202.991837,309.947754 
	C203.106445,304.159668 203.358917,298.345276 203.245438,292.538055 
	C203.184677,289.429718 203.929398,287.981506 207.381531,288.130676 
	C213.007538,288.373718 218.651703,288.196289 224.727661,288.196289 
	C224.727661,295.505615 224.727661,302.512512 224.727661,310.032959 
	C217.747421,310.032959 210.811813,310.032959 203.405304,309.961670 
	C202.934402,309.890411 202.977432,309.924408 202.991837,309.947754 
z"/>
<path fill="#949376" opacity="1.000000" stroke="none" 
	d="
M311.995850,353.951050 
	C312.152618,360.062744 312.478180,366.192261 312.394775,372.316223 
	C312.379791,373.416504 310.720398,375.389618 309.748230,375.435577 
	C303.640289,375.724243 297.511963,375.581665 291.097046,375.581665 
	C291.097046,368.168335 291.097046,361.291199 291.097046,353.886230 
	C297.921112,353.886230 304.520782,353.886230 311.590393,353.954346 
	C312.060303,354.022491 312.024719,353.966949 311.995850,353.951050 
z"/>
<path fill="#EBAB69" opacity="1.000000" stroke="none" 
	d="
M443.093536,136.419662 
	C464.672760,135.899155 486.398193,135.829651 508.586182,135.863144 
	C509.048737,142.914795 509.048737,149.863464 509.048737,157.091217 
	C486.973145,157.091217 465.574158,157.091217 443.239716,157.091217 
	C443.239716,150.327454 443.239716,143.599060 443.093536,136.419662 
z"/>
<path fill="#070303" opacity="1.000000" stroke="none" 
	d="
M343.000000,147.000610 
	C342.080566,146.591858 341.161163,146.183105 340.241730,145.774353 
	C340.513458,145.276764 340.785217,144.779190 341.056946,144.281601 
	C341.698639,144.942169 342.340302,145.602737 342.990997,146.631653 
	C343.000000,147.000000 343.000000,147.000610 343.000000,147.000610 
z"/>
<path fill="#070303" opacity="1.000000" stroke="none" 
	d="
M345.002441,148.997559 
	C345.608826,149.538818 346.215210,150.080078 346.821594,150.621338 
	C346.541931,150.915497 346.262268,151.209656 345.982635,151.503830 
	C345.658630,150.896957 345.334595,150.290100 345.005280,149.341614 
	C345.000000,149.000000 345.002441,148.997559 345.002441,148.997559 
z"/>
<path fill="#070303" opacity="1.000000" stroke="none" 
	d="
M344.998779,149.001068 
	C344.360687,148.547729 343.723816,148.093338 343.043457,147.319763 
	C343.000000,147.000610 343.000000,147.000000 343.000000,146.999695 
	C343.637787,147.452759 344.275604,147.906113 344.957916,148.678528 
	C345.002441,148.997559 345.000000,149.000000 344.998779,149.001068 
z"/>
<path fill="#020202" opacity="1.000000" stroke="none" 
	d="
M377.945007,437.001099 
	C377.945007,430.874176 377.945007,425.246918 377.945007,419.264526 
	C385.286438,419.264526 392.225372,419.264526 399.746094,419.264526 
	C399.746094,411.867554 399.746094,404.812195 399.746094,397.543854 
	C429.063873,397.543854 457.796783,397.543854 486.901611,397.543854 
	C486.901611,404.692444 486.901611,411.619141 486.901611,419.085968 
	C494.301666,419.085968 501.352966,419.085968 508.624817,419.085968 
	C508.624817,448.364105 508.624817,477.096558 508.624817,506.259705 
	C501.533417,506.259705 494.612274,506.259705 487.269104,506.259705 
	C487.269104,520.905457 487.269104,535.134644 487.269104,549.705505 
	C457.987274,549.705505 429.131165,549.705505 399.898102,549.705505 
	C399.898102,542.744690 399.898102,535.817932 399.898102,528.349487 
	C392.497345,528.349487 385.442596,528.349487 377.945007,528.349487 
	C377.945007,497.701996 377.945007,467.601379 377.945007,437.001099 
M403.648315,441.004700 
	C399.908661,440.285187 399.772980,442.517731 399.784485,445.351715 
	C399.861664,464.349243 399.818237,483.347198 399.841187,502.345001 
	C399.842712,503.615997 400.068115,504.886719 400.179352,506.052551 
	C414.661133,506.052551 428.750854,506.052551 443.423645,506.052551 
	C443.423645,498.852386 443.423645,491.949432 443.423645,484.568359 
	C450.933685,484.568359 457.863129,484.568359 464.872986,484.568359 
	C464.872986,477.135193 464.872986,470.212524 464.872986,462.829987 
	C457.695740,462.829987 450.778320,462.829987 443.210693,462.829987 
	C443.210693,455.348083 443.210693,448.311798 443.210693,441.004395 
	C429.906921,441.004395 417.263153,441.004395 403.648315,441.004700 
z"/>
<path fill="#ACACAC" opacity="1.000000" stroke="none" 
	d="
M404.133850,441.004547 
	C417.263153,441.004395 429.906921,441.004395 443.210693,441.004395 
	C443.210693,448.311798 443.210693,455.348083 443.210693,462.829987 
	C450.778320,462.829987 457.695740,462.829987 464.872986,462.829987 
	C464.872986,470.212524 464.872986,477.135193 464.872986,484.568359 
	C457.863129,484.568359 450.933685,484.568359 443.423645,484.568359 
	C443.423645,491.949432 443.423645,498.852386 443.423645,506.052551 
	C428.750854,506.052551 414.661133,506.052551 400.179352,506.052551 
	C400.068115,504.886719 399.842712,503.615997 399.841187,502.345001 
	C399.818237,483.347198 399.861664,464.349243 399.784485,445.351715 
	C399.772980,442.517731 399.908661,440.285187 404.133850,441.004547 
z"/>
</svg>