<svg version="1.1" id="Layer_1" xmlns="http://www.w3.org/2000/svg" xmlns:xlink="http://www.w3.org/1999/xlink" x="0px" y="0px"
	 width="100%" viewBox="0 0 400 400" enable-background="new 0 0 400 400" xml:space="preserve">
<path fill="#1C1C1C" opacity="1.000000" stroke="none" 
	d="
M255.000000,401.000000 
	C170.000000,401.000000 85.500000,401.000000 1.000000,401.000000 
	C1.000000,267.666656 1.000000,134.333328 1.000000,1.000000 
	C134.333328,1.000000 267.666656,1.000000 401.000000,1.000000 
	C401.000000,134.333328 401.000000,267.666656 401.000000,401.000000 
	C352.500000,401.000000 304.000000,401.000000 255.000000,401.000000 
M125.449158,276.059265 
	C125.449158,276.059265 125.897797,276.114197 126.141403,276.737091 
	C127.264442,277.239685 128.387527,278.181091 129.510529,278.180969 
	C160.091522,278.178223 190.672592,278.096130 221.253326,277.956421 
	C223.184296,277.947601 225.112625,277.363983 227.971054,277.039398 
	C243.306870,277.354095 258.642700,277.668762 274.380585,277.728851 
	C274.634003,277.533051 274.849304,277.301758 275.609497,276.857208 
	C276.087463,276.246887 276.565460,275.636597 277.249176,274.794830 
	C277.388062,274.487396 277.332581,274.210724 277.076111,273.031982 
	C277.058746,240.685135 277.041382,208.338272 277.053162,175.504059 
	C277.053162,175.504059 277.063995,175.015686 277.480377,174.408173 
	C277.643280,172.931320 277.806183,171.454453 277.969421,169.043106 
	C277.973419,155.040009 277.977448,141.036911 277.718689,126.629913 
	C277.516571,126.376572 277.280060,126.160950 276.636230,125.424782 
	C275.338928,124.856201 274.042877,123.798241 272.744171,123.794975 
	C260.199097,123.763435 247.651382,123.808098 235.109985,124.083900 
	C232.386719,124.143806 229.685669,125.214272 226.472214,126.079399 
	C226.242249,126.372734 226.012268,126.666061 225.361084,126.972603 
	C225.361084,126.972603 224.940796,127.003166 224.504654,127.700211 
	C224.334595,129.504959 224.022385,131.309296 224.017105,133.114517 
	C223.977341,146.742844 223.997879,160.371368 223.999039,174.498199 
	C223.999039,174.498199 223.997620,174.996582 223.061035,174.964539 
	C208.041443,174.975311 193.021851,174.986084 178.000839,174.499908 
	C178.000702,174.333206 178.000549,174.166519 178.002197,173.062531 
	C178.003281,159.635330 178.041656,146.207916 177.963684,132.781174 
	C177.952484,130.854370 177.379822,128.930847 176.641525,126.994217 
	C176.641525,126.994217 176.217621,127.032501 176.053604,126.581711 
	C176.053604,126.581711 175.978363,126.107956 175.802704,125.537231 
	C172.600555,125.025871 169.405899,124.134209 166.194901,124.070786 
	C154.050156,123.830925 141.899551,123.792938 129.752808,123.889076 
	C128.505615,123.898941 127.269531,125.311996 126.009727,126.012344 
	C126.009727,126.012344 126.070770,126.032700 125.535690,126.003708 
	C125.357117,125.999481 125.178543,125.995262 124.614319,126.280281 
	C124.370384,126.495468 124.171356,126.746284 124.016220,127.965942 
	C124.016457,176.966415 124.016701,225.966873 124.281868,275.370880 
	C124.485611,275.623688 124.724976,275.836365 125.449158,276.059265 
z"/>
<path fill="#2F2400" opacity="1.000000" stroke="none" 
	d="
M124.016945,274.967346 
	C124.016701,225.966873 124.016457,176.966415 124.262207,127.492645 
	C124.508186,127.019341 124.999428,127.005791 125.113251,127.187653 
	C125.396545,127.602310 125.592857,127.809685 125.891861,128.455414 
	C125.980438,156.516647 125.974495,184.114136 126.012039,211.711563 
	C126.039848,232.156509 126.124199,252.601364 126.106216,273.282898 
	C126.029083,273.519501 125.844109,273.982269 125.681931,274.132263 
	C125.315201,274.496704 125.141762,274.733917 124.753822,274.987061 
	C124.508202,274.980255 124.016945,274.967346 124.016945,274.967346 
z"/>
<path fill="#262005" opacity="1.000000" stroke="none" 
	d="
M227.042191,277.047760 
	C225.112625,277.363983 223.184296,277.947601 221.253326,277.956421 
	C190.672592,278.096130 160.091522,278.178223 129.510529,278.180969 
	C128.387527,278.181091 127.264442,277.239685 126.062164,276.379211 
	C125.982918,276.021362 126.068649,275.931274 126.531708,275.966064 
	C160.000793,276.032715 193.006836,276.064575 226.162964,276.276489 
	C226.534180,276.680664 226.777222,276.877716 227.042191,277.047760 
z"/>
<path fill="#D1C378" opacity="1.000000" stroke="none" 
	d="
M126.183357,273.046265 
	C126.124199,252.601364 126.039848,232.156509 126.012039,211.711563 
	C125.974495,184.114136 125.980438,156.516647 125.950066,128.130737 
	C125.978523,126.905769 126.024651,126.469231 126.070770,126.032700 
	C126.070770,126.032700 126.009727,126.012344 126.484680,126.000626 
	C143.299210,126.028595 159.638794,126.068275 175.978363,126.107956 
	C175.978363,126.107956 176.053604,126.581711 176.030746,126.806152 
	C176.007889,127.030602 175.801025,126.995934 175.641876,127.144646 
	C175.281067,127.506508 175.116684,127.745316 174.569427,127.983475 
	C171.188095,127.636467 168.229523,127.070847 165.265259,127.039230 
	C154.782852,126.927406 144.298508,126.992470 133.814896,127.001938 
	C127.019028,127.008072 127.006790,127.016998 127.006180,133.923050 
	C127.002228,178.187195 127.015381,222.451355 126.969215,266.715454 
	C126.967010,268.825989 126.456924,270.936005 126.183357,273.046265 
z"/>
<path fill="#3C1800" opacity="1.000000" stroke="none" 
	d="
M227.506622,277.043579 
	C226.777222,276.877716 226.534180,276.680664 226.080719,276.224915 
	C225.848389,275.993256 225.927933,275.815643 226.396545,275.880371 
	C241.692886,275.962158 256.521301,275.906097 271.347809,276.050842 
	C274.785706,276.084381 276.162140,274.939423 276.051819,271.436798 
	C275.868317,265.611359 275.990234,259.775879 276.005432,253.944672 
	C276.073090,227.959625 276.148499,201.974579 276.421844,175.991119 
	C276.622559,175.992706 277.024017,175.991425 277.023987,175.991425 
	C277.041382,208.338272 277.058746,240.685135 277.060455,273.763489 
	C277.044373,274.672058 277.043915,274.849152 277.043427,275.026276 
	C276.565460,275.636597 276.087463,276.246887 275.116333,277.072388 
	C274.369232,277.483368 274.154358,277.715332 273.978516,277.983459 
	C258.642700,277.668762 243.306870,277.354095 227.506622,277.043579 
z"/>
<path fill="#262005" opacity="1.000000" stroke="none" 
	d="
M175.890533,125.822594 
	C159.638794,126.068275 143.299210,126.028595 126.493965,126.031433 
	C127.269531,125.311996 128.505615,123.898941 129.752808,123.889076 
	C141.899551,123.792938 154.050156,123.830925 166.194901,124.070786 
	C169.405899,124.134209 172.600555,125.025871 175.890533,125.822594 
z"/>
<path fill="#262005" opacity="1.000000" stroke="none" 
	d="
M226.974396,125.819290 
	C229.685669,125.214272 232.386719,124.143806 235.109985,124.083900 
	C247.651382,123.808098 260.199097,123.763435 272.744171,123.794975 
	C274.042877,123.798241 275.338928,124.856201 276.819275,125.959045 
	C277.000336,126.663292 276.998322,126.833260 276.732422,127.010498 
	C276.292542,127.023972 276.116638,127.030167 275.735840,127.000175 
	C275.530975,126.963989 275.125153,126.873543 274.854614,126.531586 
	C258.714172,126.066193 242.844284,125.942741 226.974396,125.819290 
z"/>
<path fill="#2F2400" opacity="1.000000" stroke="none" 
	d="
M275.940735,127.036362 
	C276.116638,127.030167 276.292542,127.023972 276.978699,127.018463 
	C277.488922,127.019150 277.981476,127.033806 277.981476,127.033806 
	C277.977448,141.036911 277.973419,155.040009 277.756622,169.813278 
	C277.383881,172.060867 277.223938,173.538269 277.064026,175.015686 
	C277.063995,175.015686 277.053162,175.504059 277.038574,175.747742 
	C277.024017,175.991425 276.622559,175.992706 276.323303,175.950821 
	C276.024048,175.908936 275.844421,176.022827 275.911285,175.556946 
	C275.965668,159.072815 275.953186,143.054596 275.940735,127.036362 
z"/>
<path fill="#413201" opacity="1.000000" stroke="none" 
	d="
M224.940796,127.003166 
	C224.940796,127.003166 225.361084,126.972603 225.669434,127.007355 
	C225.977783,127.042107 226.189453,127.047836 226.113281,127.363487 
	C226.087479,128.109619 226.137833,128.540100 226.109497,129.436188 
	C226.004700,145.212952 225.978592,160.524109 225.711792,175.840302 
	C225.471100,175.845352 224.997391,175.759125 224.996292,175.568771 
	C224.995193,175.378418 224.997818,174.997696 224.998825,174.748749 
	C224.999161,174.333084 224.998489,174.166367 224.998566,173.531006 
	C224.979797,157.709305 224.960297,142.356232 224.940796,127.003166 
z"/>
<path fill="#413201" opacity="1.000000" stroke="none" 
	d="
M176.112762,127.031555 
	C176.217621,127.032501 176.641525,126.994217 176.834900,127.467209 
	C177.019440,143.293381 177.010574,158.646545 177.000854,174.249359 
	C177.000000,174.499008 177.002167,174.998306 177.014648,175.189117 
	C177.027115,175.379913 177.041611,175.762054 176.821320,175.809723 
	C176.601044,175.857407 176.150955,175.872162 176.090912,175.414978 
	C175.954254,158.970520 175.877640,142.983231 175.801025,126.995934 
	C175.801025,126.995934 176.007889,127.030602 176.112762,127.031555 
z"/>
<path fill="#D1C378" opacity="1.000000" stroke="none" 
	d="
M226.723297,125.949341 
	C242.844284,125.942741 258.714172,126.066193 274.758972,126.627762 
	C274.933899,127.065895 274.742462,127.258080 274.298584,127.186371 
	C257.966278,127.092377 242.077866,127.070107 226.189453,127.047836 
	C226.189453,127.047836 225.977783,127.042107 225.880035,127.000748 
	C226.012268,126.666061 226.242249,126.372734 226.723297,125.949341 
z"/>
<path fill="#3C1800" opacity="1.000000" stroke="none" 
	d="
M177.041611,175.762054 
	C177.041611,175.762054 177.027115,175.379913 177.264130,175.189758 
	C177.668167,174.998703 177.835220,174.997787 178.002258,174.996872 
	C193.021851,174.986084 208.041443,174.975311 223.779968,174.982025 
	C224.498901,174.999527 224.997818,174.997696 224.997818,174.997696 
	C224.997818,174.997696 224.995193,175.378418 224.531616,175.640930 
	C208.392548,175.856308 192.717087,175.809189 177.041611,175.762054 
z"/>
<path fill="#1F1D08" opacity="1.000000" stroke="none" 
	d="
M224.722717,127.351685 
	C224.960297,142.356232 224.979797,157.709305 224.749542,173.531174 
	C224.333038,173.999924 224.166306,173.999863 223.999588,173.999817 
	C223.997879,160.371368 223.977341,146.742844 224.017105,133.114517 
	C224.022385,131.309296 224.334595,129.504959 224.722717,127.351685 
z"/>
<path fill="#1F1D08" opacity="1.000000" stroke="none" 
	d="
M177.001724,173.999710 
	C177.010574,158.646545 177.019440,143.293381 177.047638,127.473007 
	C177.379822,128.930847 177.952484,130.854370 177.963684,132.781174 
	C178.041656,146.207916 178.003281,159.635330 177.751526,173.531250 
	C177.500854,173.999954 177.001724,173.999710 177.001724,173.999710 
z"/>
<path fill="#1F1D08" opacity="1.000000" stroke="none" 
	d="
M277.272217,174.711929 
	C277.223938,173.538269 277.383881,172.060867 277.756470,170.280518 
	C277.806183,171.454453 277.643280,172.931320 277.272217,174.711929 
z"/>
<path fill="#262005" opacity="1.000000" stroke="none" 
	d="
M125.803230,126.018204 
	C126.024651,126.469231 125.978523,126.905769 125.874207,127.666977 
	C125.592857,127.809685 125.396545,127.602310 125.113220,126.933937 
	C124.999573,126.329254 124.999771,126.160156 124.999969,125.991051 
	C125.178543,125.995262 125.357117,125.999481 125.803230,126.018204 
z"/>
<path fill="#262005" opacity="1.000000" stroke="none" 
	d="
M124.999443,274.993896 
	C125.141762,274.733917 125.315201,274.496704 125.755089,274.367615 
	C125.990433,274.453033 126.145493,274.920471 126.080276,275.169678 
	C126.032936,275.589691 126.050797,275.760468 126.068649,275.931274 
	C126.068649,275.931274 125.982918,276.021362 125.940353,276.067780 
	C125.897797,276.114197 125.449158,276.059265 125.224258,275.780304 
	C124.999390,275.332184 124.999420,275.163055 124.999443,274.993896 
z"/>
<path fill="#28180B" opacity="1.000000" stroke="none" 
	d="
M277.146301,274.910553 
	C277.043915,274.849152 277.044373,274.672058 277.063782,274.229919 
	C277.332581,274.210724 277.388062,274.487396 277.146301,274.910553 
z"/>
<path fill="#1F1D08" opacity="1.000000" stroke="none" 
	d="
M124.753822,274.987061 
	C124.999420,275.163055 124.999390,275.332184 124.999664,275.755157 
	C124.724976,275.836365 124.485611,275.623688 124.149406,275.169128 
	C124.016945,274.967346 124.508202,274.980255 124.753822,274.987061 
z"/>
<path fill="#28180B" opacity="1.000000" stroke="none" 
	d="
M274.179565,277.856140 
	C274.154358,277.715332 274.369232,277.483368 274.824799,277.161316 
	C274.849304,277.301758 274.634003,277.533051 274.179565,277.856140 
z"/>
<path fill="#28180B" opacity="1.000000" stroke="none" 
	d="
M223.999313,174.249008 
	C224.166306,173.999863 224.333038,173.999924 224.748810,173.999817 
	C224.998489,174.166367 224.999161,174.333084 224.998825,174.748749 
	C224.997818,174.997696 224.498901,174.999527 224.248260,174.998047 
	C223.997620,174.996582 223.999039,174.498199 223.999313,174.249008 
z"/>
<path fill="#28180B" opacity="1.000000" stroke="none" 
	d="
M177.000854,174.249359 
	C177.001724,173.999710 177.500854,173.999954 177.750641,173.999878 
	C178.000549,174.166519 178.000702,174.333206 178.001556,174.748383 
	C177.835220,174.997787 177.668167,174.998703 177.251648,174.998962 
	C177.002167,174.998306 177.000000,174.499008 177.000854,174.249359 
z"/>
<path fill="#1F1D08" opacity="1.000000" stroke="none" 
	d="
M277.850098,126.831863 
	C277.981476,127.033806 277.488922,127.019150 277.242615,127.011192 
	C276.998322,126.833260 277.000336,126.663292 277.005737,126.238182 
	C277.280060,126.160950 277.516571,126.376572 277.850098,126.831863 
z"/>
<path fill="#1F1D08" opacity="1.000000" stroke="none" 
	d="
M124.807144,126.135666 
	C124.999771,126.160156 124.999573,126.329254 124.999405,126.752075 
	C124.999428,127.005791 124.508186,127.019341 124.262711,127.026039 
	C124.171356,126.746284 124.370384,126.495468 124.807144,126.135666 
z"/>
<path fill="#F9E880" opacity="1.000000" stroke="none" 
	d="
M126.145493,274.920471 
	C126.145493,274.920471 125.990433,274.453033 125.917267,274.217651 
	C125.844109,273.982269 126.029083,273.519501 126.106216,273.282898 
	C126.456924,270.936005 126.967010,268.825989 126.969215,266.715454 
	C127.015381,222.451355 127.002228,178.187195 127.006180,133.923050 
	C127.006790,127.016998 127.019028,127.008072 133.814896,127.001938 
	C144.298508,126.992470 154.782852,126.927406 165.265259,127.039230 
	C168.229523,127.070847 171.188095,127.636467 174.557404,128.248123 
	C174.956131,128.715500 174.946762,128.891922 174.500977,129.050461 
	C161.115738,128.692429 148.168259,128.281174 135.217575,128.040527 
	C128.150681,127.909195 128.009796,128.161102 128.008774,135.351639 
	C128.002518,179.108658 128.002609,222.865692 128.008667,266.622711 
	C128.009659,273.838501 128.146332,273.981659 135.192474,273.983856 
	C165.140244,273.993225 195.088028,273.988434 225.032593,274.218628 
	C225.029373,274.448395 225.015747,274.907806 224.546600,274.930481 
	C191.433472,274.942261 158.789490,274.931366 126.145493,274.920471 
z"/>
<path fill="#D1C378" opacity="1.000000" stroke="none" 
	d="
M126.080276,275.169678 
	C158.789490,274.931366 191.433472,274.942261 224.772995,274.952728 
	C225.468521,274.952301 225.923325,274.977203 225.923996,275.186829 
	C225.924667,275.396423 225.927933,275.815643 225.927933,275.815643 
	C225.927933,275.815643 225.848389,275.993256 225.930634,276.044861 
	C193.006836,276.064575 160.000793,276.032715 126.531708,275.966064 
	C126.050797,275.760468 126.032936,275.589691 126.080276,275.169678 
z"/>
<path fill="#EAD886" opacity="1.000000" stroke="none" 
	d="
M174.937378,129.068359 
	C174.946762,128.891922 174.956131,128.715500 174.977539,128.274414 
	C175.116684,127.745316 175.281067,127.506508 175.641876,127.144646 
	C175.877640,142.983231 175.954254,158.970520 176.036499,175.677856 
	C176.009689,176.574051 175.977249,176.750168 175.759186,176.797974 
	C175.344131,176.468323 175.153046,176.235504 175.001404,175.639725 
	C174.997070,174.865799 174.991669,174.423355 174.983063,173.513458 
	C174.965714,158.386795 174.951538,143.727570 174.937378,129.068359 
z"/>
<path fill="#C1844D" opacity="1.000000" stroke="none" 
	d="
M226.396545,275.880371 
	C225.927933,275.815643 225.924667,275.396423 225.963074,275.171570 
	C226.001495,274.946716 226.073471,274.906311 226.534470,274.926392 
	C240.808380,274.962524 254.621307,274.996094 268.434204,274.986694 
	C274.645233,274.982483 274.991028,274.651825 274.991821,268.521393 
	C274.995880,237.733490 274.971649,206.945587 274.961304,176.098282 
	C274.965302,176.038879 274.997681,175.924271 275.208130,175.959473 
	C275.418579,175.994659 275.844421,176.022827 275.844421,176.022827 
	C275.844421,176.022827 276.024048,175.908936 276.122589,175.949234 
	C276.148499,201.974579 276.073090,227.959625 276.005432,253.944672 
	C275.990234,259.775879 275.868317,265.611359 276.051819,271.436798 
	C276.162140,274.939423 274.785706,276.084381 271.347809,276.050842 
	C256.521301,275.906097 241.692886,275.962158 226.396545,275.880371 
z"/>
<path fill="#D1C378" opacity="1.000000" stroke="none" 
	d="
M275.911285,175.556946 
	C275.844421,176.022827 275.418579,175.994659 275.206665,175.497910 
	C274.910675,159.086807 274.826569,143.172440 274.742462,127.258080 
	C274.742462,127.258080 274.933899,127.065895 275.029541,126.969719 
	C275.125153,126.873543 275.530975,126.963989 275.735840,127.000175 
	C275.953186,143.054596 275.965668,159.072815 275.911285,175.556946 
z"/>
<path fill="#F9E880" opacity="1.000000" stroke="none" 
	d="
M274.298584,127.186371 
	C274.826569,143.172440 274.910675,159.086807 274.996216,175.462708 
	C274.997681,175.924271 274.965302,176.038879 274.716492,176.017365 
	C274.302643,175.945740 274.137604,175.895630 273.976624,175.390137 
	C273.983368,161.294388 273.854431,147.651993 274.062408,134.014771 
	C274.132233,129.435669 272.472626,127.790939 267.938477,127.956116 
	C254.334320,128.451721 240.720718,128.688873 226.880234,129.011536 
	C226.649658,128.996170 226.188187,128.970581 226.188187,128.970581 
	C226.137833,128.540100 226.087479,128.109619 226.113281,127.363487 
	C242.077866,127.070107 257.966278,127.092377 274.298584,127.186371 
z"/>
<path fill="#C1844D" opacity="1.000000" stroke="none" 
	d="
M175.944809,176.926300 
	C175.977249,176.750168 176.009689,176.574051 176.096542,176.135040 
	C176.150955,175.872162 176.601044,175.857407 176.821320,175.809723 
	C192.717087,175.809189 208.392548,175.856308 224.532715,175.831268 
	C224.997391,175.759125 225.471100,175.845352 225.957520,175.862289 
	C226.443939,175.879227 226.938461,175.870453 226.928223,175.956512 
	C226.917969,176.042587 226.913818,176.215195 226.898361,176.397400 
	C226.882904,176.579620 226.850937,176.946106 226.391693,176.956268 
	C209.656494,177.037277 193.380539,177.108139 176.889191,177.123505 
	C176.673798,177.068008 176.233276,177.006348 176.161957,176.983459 
	C176.090652,176.960571 175.944809,176.926300 175.944809,176.926300 
z"/>
<path fill="#EAD886" opacity="1.000000" stroke="none" 
	d="
M226.938461,175.870453 
	C226.938461,175.870453 226.443939,175.879227 226.198212,175.857239 
	C225.978592,160.524109 226.004700,145.212952 226.109497,129.436188 
	C226.188187,128.970581 226.649658,128.996170 226.856445,129.476761 
	C227.058975,142.952896 227.054733,155.948441 227.044128,169.216812 
	C227.042587,169.671494 227.047440,169.853363 227.056335,170.354599 
	C227.057648,171.099792 227.054901,171.525620 227.037979,172.329819 
	C227.021820,173.463089 227.019821,174.218002 227.004044,175.197845 
	C226.990250,175.422760 226.938461,175.870453 226.938461,175.870453 
z"/>
<path fill="#FEE761" opacity="1.000000" stroke="none" 
	d="
M175.000305,175.971207 
	C175.153046,176.235504 175.344131,176.468323 175.759186,176.797974 
	C175.944809,176.926300 176.090652,176.960571 176.083801,177.443359 
	C176.035019,192.080963 176.129456,206.238297 175.869324,220.389099 
	C175.789673,224.721542 177.099533,226.209946 181.538589,226.148819 
	C196.023499,225.949402 210.513794,226.141312 225.114685,226.333633 
	C225.390991,226.676392 225.575897,226.844879 225.815826,227.458069 
	C225.918625,243.267761 225.987610,258.609436 225.993652,273.942383 
	C225.930679,273.933655 225.803711,273.940369 225.611786,273.953491 
	C225.419876,273.966583 225.035797,273.988831 225.035797,273.988831 
	C195.088028,273.988434 165.140244,273.993225 135.192474,273.983856 
	C128.146332,273.981659 128.009659,273.838501 128.008667,266.622711 
	C128.002609,222.865692 128.002518,179.108658 128.008774,135.351639 
	C128.009796,128.161102 128.150681,127.909195 135.217575,128.040527 
	C148.168259,128.281174 161.115738,128.692429 174.500961,129.050461 
	C174.951538,143.727570 174.965714,158.386795 174.825806,173.689484 
	C174.781265,174.879044 174.890778,175.425125 175.000305,175.971207 
z"/>
<path fill="#FFD35A" opacity="1.000000" stroke="none" 
	d="
M225.032593,274.218628 
	C225.035797,273.988831 225.419876,273.966583 225.686951,274.193085 
	C225.993866,274.581848 226.033676,274.744080 226.073471,274.906311 
	C226.073471,274.906311 226.001495,274.946716 225.962402,274.961975 
	C225.923325,274.977203 225.468521,274.952301 225.242126,274.930054 
	C225.015747,274.907806 225.029373,274.448395 225.032593,274.218628 
z"/>
<path fill="#F9E880" opacity="1.000000" stroke="none" 
	d="
M175.001404,175.639725 
	C174.890778,175.425125 174.781265,174.879044 174.828995,174.156937 
	C174.991669,174.423355 174.997070,174.865799 175.001404,175.639725 
z"/>
<path fill="#EF9849" opacity="1.000000" stroke="none" 
	d="
M226.534470,274.926392 
	C226.033676,274.744080 225.993866,274.581848 225.878876,274.179993 
	C225.803711,273.940369 225.930679,273.933655 226.326111,273.953461 
	C227.166199,273.961731 227.610855,273.950195 228.520615,273.945923 
	C241.969681,273.963562 254.955856,273.840881 267.936401,274.056702 
	C272.467987,274.132050 274.083221,272.565125 274.059265,267.984772 
	C273.900696,237.689682 273.948273,207.393539 273.952393,176.875778 
	C273.976074,176.653824 274.001556,176.208130 273.996887,176.117279 
	C273.992188,176.026413 273.972565,175.845520 273.972565,175.845520 
	C274.137604,175.895630 274.302643,175.945740 274.712494,176.076767 
	C274.971649,206.945587 274.995880,237.733490 274.991821,268.521393 
	C274.991028,274.651825 274.645233,274.982483 268.434204,274.986694 
	C254.621307,274.996094 240.808380,274.962524 226.534470,274.926392 
z"/>
<path fill="#FEE762" opacity="1.000000" stroke="none" 
	d="
M227.052155,171.951462 
	C227.054901,171.525620 227.057648,171.099792 227.156525,170.232391 
	C227.380447,169.470795 227.313065,169.188522 227.050491,168.943985 
	C227.054733,155.948441 227.058975,142.952896 227.087006,129.492126 
	C240.720718,128.688873 254.334320,128.451721 267.938477,127.956116 
	C272.472626,127.790939 274.132233,129.435669 274.062408,134.014771 
	C273.854431,147.651993 273.983368,161.294388 273.976624,175.390137 
	C273.972565,175.845520 273.992188,176.026413 273.533478,176.044006 
	C259.400909,175.978210 245.727066,175.894836 232.002563,175.640488 
	C231.621460,175.602692 231.291016,175.735840 230.555573,175.893250 
	C229.071671,176.016724 227.992737,176.115967 226.913818,176.215195 
	C226.913818,176.215195 226.917969,176.042587 226.928223,175.956512 
	C226.938461,175.870453 226.990250,175.422760 227.198776,175.021317 
	C227.288910,173.730408 227.170532,172.840927 227.052155,171.951462 
z"/>
<path fill="#FB922C" opacity="1.000000" stroke="none" 
	d="
M273.928711,177.097733 
	C273.948273,207.393539 273.900696,237.689682 274.059265,267.984772 
	C274.083221,272.565125 272.467987,274.132050 267.936401,274.056702 
	C254.955856,273.840881 241.969681,273.963562 228.501892,273.484314 
	C228.007568,259.021698 227.870056,245.026291 228.059433,231.035309 
	C228.121063,226.481995 226.515671,224.852554 221.951614,224.922455 
	C208.627350,225.126495 195.297089,224.908981 181.971069,225.044327 
	C178.358673,225.081024 176.912827,223.899673 176.957413,220.157288 
	C177.128036,205.832626 177.074448,191.505310 177.104568,177.178986 
	C193.380539,177.108139 209.656494,177.037277 226.876434,176.976868 
	C243.189850,177.024124 258.559296,177.060928 273.928711,177.097733 
z"/>
<path fill="#E9A531" opacity="1.000000" stroke="none" 
	d="
M176.889191,177.123505 
	C177.074448,191.505310 177.128036,205.832626 176.957413,220.157288 
	C176.912827,223.899673 178.358673,225.081024 181.971069,225.044327 
	C195.297089,224.908981 208.627350,225.126495 221.951614,224.922455 
	C226.515671,224.852554 228.121063,226.481995 228.059433,231.035309 
	C227.870056,245.026291 228.007568,259.021698 228.036774,273.477051 
	C227.610855,273.950195 227.166199,273.961731 226.389084,273.962219 
	C225.987610,258.609436 225.918625,243.267761 225.739777,227.278229 
	C225.476364,226.403030 225.267059,226.253799 225.002014,226.182693 
	C210.513794,226.141312 196.023499,225.949402 181.538589,226.148819 
	C177.099533,226.209946 175.789673,224.721542 175.869324,220.389099 
	C176.129456,206.238297 176.035019,192.080963 176.155121,177.466248 
	C176.233276,177.006348 176.673798,177.068008 176.889191,177.123505 
z"/>
<path fill="#E9A531" opacity="1.000000" stroke="none" 
	d="
M273.952393,176.875778 
	C258.559296,177.060928 243.189850,177.024124 227.335678,176.966705 
	C226.850937,176.946106 226.882904,176.579620 226.898361,176.397400 
	C227.992737,176.115967 229.071671,176.016724 230.829834,175.898010 
	C231.690460,175.856171 231.871826,175.833801 232.053207,175.811447 
	C245.727066,175.894836 259.400909,175.978210 273.538147,176.134857 
	C274.001556,176.208130 273.976074,176.653824 273.952393,176.875778 
z"/>
<path fill="#F9E880" opacity="1.000000" stroke="none" 
	d="
M227.037979,172.329819 
	C227.170532,172.840927 227.288910,173.730408 227.212570,174.796387 
	C227.019821,174.218002 227.021820,173.463089 227.037979,172.329819 
z"/>
<path fill="#F9E880" opacity="1.000000" stroke="none" 
	d="
M227.044128,169.216812 
	C227.313065,169.188522 227.380447,169.470795 227.152466,169.913025 
	C227.047440,169.853363 227.042587,169.671494 227.044128,169.216812 
z"/>
<path fill="#FFD35A" opacity="1.000000" stroke="none" 
	d="
M225.114685,226.333633 
	C225.267059,226.253799 225.476364,226.403030 225.705978,226.810226 
	C225.575897,226.844879 225.390991,226.676392 225.114685,226.333633 
z"/>
<path fill="#FFD35A" opacity="1.000000" stroke="none" 
	d="
M232.002563,175.640488 
	C231.871826,175.833801 231.690460,175.856171 231.234818,175.873764 
	C231.291016,175.735840 231.621460,175.602692 232.002563,175.640488 
z"/>
</svg>