<svg width="320" height="320" viewBox="0 0 320 320" xmlns="http://www.w3.org/2000/svg" shape-rendering="crispEdges"><rect width="100%" height="100%" fill="#a7a0f3" /><rect width="140" height="10" x="90" y="210" fill="#fe500c" /><rect width="140" height="10" x="90" y="220" fill="#fe500c" /><rect width="140" height="10" x="90" y="230" fill="#fe500c" /><rect width="140" height="10" x="90" y="240" fill="#fe500c" /><rect width="140" height="10" x="90" y="250" fill="#fe500c" /><rect width="140" height="10" x="90" y="260" fill="#fe500c" /><rect width="140" height="10" x="90" y="270" fill="#fe500c" /><rect width="140" height="10" x="90" y="280" fill="#fe500c" /><rect width="140" height="10" x="90" y="290" fill="#fe500c" /><rect width="140" height="10" x="90" y="300" fill="#fe500c" /><rect width="140" height="10" x="90" y="310" fill="#fe500c" /><rect width="10" height="10" x="160" y="240" fill="#0385eb" /><rect width="10" height="10" x="160" y="250" fill="#0385eb" /><rect width="10" height="10" x="150" y="260" fill="#0385eb" /><rect width="10" height="10" x="160" y="260" fill="#00499c" /><rect width="10" height="10" x="170" y="260" fill="#0385eb" /><rect width="50" height="10" x="140" y="270" fill="#00499c" /><rect width="30" height="10" x="150" y="280" fill="#0385eb" /><rect width="10" height="10" x="160" y="290" fill="#0385eb" /><rect width="30" height="10" x="130" y="20" fill="#eed811" /><rect width="80" height="10" x="120" y="30" fill="#eed811" /><rect width="120" height="10" x="120" y="40" fill="#eed811" /><rect width="120" height="10" x="110" y="50" fill="#eed811" /><rect width="110" height="10" x="110" y="60" fill="#eed811" /><rect width="110" height="10" x="100" y="70" fill="#eed811" /><rect width="100" height="10" x="100" y="80" fill="#eed811" /><rect width="100" height="10" x="90" y="90" fill="#eed811" /><rect width="90" height="10" x="90" y="100" fill="#eed811" /><rect width="90" height="10" x="80" y="110" fill="#eed811" /><rect width="80" height="10" x="80" y="120" fill="#eed811" /><rect width="230" height="10" x="70" y="130" fill="#eed811" /><rect width="220" height="10" x="70" y="140" fill="#eed811" /><rect width="210" height="10" x="60" y="150" fill="#eed811" /><rect width="190" height="10" x="60" y="160" fill="#eed811" /><rect width="180" height="10" x="50" y="170" fill="#eed811" /><rect width="110" height="10" x="100" y="180" fill="#eed811" /><rect width="100" height="10" x="90" y="190" fill="#eed811" /><rect width="80" height="10" x="90" y="200" fill="#eed811" /><rect width="70" height="10" x="80" y="210" fill="#eed811" /><rect width="50" height="10" x="80" y="220" fill="#eed811" /><rect width="40" height="10" x="70" y="230" fill="#eed811" /><rect width="20" height="10" x="70" y="240" fill="#eed811" /><rect width="10" height="10" x="60" y="250" fill="#eed811" /><rect width="20" height="10" x="90" y="270" fill="#eed811" /><rect width="10" height="10" x="220" y="270" fill="#eed811" /><rect width="20" height="10" x="90" y="280" fill="#eed811" /><rect width="10" height="10" x="220" y="280" fill="#eed811" /><rect width="20" height="10" x="90" y="290" fill="#eed811" /><rect width="10" height="10" x="220" y="290" fill="#eed811" /><rect width="20" height="10" x="90" y="300" fill="#eed811" /><rect width="10" height="10" x="220" y="300" fill="#eed811" /><rect width="20" height="10" x="90" y="310" fill="#eed811" /><rect width="10" height="10" x="220" y="310" fill="#eed811" /><rect width="50" height="10" x="100" y="110" fill="#ff638d" /><rect width="10" height="10" x="150" y="110" fill="#fb4694" /><rect width="10" height="10" x="170" y="110" fill="#fb4694" /><rect width="50" height="10" x="180" y="110" fill="#ff638d" /><rect width="10" height="10" x="100" y="120" fill="#ff638d" /><rect width="10" height="10" x="110" y="120" fill="#ffffff" /><rect width="30" height="10" x="120" y="120" fill="#000000" /><rect width="10" height="10" x="150" y="120" fill="#fb4694" /><rect width="10" height="10" x="170" y="120" fill="#fb4694" /><rect width="10" height="10" x="180" y="120" fill="#ffffff" /><rect width="30" height="10" x="190" y="120" fill="#000000" /><rect width="10" height="10" x="220" y="120" fill="#ff638d" /><rect width="40" height="10" x="70" y="130" fill="#ff638d" /><rect width="10" height="10" x="110" y="130" fill="#ffffff" /><rect width="30" height="10" x="120" y="130" fill="#000000" /><rect width="10" height="10" x="150" y="130" fill="#fb4694" /><rect width="20" height="10" x="160" y="130" fill="#ff638d" /><rect width="10" height="10" x="180" y="130" fill="#ffffff" /><rect width="30" height="10" x="190" y="130" fill="#000000" /><rect width="10" height="10" x="220" y="130" fill="#ff638d" /><rect width="10" height="10" x="70" y="140" fill="#ff638d" /><rect width="10" height="10" x="100" y="140" fill="#ff638d" /><rect width="10" height="10" x="110" y="140" fill="#ffffff" /><rect width="30" height="10" x="120" y="140" fill="#000000" /><rect width="20" height="10" x="150" y="140" fill="#fb4694" /><rect width="10" height="10" x="170" y="140" fill="#ff638d" /><rect width="10" height="10" x="180" y="140" fill="#ffffff" /><rect width="30" height="10" x="190" y="140" fill="#000000" /><rect width="10" height="10" x="220" y="140" fill="#ff638d" /><rect width="10" height="10" x="70" y="150" fill="#ff638d" /><rect width="10" height="10" x="100" y="150" fill="#ff638d" /><rect width="10" height="10" x="110" y="150" fill="#ffffff" /><rect width="30" height="10" x="120" y="150" fill="#000000" /><rect width="10" height="10" x="150" y="150" fill="#ff638d" /><rect width="10" height="10" x="170" y="150" fill="#ff638d" /><rect width="10" height="10" x="180" y="150" fill="#ffffff" /><rect width="30" height="10" x="190" y="150" fill="#000000" /><rect width="10" height="10" x="220" y="150" fill="#ff638d" /><rect width="60" height="10" x="100" y="160" fill="#ff638d" /><rect width="60" height="10" x="170" y="160" fill="#ff638d" /></svg>